<?xml version="1.0" encoding="UTF-8"?>
<svg width="140px" height="19px" viewBox="0 0 140 19" version="1.1" xmlns="http://www.w3.org/2000/svg" xmlns:xlink="http://www.w3.org/1999/xlink">
    <!-- Generator: Sketch 56 (81588) - https://sketch.com -->
    <title>Group 22</title>
    <desc>Created with Sketch.</desc>
    <g id="Desktop" stroke="none" stroke-width="1" fill="none" fill-rule="evenodd">
        <g id="Home" transform="translate(-581.000000, -3632.000000)">
            <g id="Group-22" transform="translate(581.000000, 3632.000000)">
                <path d="M134.596743,10.6700566 C134.593309,10.9055804 134.590219,11.1411042 134.586786,11.3769714 C134.495976,11.3580311 134.391198,11.3521769 134.296265,11.3329113 C134.391189,11.3522324 134.495953,11.3581364 134.586752,11.3770744 C134.964806,12.6818937 136.178975,13.3665804 136.873963,14.4485503 C137.505427,15.4312852 138.341198,16.2828515 139.087005,17.1921045 C139.07636,17.4207913 139.066059,17.6498214 139.055414,17.8785081 L136.313234,17.8785081 C134.664698,15.9278033 133.040198,13.9963274 131.404366,12.074466 C130.934288,11.5230081 130.924673,10.6381346 130.128047,10.3284117 C129.996192,9.72029728 129.119216,9.54277318 129.207806,8.728978 C131.382047,8.27435149 134.015378,9.43873101 135.629577,6.91596595 C135.629577,6.48606234 135.661854,6.02765872 135.623396,5.57543583 C135.527595,4.453978 134.989186,3.78577318 133.91683,3.48841173 C132.261427,3.02932137 130.584047,3.02726113 128.786487,3.21474306 L128.786487,17.6899961 C127.822981,18.011737 127.004035,17.8201346 126.097872,17.8455443 L126.097872,1.28052017 C126.872866,0.8228033 127.738167,0.720477999 128.660469,0.712580409 C130.648601,0.69506836 132.622655,0.787092457 134.59568,1.05252017 C137.589896,1.45529728 139.78989,5.35842378 138.265999,7.93853222 C137.716258,8.86976113 136.866065,9.83155029 135.709927,10.2727852 C135.341841,10.4132208 134.967919,10.5378622 134.596743,10.6700566 Z M134.296265,11.3329113 L134.146909,10.7454224 C134.068754,10.7898966 134.015959,10.8680794 134.013661,11.0100081 C134.013245,11.0371322 134.014801,11.0619656 134.018136,11.0847216 C134.029676,11.163789 134.062691,11.2177704 134.109179,11.2555151 C134.15928,11.2963381 134.224999,11.3184058 134.296265,11.3329113 Z M42.9463066,1.12809667 C44.1429633,0.409759324 45.3018488,0.874687035 46.3048428,0.732187035 C47.529656,1.24209667 47.5674271,2.42158463 47.9458247,3.31229547 C49.3581199,6.63615089 50.6440536,10.0135726 52.1366982,13.7707653 C54.0420777,9.23377137 55.7984331,5.05285571 57.5520416,0.877777397 C58.8541139,0.68548824 60.015403,0.5862533 61.1426982,0.908681011 C61.5221259,2.15821716 61.6237645,15.3798135 61.2821078,17.7827413 C60.5314934,17.9530545 59.7503187,17.8696147 58.7201982,17.8133015 C58.6903247,13.7673316 58.7205416,9.73956053 58.433138,5.6307533 C56.7286319,9.67500631 55.0241259,13.7192593 53.3429693,17.7075425 C52.4014392,17.9424099 51.6274753,17.9492774 50.7305837,17.7075425 C49.1672042,13.8315425 47.5914633,9.92498222 46.0153789,6.0180786 C45.9130536,6.03112679 45.8103849,6.04383161 45.7077163,6.05687981 L45.7077163,17.7195605 C44.7452404,17.9640425 43.9630355,17.8637774 42.9761801,17.8177653 C42.8656139,12.2255846 42.9174633,6.66156053 42.9463066,1.12809667 Z M82.1026283,3.5725039 L82.1026283,17.6982027 C81.1669355,17.9856063 80.37855,17.8444798 79.6059596,17.837269 C79.2430139,16.6299678 79.1183693,4.39728704 79.4390801,1.18228101 C81.6888633,0.72319065 83.949291,0.432696674 86.2704958,1.01025089 C87.1351102,1.2252027 88.0642789,0.951534023 88.946062,1.38384125 C90.8624295,2.32399788 91.9512669,3.80771475 91.9883512,5.93079306 C92.0178813,7.61091957 90.7147789,9.92388342 88.620544,10.3572208 C88.2448934,10.4351666 87.8699295,10.5986123 87.5574596,11.0243955 C88.3904837,12.1218172 89.1812729,13.2861967 90.1001404,14.3389798 C90.9935982,15.3632629 91.8774416,16.386516 92.7801705,17.6449798 C91.647038,18.0573714 90.5877307,17.7861063 89.4916825,17.877787 C87.2429295,15.1321726 84.9941765,12.3858714 82.7457669,9.63991354 C82.7945259,9.31988944 82.6334837,8.94320872 83.1203873,8.61631716 C83.8452488,8.61631716 84.6985319,8.56687137 85.5439175,8.62730511 C86.9874596,8.73066053 88.0931223,8.22384125 88.9319837,6.8967027 C88.9319837,6.59625089 88.9419416,6.20034125 88.9292367,5.80443161 C88.9161886,5.41023884 88.9989416,5.00437137 88.81455,4.63284125 C87.2041283,3.05091957 84.3211645,2.56298583 82.1026283,3.5725039 Z M75.8278211,15.5531141 C76.3727548,16.3572949 76.1876765,16.985325 76.1584898,17.5958431 C74.9752247,17.9409334 68.1311042,18.039825 65.3484054,17.7421202 L65.3484054,1.10945149 C66.701297,0.583059927 74.3829054,0.578252698 75.7134777,1.08335511 C76.049297,1.7738792 75.8048151,2.50217438 75.9043934,3.41966836 L68.0469777,3.41966836 C67.9539235,4.95180089 67.9316042,6.28374667 68.092303,7.82309005 L74.6273873,7.82309005 C74.9522187,8.67396957 74.8481765,9.32019848 74.7832789,9.94548161 C73.6556404,10.5814093 72.5530681,10.2479937 71.4982247,10.3001864 C70.4190018,10.3537527 69.3349717,10.3118611 68.06655,10.3118611 C67.9027608,11.9971382 68.0074898,13.5986322 67.9951283,15.3385057 C70.7678693,15.6537226 73.328062,15.3292346 75.8278211,15.5531141 Z M107.898905,14.4978587 C108.260821,15.1379069 109.073243,15.5963105 108.785496,16.5598166 C105.329785,19.3267202 98.8568512,18.5915575 96.073809,15.2316479 C94.3833813,13.1899491 93.6128512,10.9563045 94.0087608,8.20862981 C94.5794476,4.24575631 96.9219416,1.9297021 100.533544,1.00396716 C103.340966,0.283912939 106.274749,0.282196071 108.832538,2.23702137 C108.777942,3.21048523 108.370701,3.90272619 107.479303,4.53315993 C106.104092,3.45634065 104.417098,3.52192499 102.710189,3.39522017 C100.059345,3.19846716 97.669809,5.45855149 97.2622247,7.84877438 C96.9181645,9.86746716 96.9741343,11.9150033 98.5430078,13.6212262 C100.402032,15.6430093 102.663833,15.7261057 105.124791,15.3016961 C106.076622,15.1372202 106.80217,14.2667684 107.898905,14.4978587 Z M112.012829,17.8662153 L112.012829,1.14358282 L122.374124,1.14358282 C122.772781,1.80869728 122.48263,2.53115511 122.59663,3.37516716 L114.739558,3.37516716 C114.691829,4.88326354 114.574395,6.25538402 114.862486,7.77961896 C117.053552,8.09346234 119.215431,7.77412499 121.405124,7.98289607 C121.618702,8.63496234 121.578871,9.22384788 121.427443,10.0276852 L114.856992,10.0276852 C114.530787,11.9004443 114.771492,13.5836611 114.659208,15.4794262 L122.45619,15.4794262 C123.057781,16.3069563 122.995973,16.9391069 122.611739,17.7772816 C119.159461,17.9843358 115.654305,17.8315346 112.012829,17.8662153 Z" id="Shape" fill="#979DA2"></path>
                <g id="Group-21">
                    <path d="M17.1567253,14.115581 C16.815412,14.1131774 16.4744422,14.1104304 16.1331289,14.1080268 C15.155888,13.2595509 14.0296229,12.6455991 12.9315145,11.9732738 C11.5981952,11.157075 10.0969663,10.6203822 8.90580361,9.57137619 C9.13414699,9.16482197 9.46962289,8.86059306 9.86759277,8.63637017 C11.7290205,7.58736414 13.6014361,6.55758704 15.4584,5.50034005 C15.8677012,5.26718944 16.492641,5.22255089 16.4747855,4.52824969 C18.8663819,3.16540029 21.3712916,2.00136414 23.632406,0.408111132 C24.0441108,0.117960529 24.5358217,-0.0908105552 25.0828157,0.0540930592 C25.0845325,3.23888222 25.0862494,6.42401475 25.0879663,9.6088039 L25.0532855,9.64760511 C24.8362735,9.69773764 24.5773699,9.68743643 24.4091169,9.80624366 C22.1047373,11.433834 19.422647,12.4254967 17.1567253,14.115581" id="Fill-7" fill="#979DA2"></path>
                    <path d="M0.32036747,14.1081985 C0.104728916,13.9883611 2.57571742e-13,13.8070599 2.57571742e-13,13.5584575 C0.00137349398,10.6054455 0.00103012048,7.65209005 0.00103012048,4.59331896 C1.55204819,3.66380691 3.04915663,2.65600571 4.64653012,1.84701776 C5.84284337,1.24062017 6.82901205,0.201228601 8.24542771,0.0370960713 C8.25916265,3.2339033 8.27255422,6.43071053 8.28628916,9.62751776 C7.99922892,9.64193944 7.74787952,9.71713824 7.48725904,9.87302981 C5.10596386,11.2969997 2.71093373,12.699337 0.32036747,14.1081985" id="Fill-15" fill="#979DA2"></path>
                    <path d="M8.28635783,9.62758643 C8.27262289,6.43043583 8.25888795,3.23397197 8.24515301,0.037164746 C8.79420723,-0.0981244106 9.25158072,0.16043583 9.68423133,0.418652698 C11.9559904,1.77463463 14.4245024,2.80681535 16.4747855,4.52814667 C16.492641,5.22244788 15.8677012,5.26742981 15.4584,5.50023704 C13.6014361,6.5578274 11.7290205,7.58760451 9.86759277,8.63626716 C9.46962289,8.86083342 9.13414699,9.16471896 8.90580361,9.57127318 L8.51538795,9.61865872 C8.43881566,9.61968884 8.36258675,9.62243583 8.28635783,9.62758643" id="Fill-18" fill="#323639"></path>
                    <path d="M8.28635783,9.62758643 C8.36258675,9.62243583 8.43881566,9.61968884 8.51538795,9.61865872 C8.53599036,12.6012009 8.55659277,15.5840864 8.57685181,18.5666286 C8.38078554,18.9676888 8.02882771,18.9872611 7.72047831,18.8042431 C5.33815301,17.3912611 2.96750241,15.9587069 0.600972289,14.5196286 C0.471863855,14.4413394 0.412116867,14.2480202 0.320436145,14.1082672 C2.71100241,12.6994057 5.10568916,11.2970684 7.48732771,9.87309848 C7.74794819,9.71720691 7.99929759,9.64200812 8.28635783,9.62758643" id="Fill-20" fill="#50565A"></path>
                    <path d="M25.0880349,9.6088039 C25.0863181,6.42401475 25.0846012,3.23888222 25.0828843,0.0540930592 C26.2819446,0.102165348 27.1314506,0.949611132 28.0918663,1.47668944 C29.7534506,2.38868944 31.526288,3.14891836 32.9519747,4.46541234 C33.191306,4.68654487 33.2946614,4.88020752 33.2702819,5.17653884 C32.6680048,5.06631595 32.1889988,5.39046053 31.689047,5.63116535 C29.8279627,6.52634005 28.2391735,7.90223764 26.3046072,8.67242438 C25.9097277,8.82968944 25.7167518,9.17924366 25.7442217,9.62253884 C25.5254928,9.61773161 25.3067639,9.61361113 25.0880349,9.6088039" id="Fill-23" fill="#323639"></path>
                    <path d="M25.0880349,9.6088039 C25.3067639,9.61361113 25.5254928,9.61773161 25.7442217,9.62253884 C28.018041,11.0197256 30.2918602,12.4169123 32.4691916,13.7546955 C32.9433904,13.5984605 33.259294,13.494075 33.5751976,13.3900328 C33.7441373,14.0235569 33.3138904,14.3971473 32.8826133,14.62034 C30.2396675,15.9845629 27.8635229,17.8353461 25.0626253,18.909075 C25.0595349,15.8221473 25.0564446,12.7348762 25.0530108,9.64760511 L25.0880349,9.6088039 Z" id="Fill-25" fill="#979DA2"></path>
                    <path d="M33.5753006,13.3899298 C33.259397,13.4943153 32.9434934,13.5983575 32.4692946,13.7545925 C30.2916199,12.4168093 28.018144,11.019966 25.7443247,9.62243583 C25.7168548,9.17914065 25.9098307,8.82992981 26.3047102,8.67266475 C28.2389331,7.902478 29.8280657,6.52658041 31.6888066,5.63106234 C32.1887584,5.39035752 32.6681078,5.06655631 33.2700416,5.17643583 C33.6848367,5.34709246 33.6171922,5.71415872 33.6154753,6.04585752 C33.6044873,8.49411053 33.5893789,10.9420202 33.5753006,13.3899298" id="Fill-27" fill="#50565A"></path>
                    <path d="M25.0531482,9.64770812 C25.0562386,12.7349792 25.0596723,15.8219069 25.0627627,18.909178 C23.0598651,18.1523828 21.2987024,16.9495455 19.4637145,15.8823406 C18.8775759,15.5417141 18.3037988,15.1746479 17.6949976,14.8803768 C17.342353,14.7100635 17.1476602,14.5047262 17.156588,14.115684 C19.422853,12.4255997 22.1046,11.433937 24.4093229,9.80634667 C24.5772325,9.68753944 24.8364795,9.69784065 25.0531482,9.64770812" id="Fill-29" fill="#BFC4C8"></path>
                    <path d="M8.57692048,18.5666973 C8.55631807,15.5838117 8.53571566,12.6012696 8.51545663,9.61838402 L8.90587229,9.57134185 C10.0970349,10.6203479 11.5982639,11.1570406 12.9315831,11.9732394 C14.0296916,12.6455647 15.1559566,13.2595166 16.1331976,14.1079925 C16.1524265,14.9176672 15.3932277,15.0687515 14.9317337,15.3619925 C13.3841494,16.3450708 11.7682337,17.2210166 10.1681133,18.119625 C9.68086627,18.3929503 9.17816747,18.6714262 8.57692048,18.5666973" id="Fill-31" fill="#BFC4C8"></path>
                </g>
            </g>
        </g>
    </g>
</svg>