<?xml version="1.0" encoding="UTF-8"?>
<svg width="111px" height="21px" viewBox="0 0 111 21" version="1.1" xmlns="http://www.w3.org/2000/svg" xmlns:xlink="http://www.w3.org/1999/xlink">
    <!-- Generator: Sketch 56 (81588) - https://sketch.com -->
    <title>Shape</title>
    <desc>Created with Sketch.</desc>
    <g id="Desktop" stroke="none" stroke-width="1" fill="none" fill-rule="evenodd">
        <g id="Home" transform="translate(-570.000000, -3894.000000)" fill="#979DA2" fill-rule="nonzero">
            <path d="M573.146341,3903.57143 L574.317073,3903.57143 C577.170732,3903.57143 578.634146,3902.5 578.634146,3900.35714 C578.634146,3898.28571 577.170732,3897.21429 574.170732,3897.21429 L573.146341,3897.21429 L573.146341,3903.57143 Z M573.146341,3906.35714 L573.146341,3914.57143 L570,3914.57143 L570,3894.42857 L573.512195,3894.42857 C575.268293,3894.42857 576.585366,3894.57143 577.463415,3894.78571 C578.341463,3895 579.146341,3895.42857 579.804878,3896.14286 C580.97561,3897.28571 581.560976,3898.71429 581.560976,3900.42857 C581.560976,3902.28571 580.902439,3903.71429 579.658537,3904.78571 C578.414634,3905.85714 576.658537,3906.42857 574.536585,3906.42857 L573.146341,3906.42857 L573.146341,3906.35714 Z M585.804878,3904.42857 C585.804878,3906.64286 586.536585,3908.5 588.073171,3909.92857 C589.609756,3911.35714 591.365854,3912.07143 593.341463,3912.07143 C595.536585,3912.07143 597.365854,3911.35714 598.829268,3909.85714 C600.292683,3908.35714 601.097561,3906.57143 601.097561,3904.42857 C601.097561,3902.28571 600.365854,3900.5 598.902439,3899 C597.439024,3897.5 595.609756,3896.78571 593.487805,3896.78571 C591.365854,3896.78571 589.536585,3897.5 588.073171,3899 C586.536585,3900.5 585.804878,3902.28571 585.804878,3904.42857 Z M582.658537,3904.42857 C582.658537,3901.57143 583.756098,3899.14286 585.878049,3897.07143 C588,3895 590.560976,3894 593.560976,3894 C596.487805,3894 599.04878,3895 601.170732,3897.07143 C603.292683,3899.14286 604.317073,3901.57143 604.317073,3904.5 C604.317073,3907.42857 603.219512,3909.85714 601.097561,3911.85714 C598.97561,3913.85714 596.414634,3914.92857 593.341463,3914.92857 C590.707317,3914.92857 588.292683,3914 586.170732,3912.21429 C583.829268,3910.28571 582.658537,3907.64286 582.658537,3904.42857 Z M606,3914.57143 L606,3894.42857 L609.073171,3894.42857 L609.073171,3911.71429 L615.146341,3911.71429 L615.146341,3914.57143 L606,3914.57143 Z M617.414634,3894.42857 L620.560976,3894.42857 L620.560976,3914.64286 L617.414634,3914.64286 L617.414634,3894.42857 Z M627.439024,3914.57143 L627.439024,3897.28571 L622.756098,3897.28571 L622.756098,3894.42857 L635.341463,3894.42857 L635.341463,3897.28571 L630.585366,3897.28571 L630.585366,3914.57143 L627.439024,3914.57143 Z M637.536585,3894.42857 L640.682927,3894.42857 L640.682927,3914.64286 L637.536585,3914.64286 L637.536585,3894.42857 Z M658.902439,3895.5 L658.902439,3899.07143 C657.073171,3897.57143 655.243902,3896.85714 653.268293,3896.85714 C651.146341,3896.85714 649.390244,3897.57143 647.926829,3899.07143 C646.463415,3900.57143 645.731707,3902.35714 645.731707,3904.5 C645.731707,3906.64286 646.463415,3908.42857 647.926829,3909.85714 C649.390244,3911.28571 651.219512,3912.07143 653.341463,3912.07143 C654.439024,3912.07143 655.390244,3911.92857 656.121951,3911.57143 C656.560976,3911.42857 657,3911.14286 657.439024,3910.85714 C657.878049,3910.57143 658.390244,3910.21429 658.902439,3909.78571 L658.902439,3913.5 C657.146341,3914.5 655.243902,3915 653.268293,3915 C650.341463,3915 647.780488,3914 645.731707,3912 C643.682927,3910 642.585366,3907.5 642.585366,3904.64286 C642.585366,3902.07143 643.463415,3899.78571 645.219512,3897.78571 C647.341463,3895.35714 650.121951,3894.07143 653.560976,3894.07143 C655.390244,3894 657.146341,3894.5 658.902439,3895.5 Z M662.487805,3904.42857 C662.487805,3906.64286 663.219512,3908.5 664.756098,3909.92857 C666.292683,3911.35714 668.04878,3912.07143 670.02439,3912.07143 C672.219512,3912.07143 674.04878,3911.35714 675.512195,3909.85714 C676.97561,3908.35714 677.780488,3906.57143 677.780488,3904.42857 C677.780488,3902.28571 677.04878,3900.5 675.585366,3899 C674.121951,3897.5 672.292683,3896.78571 670.170732,3896.78571 C668.04878,3896.78571 666.219512,3897.5 664.756098,3899 C663.219512,3900.5 662.487805,3902.28571 662.487805,3904.42857 Z M659.341463,3904.42857 C659.341463,3901.57143 660.439024,3899.14286 662.560976,3897.07143 C664.682927,3895 667.243902,3894 670.243902,3894 C673.170732,3894 675.731707,3895 677.853659,3897.07143 C679.97561,3899.14286 681,3901.57143 681,3904.5 C681,3907.42857 679.97561,3909.85714 677.780488,3911.85714 C675.658537,3913.85714 673.097561,3914.92857 670.02439,3914.92857 C667.390244,3914.92857 664.97561,3914 662.853659,3912.21429 C660.512195,3910.28571 659.341463,3907.64286 659.341463,3904.42857 Z" id="Shape"></path>
        </g>
    </g>
</svg>