<?xml version="1.0" encoding="UTF-8"?>
<svg width="113px" height="56px" viewBox="0 0 113 56" version="1.1" xmlns="http://www.w3.org/2000/svg" xmlns:xlink="http://www.w3.org/1999/xlink">
    <!-- Generator: Sketch 56 (81588) - https://sketch.com -->
    <title>Fill 1</title>
    <desc>Created with Sketch.</desc>
    <g id="Desktop" stroke="none" stroke-width="1" fill="none" fill-rule="evenodd">
        <g id="Home" transform="translate(-1033.000000, -3877.000000)" fill="#979DA2">
            <path d="M1075.31278,3919.5 L1078.29956,3919.5 L1078.29956,3916.5 L1075.31278,3916.5 L1075.31278,3919.5 Z M1075.31278,3932.5 L1078.29956,3932.5 L1078.29956,3920.5 L1075.31278,3920.5 L1075.31278,3932.5 Z M1057.88987,3894 L1060.87665,3894 L1060.87665,3877 L1057.88987,3877 L1057.88987,3894 Z M1104.68282,3913 L1107.6696,3913 L1107.6696,3896 L1104.68282,3896 L1104.68282,3913 Z M1068.89749,3928.56465 C1068.86612,3928.56274 1068.83476,3928.56084 1068.80339,3928.55883 C1067.90142,3925.86437 1066.99946,3923.1697 1066.10858,3920.50804 L1062.86784,3920.50804 C1064.35418,3924.54063 1065.82109,3928.52042 1067.2879,3932.5 L1070.36884,3932.5 C1071.8519,3928.49725 1073.32526,3924.52074 1074.81498,3920.5 L1071.62018,3920.5 C1070.70723,3923.20419 1069.80241,3925.88447 1068.89749,3928.56465 L1068.89749,3928.56465 Z M1056.07444,3910.94295 C1057.57076,3913.06516 1059.72691,3913.71376 1062.22643,3913.44119 C1063.58997,3913.29257 1064.76829,3912.73214 1065.67452,3911.68704 C1066.37659,3910.87742 1066.77121,3909.93924 1066.85022,3908.83896 L1063.71839,3908.83896 C1063.64341,3909.0696 1063.58714,3909.27631 1063.50922,3909.47483 C1063.31899,3909.96015 1063.00022,3910.33715 1062.53279,3910.58869 C1061.15717,3911.3289 1059.37365,3910.79983 1058.7383,3909.3871 C1058.04983,3907.85658 1058.0876,3906.2837 1058.70401,3904.72731 C1058.77584,3904.54582 1058.88467,3904.37381 1059.00145,3904.21538 C1059.62951,3903.36406 1060.50984,3903.06024 1061.53035,3903.16478 C1062.51418,3903.26555 1063.13702,3903.84398 1063.45263,3904.76094 C1063.48114,3904.84393 1063.52174,3904.9226 1063.56233,3905.01605 L1066.74291,3905.01605 C1066.39748,3903.20735 1065.53892,3901.84582 1063.89231,3901.11316 C1061.92682,3900.23857 1059.94817,3900.30205 1058.02132,3901.28787 C1057.43526,3901.5877 1056.93595,3902.00296 1056.50792,3902.4997 C1054.56267,3904.75641 1054.34675,3908.49235 1056.07444,3910.94295 L1056.07444,3910.94295 Z M1041.36441,3913 L1041.36441,3898.83901 L1046.44053,3898.83901 L1046.44053,3896 L1033,3896 L1033,3898.87477 L1038.09306,3898.87477 L1038.09306,3913 L1041.36441,3913 Z M1142.80891,3901.01288 C1142.02846,3903.75115 1141.11076,3906.41967 1140.40956,3909.28455 C1139.6175,3906.41617 1138.69293,3903.71917 1137.83936,3901 L1134.56574,3901 C1134.51407,3901.21897 1134.6079,3901.34384 1134.65577,3901.4757 C1135.30413,3903.26148 1135.9619,3905.04355 1136.6091,3906.82976 C1137.219,3908.51337 1137.88828,3910.17504 1138.39918,3911.89566 C1138.55429,3912.41829 1138.67866,3912.949 1138.60459,3913.50417 C1138.49998,3914.28856 1138.06971,3914.7481 1137.30565,3914.85147 C1136.9934,3914.89361 1136.67334,3914.86981 1136.35762,3914.8888 C1136.15358,3914.90125 1135.93591,3914.82014 1135.74941,3914.96205 L1135.74941,3917.49597 C1136.6968,3917.4748 1137.60838,3917.54761 1138.51837,3917.43561 C1139.67044,3917.29393 1140.51026,3916.68135 1141.06532,3915.63302 C1141.37894,3915.04053 1141.6225,3914.41889 1141.83256,3913.78164 C1143.07339,3910.016 1144.31538,3906.2508 1145.55135,3902.48331 C1145.70794,3902.00619 1145.91251,3901.54272 1146,3901.01288 L1142.80891,3901.01288 Z M1082.9645,3912.35532 C1082.96461,3910.3088 1082.96461,3908.26217 1082.96482,3906.21555 C1082.96482,3905.56338 1083.07956,3904.94145 1083.44389,3904.38488 C1084.02204,3903.50159 1085.07979,3903.11143 1086.09902,3903.40707 C1087.0001,3903.66832 1087.50705,3904.42739 1087.52354,3905.5416 C1087.52588,3905.7017 1087.52408,3905.86191 1087.52408,3906.02201 C1087.52439,3908.15782 1087.52269,3910.29331 1087.52887,3912.42901 C1087.5294,3912.61528 1087.46139,3912.8195 1087.61029,3913 L1090.65912,3913 C1090.78248,3912.81181 1090.73575,3912.6296 1090.73607,3912.45732 C1090.7398,3910.71317 1090.74054,3908.96923 1090.73788,3907.22508 C1090.73639,3906.31765 1090.76534,3905.40777 1090.71202,3904.50312 C1090.60271,3902.65227 1089.44938,3901.13273 1087.80922,3900.68414 C1086.28485,3900.26728 1084.37019,3900.46743 1083.13501,3902.23711 C1083.08925,3902.3029 1083.07945,3902.46333 1082.90437,3902.38846 C1082.86616,3901.88849 1082.94588,3901.37497 1082.85605,3900.8608 L1079.79295,3900.8608 L1079.79295,3912.98366 L1082.9645,3912.98366 L1082.9645,3912.35532 Z M1067.45715,3894 L1070.73861,3894 L1070.73861,3879.88619 L1076.30837,3879.88619 L1076.30837,3877 L1061.87225,3877 L1061.87225,3879.90906 L1067.45715,3879.90906 L1067.45715,3894 Z M1117.68204,3909.22619 C1117.13807,3910.38392 1116.21733,3911.00354 1114.88795,3911 C1113.55812,3910.99632 1112.61242,3910.38392 1112.11448,3909.20627 C1111.49081,3907.73065 1111.49806,3906.21864 1112.13522,3904.75444 C1112.64207,3903.58961 1113.60327,3902.98603 1114.93756,3903.00025 C1116.24866,3903.01435 1117.14309,3903.64076 1117.67647,3904.77253 C1118.00463,3905.46926 1118.1132,3906.2124 1118.12335,3907.02047 C1118.11566,3907.74918 1118.01846,3908.5104 1117.68204,3909.22619 L1117.68204,3909.22619 Z M1115.10533,3900.5 C1111.35082,3900.50963 1108.66346,3903.23789 1108.6652,3907.03834 C1108.66672,3910.76969 1111.40448,3913.50507 1115.13215,3913.5 C1118.90697,3913.49481 1121.62963,3910.73298 1121.6078,3906.93156 C1121.58629,3903.20626 1118.8405,3900.49052 1115.10533,3900.5 L1115.10533,3900.5 Z M1095.225,3904.64683 C1095.68924,3903.54665 1096.55979,3903.00011 1097.72389,3903 C1098.91004,3903 1099.74895,3903.58326 1100.2607,3904.68323 C1100.60496,3905.42307 1100.71587,3906.21838 1100.69876,3906.88489 C1100.70195,3907.96483 1100.56012,3908.85813 1100.08094,3909.66152 C1099.49848,3910.63796 1098.63216,3911.0501 1097.55454,3910.99518 C1096.50691,3910.94176 1095.70037,3910.42699 1095.25912,3909.43881 C1094.55473,3907.86133 1094.55576,3906.23292 1095.225,3904.64683 L1095.225,3904.64683 Z M1097.65254,3913.49971 C1101.41013,3913.53221 1104.17149,3910.80148 1104.18502,3907.04004 C1104.19856,3903.25679 1101.50331,3900.5226 1097.73843,3900.50014 C1093.99628,3900.47779 1091.26373,3903.18218 1091.24229,3906.92926 C1091.22089,3910.73194 1093.88929,3913.46721 1097.65254,3913.49971 L1097.65254,3913.49971 Z M1045.94273,3905.5 C1046.08249,3903.91796 1047.26291,3902.94115 1048.92696,3903.00275 C1050.34887,3903.05533 1051.41286,3904.10463 1051.4185,3905.5 L1045.94273,3905.5 Z M1053.73122,3903.96668 C1051.93247,3899.54494 1046.18036,3899.6398 1043.88004,3902.6348 C1042.70725,3904.16153 1042.32786,3905.89115 1042.49604,3907.7713 C1042.92155,3912.52686 1048.21695,3915.07616 1052.19204,3912.43907 C1053.25991,3911.73073 1053.93061,3910.74168 1054.23385,3909.44256 L1051.08283,3909.44256 C1050.3575,3910.74007 1049.2386,3911.17058 1047.77344,3910.78258 C1046.80632,3910.52648 1045.73663,3909.50991 1045.70191,3907.8622 L1054.38328,3907.8622 C1054.49065,3906.71072 1054.19423,3905.10477 1053.73122,3903.96668 L1053.73122,3903.96668 Z M1054.90308,3925 C1054.97899,3923.50164 1056.16999,3922.47503 1057.77025,3922.50046 C1059.26565,3922.52424 1060.3646,3923.5613 1060.37885,3925 L1054.90308,3925 Z M1063.38076,3924.09447 C1062.15491,3920.29662 1058.95313,3919.59507 1056.45289,3920.18411 C1054.65166,3920.60849 1053.35949,3921.72483 1052.59437,3923.42137 C1051.71887,3925.36233 1051.70287,3927.36234 1052.47869,3929.33401 C1053.41807,3931.72133 1055.69996,3933.10546 1058.35508,3932.99371 C1059.57808,3932.94231 1060.73401,3932.67343 1061.74481,3931.93697 C1062.74162,3931.21074 1063.39104,3930.24613 1063.65833,3928.9897 L1060.53484,3928.9897 C1059.78456,3930.29183 1058.82186,3930.69627 1057.39546,3930.38785 C1056.11515,3930.11132 1055.22725,3928.88161 1055.14811,3927.42334 L1063.86344,3927.42334 C1063.84935,3926.22402 1063.71967,3925.14486 1063.38076,3924.09447 L1063.38076,3924.09447 Z M1088.2517,3925 L1082.78192,3925 C1082.71942,3923.62435 1084.00421,3922.49496 1085.6114,3922.5 C1087.13473,3922.50467 1088.33188,3923.62487 1088.2517,3925 L1088.2517,3925 Z M1090.62445,3923.66047 C1088.89174,3919.03142 1083.0476,3919.10421 1080.71758,3922.1394 C1079.49979,3923.72597 1079.13061,3925.52652 1079.35894,3927.48215 C1079.90873,3932.18826 1085.34648,3934.59772 1089.17843,3931.82445 C1090.15853,3931.11513 1090.79049,3930.15685 1091.05423,3928.90304 L1087.95182,3928.90304 C1087.07079,3930.26324 1086.07911,3930.6735 1084.65392,3930.29224 C1083.42306,3929.96311 1082.59518,3928.85712 1082.51174,3927.37383 L1091.24132,3927.37383 C1091.2578,3926.05505 1091.06518,3924.83796 1090.62445,3923.66047 L1090.62445,3923.66047 Z M1078.70869,3904.03318 C1078.38934,3902.33501 1077.50969,3901.06779 1075.8073,3900.61665 C1074.08899,3900.16132 1072.54006,3900.49619 1071.37558,3901.98972 C1071.29593,3902.09183 1071.25207,3902.25405 1071.01705,3902.25019 L1071.01705,3896 L1067.84581,3896 L1067.84581,3912.99624 L1070.96406,3912.99624 C1071.07567,3912.77958 1071.0316,3912.57978 1071.03181,3912.38717 C1071.03479,3910.31225 1071.03702,3908.23744 1071.03213,3906.16264 C1071.03043,3905.44534 1071.17582,3904.77678 1071.60965,3904.19466 C1072.20755,3903.39233 1073.25946,3903.06658 1074.2245,3903.37805 C1075.05127,3903.64495 1075.53331,3904.37256 1075.5726,3905.41667 C1075.57802,3905.55947 1075.57398,3905.7028 1075.57398,3905.84591 C1075.5742,3908.04591 1075.5725,3910.2459 1075.5777,3912.44589 C1075.57813,3912.63239 1075.5109,3912.83949 1075.6651,3913 L1078.7757,3913 C1078.78536,3912.82607 1078.79641,3912.71957 1078.79641,3912.61306 C1078.79715,3910.05533 1078.79938,3907.4976 1078.79258,3904.93976 C1078.79184,3904.63721 1078.76444,3904.33026 1078.70869,3904.03318 L1078.70869,3904.03318 Z M1102.99902,3928.04767 C1102.96325,3928.04546 1102.9277,3928.04345 1102.89194,3928.04134 C1102.18708,3925.5308 1101.48222,3923.02047 1100.78067,3920.52206 L1098.01946,3920.52206 C1097.34739,3923.05593 1096.68298,3925.56035 1096.01868,3928.06488 C1095.98834,3928.06583 1095.95801,3928.06667 1095.92767,3928.06752 C1095.26465,3925.54389 1094.60173,3923.02015 1093.93966,3920.5 L1090.74449,3920.5 C1091.93355,3924.53399 1093.10558,3928.51003 1094.28176,3932.5 L1097.2088,3932.5 C1097.94016,3929.91398 1098.66833,3927.33947 1099.39639,3924.76475 C1099.43077,3924.76612 1099.46515,3924.76738 1099.49943,3924.76876 C1100.20663,3927.35066 1100.91361,3929.93277 1101.61613,3932.49799 L1104.56839,3932.49799 C1105.76948,3928.5 1106.96504,3924.52016 1108.1674,3920.51795 L1105.0444,3920.51795 C1104.35839,3923.04337 1103.67865,3925.54558 1102.99902,3928.04767 L1102.99902,3928.04767 Z M1130.2252,3908.44907 C1129.77376,3909.55051 1128.88145,3909.99958 1127.74868,3910 C1126.63335,3910.00042 1125.77934,3909.40886 1125.3692,3908.38141 C1125.16527,3907.87048 1125.09169,3907.33562 1125.09251,3906.78749 C1125.0947,3906.24114 1125.15655,3905.70502 1125.3556,3905.19124 C1125.76886,3904.12522 1126.60097,3903.51226 1127.68309,3903.50025 C1128.84606,3903.48729 1129.72924,3903.97883 1130.2059,3905.07542 C1130.689,3906.18623 1130.68267,3907.33257 1130.2252,3908.44907 L1130.2252,3908.44907 Z M1133.48828,3900.86252 C1132.66756,3900.86252 1131.82798,3900.85991 1130.98861,3900.86469 C1130.81351,3900.86567 1130.63065,3900.82308 1130.44197,3900.93184 C1130.33932,3901.27955 1130.46536,3901.6642 1130.36908,3902.02897 C1130.19884,3902.0156 1130.15323,3901.88119 1130.07344,3901.7947 C1129.51796,3901.19252 1128.83773,3900.81808 1128.04537,3900.63347 C1125.83433,3900.1181 1123.51353,3901.12493 1122.45432,3903.14098 C1121.45128,3905.05011 1121.34605,3907.06008 1122.1051,3909.07439 C1122.65335,3910.52922 1123.68141,3911.58277 1125.14127,3912.12183 C1126.95921,3912.79323 1128.66997,3912.6787 1130.1225,3911.21616 C1130.17145,3911.16683 1130.21792,3911.10326 1130.33329,3911.16379 C1130.33501,3911.8115 1130.38709,3912.47475 1130.26374,3913.13463 C1130.1445,3913.77181 1129.83926,3914.28087 1129.26998,3914.61 C1127.86704,3915.42114 1125.97805,3914.98226 1125.08844,3913.62153 L1121.96579,3913.62153 C1121.92299,3913.88199 1121.98725,3914.07138 1122.0445,3914.26142 C1122.45141,3915.61183 1123.3655,3916.49044 1124.64779,3916.95779 C1126.58669,3917.6645 1128.56075,3917.6808 1130.50871,3917.00418 C1132.20373,3916.41558 1133.17496,3915.16611 1133.46639,3913.39194 C1133.53626,3912.96621 1133.54575,3912.52669 1133.54661,3912.09347 C1133.55276,3908.56467 1133.55125,3905.03588 1133.54855,3901.50697 C1133.54844,3901.3115 1133.58445,3901.11102 1133.48828,3900.86252 L1133.48828,3900.86252 Z M1046.6434,3922.88589 C1046.50398,3922.91903 1046.35924,3922.9407 1046.2158,3922.94937 C1044.64633,3923.04392 1043.07665,3922.97394 1041.46256,3922.98994 L1041.46256,3918.58483 C1041.61229,3918.50205 1041.74151,3918.51939 1041.86562,3918.52155 C1043.34691,3918.54767 1044.83353,3918.42607 1046.30864,3918.57791 C1048.07627,3918.75979 1048.93082,3920.34446 1048.12925,3921.86533 C1047.82044,3922.45112 1047.28067,3922.73416 1046.6434,3922.88589 L1046.6434,3922.88589 Z M1049.42106,3925.23178 C1050.36851,3924.7782 1051.1252,3924.11044 1051.55797,3923.14444 C1053.04193,3919.83231 1051.12413,3916.55909 1048.30667,3915.78069 C1047.54368,3915.57004 1046.76528,3915.50658 1045.97994,3915.5054 C1043.64669,3915.50207 1041.31333,3915.50422 1038.97998,3915.50701 C1038.82364,3915.50722 1038.65992,3915.46681 1038.47577,3915.57776 L1038.47577,3932.5 L1041.84716,3932.5 L1041.84716,3925.99259 L1045.1992,3925.99259 C1046.50618,3928.16816 1047.81743,3930.35102 1049.10773,3932.49893 L1052.91189,3932.49893 C1051.49595,3930.15441 1050.11657,3927.87014 1048.71805,3925.55424 C1048.97631,3925.436 1049.20034,3925.33737 1049.42106,3925.23178 L1049.42106,3925.23178 Z M1041.54731,3880.82711 L1041.6458,3880.80585 C1043.13222,3885.20748 1044.61864,3889.60911 1046.09995,3893.99571 L1049.40762,3893.99571 C1050.82352,3889.58925 1052.23165,3885.20716 1053.63979,3880.82518 C1053.68106,3880.83462 1053.72222,3880.84407 1053.76359,3880.85352 L1053.76359,3894 L1056.89427,3894 L1056.89427,3877 L1051.8664,3877 C1050.54591,3881.10567 1049.22457,3885.21381 1047.90323,3889.32185 C1047.87451,3889.32324 1047.8459,3889.32443 1047.81718,3889.32571 C1046.44372,3885.21746 1045.07036,3881.10922 1043.69913,3877.00784 L1038.47577,3877.00784 L1038.47577,3893.98894 L1041.54731,3893.98894 L1041.54731,3880.82711 Z" id="Fill-1"></path>
        </g>
    </g>
</svg>