<?xml version="1.0" encoding="UTF-8"?>
<svg width="54px" height="69px" viewBox="0 0 54 69" version="1.1" xmlns="http://www.w3.org/2000/svg" xmlns:xlink="http://www.w3.org/1999/xlink">
    <!-- Generator: Sketch 56 (81588) - https://sketch.com -->
    <title>Group 5</title>
    <desc>Created with Sketch.</desc>
    <g id="Desktop" stroke="none" stroke-width="1" fill="none" fill-rule="evenodd">
        <g id="Home" transform="translate(-1268.000000, -3608.000000)" fill-rule="nonzero">
            <g id="Group-5" transform="translate(1268.000000, 3608.000000)">
                <path d="M0,1.46299072 C0,1.46299072 10.9791759,0 26.8576997,0 C42.8340575,0 53.4369282,1.46299072 53.4369282,1.46299072 L53.4369282,41.0325061 C53.4369282,56.5830419 41.3710945,68.1320835 26.7184641,68.1320835 C11.9435012,68.1320835 0,56.4271402 0,41.3808882 L0,1.46299072 Z" id="Path" fill="#979DA2"></path>
                <path d="M19.8937085,6.18143862 L19.8937085,14.3090194 L17.4384366,14.3090194 L17.4384366,11.1122256 L14.8822145,11.1122256 L14.8822145,14.3090194 L12.4265996,14.3090194 L12.4265996,6.18143862 L14.8822145,6.18143862 L14.8822145,9.41207374 L17.4384366,9.41207374 L17.4384366,6.18143862 L19.8937085,6.18143862 Z M28.436628,12.6763192 L30.7909498,12.6763192 L30.4213328,14.3090194 L25.9812418,14.3090194 L25.9812418,6.18143862 L28.436628,6.18143862 L28.436628,12.6763192 Z M24.1651683,6.18143862 L24.1651683,14.3091349 L21.7098963,14.3091349 L21.7098963,6.18143862 L24.1651683,6.18143862 Z M34.1209324,6.18143862 L34.1209324,14.3091349 L31.6658891,14.3091349 L31.6658891,6.18143862 L34.1209324,6.18143862 Z M46.2284321,8.25569324 C46.2284321,9.54801659 50.0971202,9.03843302 50.0971202,11.7579831 C50.0971202,13.7985119 48.4150372,14.4788036 46.3639088,14.4788036 C45.5563077,14.4788036 44.5472636,14.3432073 43.8080297,14.0710906 L43.5381052,12.2002305 C44.2779108,12.5743332 45.5233817,12.8459879 46.3292679,12.8459879 C47.2379334,12.8459879 47.6085793,12.5743332 47.6085793,12.0646341 C47.6085793,10.7384694 43.7737318,11.3160822 43.7737318,8.46035827 C43.7737318,6.80259466 45.1185522,6.01165443 47.103257,6.01165443 C48.14557,6.01165443 48.7173159,6.11364044 49.3569717,6.24969879 L49.5584146,8.01857287 C48.987126,7.77960451 48.14557,7.60947382 47.3718095,7.60947382 C46.6663019,7.60947382 46.2284321,7.81379235 46.2284321,8.25569324 Z M39.3014007,12.3704767 L38.4265757,12.3704767 L38.4265757,14.3090194 L35.9702748,14.3090194 L35.9702748,6.18143862 C36.8109162,6.07945261 37.9887059,6.01165443 38.964138,6.01165443 C41.4867482,6.01165443 43.0335832,6.82765804 43.0335832,9.10623119 C43.0335832,11.1800238 41.5867837,12.3704767 39.3014007,12.3704767 Z M40.6119232,9.13984153 C40.6119232,8.11998139 40.0398343,7.54213764 38.8293473,7.54213764 C38.7032454,7.54213764 38.6734062,7.54213764 38.5309556,7.5502226 L38.5309556,10.9083691 L38.8293473,10.9083691 C40.1078585,10.9083691 40.6119232,10.194236 40.6119232,9.13984153 Z M7.71818465,12.3704767 L6.84335969,12.3704767 L6.84335969,14.3090194 L4.38843074,14.3090194 L4.38843074,6.18143862 C5.22907213,6.07945261 6.40640452,6.01165443 7.38195096,6.01165443 C9.90433244,6.01165443 11.4515105,6.82765804 11.4515105,9.10623119 C11.4515105,11.1800238 10.0053969,12.3704767 7.71818465,12.3704767 Z M9.03030776,9.13984153 C9.03030776,8.11998139 8.45764725,7.54213764 7.24738889,7.54213764 C7.12105831,7.54213764 7.09750709,7.54213764 6.95391324,7.5502226 L6.95391324,10.9083691 L7.24738889,10.9083691 C8.52555708,10.9083691 9.03030776,10.194236 9.03030776,9.13984153 Z M4.16749052,43.8417026 C4.09662098,43.1926299 4.02321283,41.8594343 4.00776962,40.9871829 C5.98116891,42.0215956 8.94092407,43.2459535 13.3258974,43.2459535 C23.9571213,43.2459535 28.7586911,35.1974636 39.2223667,35.1974636 C43.5247823,35.1974636 47.1669477,36.4481092 49.6277072,37.9898971 C49.7344875,38.9517514 49.7659557,39.9136056 49.8058331,40.8754599 C46.999558,39.4832771 44.0902578,38.6539303 40.4938932,38.6539303 C29.7397053,38.6539303 25.3541503,46.6465854 14.5727781,46.6465854 C10.4056493,46.6465854 6.94018183,45.5675583 4.16749052,43.8417026 Z M4.21503657,38.0781108 C4.57837517,34.8805144 5.46942738,32.4928162 6.89475129,29.7863522 L11.6490395,30.400695 C12.5492942,30.5191503 13.200765,30.7103777 13.6378291,31.195419 C14.0574931,31.6716977 14.2410664,31.95552 14.4942399,33.7447976 L15.2008197,39.3505026 C15.2008197,39.3505026 13.7557687,39.6042436 11.9561056,39.6220359 C8.83816324,39.6220359 6.0134833,38.8128858 4.21503657,38.0781108 Z M7.37264467,28.9556162 C9.04997854,26.155168 11.545168,23.376947 14.9735612,21.2811391 L14.4069751,25.610071 C14.2797802,26.5424317 14.1816735,26.9940789 13.6912986,27.5741729 C13.2759185,28.0392312 12.5839885,28.2205206 11.7730612,28.3695914 L7.37264467,28.9556162 Z M16.096103,23.531254 L15.7705791,20.7884039 C17.1825753,19.982139 18.95278,19.1813774 20.9855193,18.666148 L20.586217,21.7378623 C20.4145964,22.7061282 20.0041348,23.009132 18.9831375,23.1650954 L16.096103,23.531254 Z M20.9673788,28.6440634 L18.4395576,28.2711192 C17.2457761,28.0193551 16.5748425,27.1771315 16.4012651,25.6631808 L16.1520582,23.8415244 L19.1518493,24.2692883 C20.1413256,24.3803701 20.4925,24.8689912 20.6242433,25.9367445 L20.9673788,28.6440634 Z M15.6423793,39.2584954 L16.2496889,34.030864 C16.6181047,31.4298716 16.9536244,30.760816 19.1243477,30.4130909 L25.2606448,29.5939493 L25.2606448,29.1782073 L21.323366,28.6941277 L21.7102925,25.6658523 C21.8094041,24.7832888 22.2165337,24.3818127 23.3134778,24.2448171 L26.5075255,23.8104279 L26.5075255,23.5745861 L23.1046242,23.1278544 C22.1254082,22.9658 21.814164,22.5506457 21.6979697,21.6447331 L21.2986674,18.5916125 C21.2986674,18.5916125 23.6540218,17.8717446 26.9129099,17.8717446 C39.5736998,17.8717446 47.0962897,27.5406186 48.9335031,34.6141104 C47.0068037,33.3526184 43.0807899,31.5300002 38.3623067,31.5300002 C28.813853,31.5301071 23.9681748,37.6730014 15.6423793,39.2584954 Z M26.9068278,64.1243139 C17.2266836,64.1243139 8.04225603,58.0239502 4.86158888,47.2671796 C7.66209914,49.0538391 11.6851618,50.3636857 15.5678605,50.3636857 C25.6784048,50.3636857 30.575437,43.8684712 38.1454142,42.5099496 L37.346228,48.8373391 C37.0662404,50.4705999 36.6223009,51.1793009 34.6794178,51.5052264 L28.4683375,52.3038507 L28.4683375,52.7338587 L34.2970926,53.4797472 C36.2305087,53.6902096 37.1306047,54.3369847 37.3374486,56.2617618 L37.9889195,61.2201039 C36.0784037,62.3758037 32.0072661,64.1243139 26.9067749,64.1243139 L26.9068278,64.1243139 Z M32.5450284,62.5188904 L32.7325153,62.5188904 L33.0672416,59.9657716 C33.2255346,58.924306 33.6217693,58.8442673 34.3492398,58.710157 L36.8162931,58.3942764 L36.8162931,58.2012323 L34.1619644,57.8563924 C33.45988,57.7463258 33.1888305,57.3735418 33.0798818,56.7555657 L32.7433044,54.085274 L32.5435475,54.085274 L32.1975561,56.803653 C32.0579325,57.4602594 31.8038599,57.7232973 31.1004533,57.8413785 L28.4597169,58.2011789 L28.4597169,58.3942229 L31.0007071,58.7229803 C31.8395062,58.8315509 32.1475243,59.2244781 32.2348419,60.0293004 L32.5450284,62.5188904 Z M38.7534114,60.8163837 L39.2399255,56.8584726 C39.5603192,54.624654 39.9153016,53.8174274 42.0630717,53.5411922 L46.517275,52.9605105 C44.2622486,56.6439495 41.7517746,58.8609376 38.7534114,60.8163837 Z M46.9710516,52.1721982 L42.4713648,51.5753805 C40.1550416,51.3017099 39.577878,50.7267453 39.2832934,48.4511975 L38.5189601,42.4485046 C38.5189601,42.4485046 40.0585215,42.1851996 41.8112204,42.1851996 C44.4269409,42.1851996 47.9903565,43.0344225 49.646641,43.7736322 C49.2600318,46.573172 48.7432131,48.8461551 46.9710516,52.1721982 Z" id="Shape" fill="#FFFFFF"></path>
            </g>
        </g>
    </g>
</svg>