<?xml version="1.0" encoding="UTF-8"?>
<svg width="84px" height="58px" viewBox="0 0 84 58" version="1.1" xmlns="http://www.w3.org/2000/svg" xmlns:xlink="http://www.w3.org/1999/xlink">
    <!-- Generator: Sketch 56 (81588) - https://sketch.com -->
    <title>Shape</title>
    <desc>Created with Sketch.</desc>
    <g id="Desktop" stroke="none" stroke-width="1" fill="none" fill-rule="evenodd">
        <g id="Home" transform="translate(-791.000000, -3613.000000)" fill="#979DA2" fill-rule="nonzero">
            <path d="M808.263773,3670.59019 C806.590244,3669.97221 805.327757,3668.88338 804.417299,3667.14743 C801.951339,3662.61525 805.034156,3656.90626 810.230904,3656.37656 C814.576207,3655.93514 818.334307,3659.31934 818.334307,3663.70408 C818.334307,3665.76403 817.864251,3666.97057 816.543044,3668.50082 C814.605567,3670.7079 811.111708,3671.59074 808.263773,3670.59019 Z M813.401801,3667.26485 C814.341032,3666.41174 814.811088,3665.26376 814.811088,3663.79237 C814.811088,3660.9673 813.372441,3659.23105 810.994268,3659.23105 C809.349805,3659.23105 808.205053,3659.99618 807.588196,3661.46757 C806.737045,3663.52752 807.353315,3666.76458 808.733242,3667.52999 C810.377704,3668.41253 812.256755,3668.29482 813.401801,3667.26485 L813.401801,3667.26485 Z M837.946893,3670.64905 C836.508245,3670.26649 834.247513,3668.23597 833.572229,3666.73515 C832.397823,3664.1455 833.131827,3660.55531 835.275412,3658.46593 C839.003859,3654.84601 845.257866,3656.08198 847.283423,3660.84958 C847.988067,3662.49754 847.929347,3665.26376 847.166276,3666.794 C846.373552,3668.32425 844.11282,3670.32534 842.732599,3670.7079 C841.440752,3671.06104 839.414901,3671.03161 837.946893,3670.64905 L837.946893,3670.64905 Z M842.174756,3667.70627 C842.615158,3667.5297 843.260788,3666.94114 843.61311,3666.38201 C844.141593,3665.55804 844.229967,3665.02833 844.112233,3663.29209 C843.994792,3661.34986 843.936072,3661.17329 842.908466,3660.23189 C842.057022,3659.43734 841.587259,3659.23135 840.647734,3659.23135 C838.915485,3659.23135 837.770439,3659.93762 837.094861,3661.37958 C835.773654,3664.29293 836.94806,3667.47114 839.532048,3668.03056 C840.530587,3668.26539 840.794828,3668.23597 842.174756,3667.70627 Z M795.433384,3664.96948 L795.433384,3659.55476 L793.319453,3659.46648 L791.176161,3659.37819 L791.08808,3658.14222 L791,3656.87683 L802.773423,3656.87683 L802.773423,3659.52533 L798.3694,3659.52533 L798.3694,3670.41363 L795.433384,3670.41363 L795.433384,3664.96948 L795.433384,3664.96948 Z M824.118259,3670.20763 C824.000818,3670.11935 823.912737,3668.88338 823.912737,3667.47084 C823.912737,3666.08774 823.795297,3664.82234 823.648496,3664.6752 C823.501695,3664.49863 822.327289,3662.70354 821.006082,3660.64359 L818.627909,3656.87683 L822.327289,3656.87683 L823.912737,3659.52533 C824.793542,3660.9673 825.615627,3662.17384 825.703707,3662.17384 C825.791788,3662.17384 826.584512,3661.02615 827.465317,3659.64304 C828.316761,3658.23021 829.197566,3657.0531 829.373727,3656.96482 C829.550181,3656.90596 830.401332,3656.87653 831.223417,3656.93539 L832.750145,3657.02367 L830.107731,3661.14357 C827.612117,3664.99861 827.435956,3665.35175 827.406596,3666.88199 C827.377236,3668.35338 827.318516,3668.82423 827.201369,3670.0602 C827.142355,3670.44305 824.47058,3670.59019 824.118259,3670.20763 L824.118259,3670.20763 Z M852.979294,3664.96948 L852.979294,3659.55476 L850.865363,3659.46648 L848.722071,3659.37819 L848.633991,3658.14222 L848.54591,3656.87683 L860.642295,3656.87683 L860.554215,3658.14222 L860.466134,3659.37819 L858.205402,3659.46648 L855.91531,3659.55476 L855.91531,3670.41363 L852.979294,3670.41363 L852.979294,3664.96948 L852.979294,3664.96948 Z M860.319334,3670.1782 C860.319334,3670.06049 861.49374,3667.05856 862.903028,3663.49809 L865.486722,3657.02397 L867.571586,3656.93568 C869.068954,3656.87683 869.685224,3656.96511 869.802958,3657.22996 C869.861679,3657.43596 871.065445,3660.4373 872.474733,3663.88065 C873.85466,3667.3237 875,3670.20763 875,3670.26649 C875,3670.35477 874.265996,3670.41363 873.355538,3670.41363 L871.740729,3670.41363 L871.124166,3668.94223 L870.507309,3667.47084 L864.693997,3667.47084 L864.077434,3668.94223 L863.460871,3670.41363 L861.904782,3670.41363 C861.023977,3670.41363 860.319334,3670.29591 860.319334,3670.1782 L860.319334,3670.1782 Z M869.420983,3664.85177 C869.420983,3664.70463 869.156741,3663.93951 868.804126,3663.14495 C868.481164,3662.37983 868.070122,3661.40901 867.893961,3660.99672 C867.629719,3660.31988 867.541639,3660.37874 866.778275,3662.32097 C866.308219,3663.46866 865.92683,3664.55749 865.92683,3664.76348 C865.89747,3664.99891 866.425953,3665.11662 867.65908,3665.11662 C868.628258,3665.11662 869.420983,3664.99891 869.420983,3664.85177 L869.420983,3664.85177 Z M804.681834,3638.48444 C800.571412,3629.9798 805.063516,3621.00432 815.838694,3616.26644 C822.47409,3613.35308 831.516725,3612.32311 840.060824,3613.44137 C853.566497,3615.26589 862.961748,3622.94655 862.961748,3632.15746 C862.961748,3644.79704 846.474475,3652.41835 833.06865,3652.41835 C819.662826,3652.41835 807.911451,3645.16456 804.681834,3638.48444 Z M830.401332,3648.75475 C827.935373,3646.63595 826.437711,3642.19235 826.056029,3635.71823 L825.821148,3632.06918 L823.031933,3631.51005 C819.714235,3630.83321 816.513978,3629.59724 814.341032,3628.15528 C812.697157,3627.06645 811.875073,3626.12476 810.994268,3624.30023 L810.495145,3623.24083 L809.52626,3624.62394 C806.971926,3628.3907 806.766405,3633.12858 808.968417,3637.63103 C811.728272,3643.25175 819.127325,3647.87192 827.435956,3649.22559 C828.639723,3649.40216 829.843489,3649.60816 830.078371,3649.66701 C831.575739,3649.96129 831.634459,3649.78472 830.401332,3648.75475 L830.401332,3648.75475 Z M840.442507,3648.87246 C848.311029,3647.07736 854.506022,3642.89861 857.119076,3637.63103 C858.587084,3634.65882 859.086207,3631.95146 858.616738,3629.47953 C858.264416,3627.62558 857.119076,3625.03593 856.150485,3624.00595 L855.533921,3623.35854 L854.887998,3624.74165 C853.390336,3627.89043 849.162474,3630.27408 842.850039,3631.5689 L840.501227,3632.03975 L840.148905,3635.98308 C839.591062,3642.69262 838.475376,3646.13567 836.067843,3648.51933 L834.83501,3649.78472 L836.332378,3649.60816 C837.183529,3649.51987 839.033219,3649.19617 840.442507,3648.87246 L840.442507,3648.87246 Z M834.893437,3642.39834 C836.361445,3640.89752 837.712305,3636.63049 837.712305,3633.42286 L837.712305,3632.45174 L828.522282,3632.45174 L828.698443,3634.74711 C828.933324,3638.04302 829.90221,3640.86809 831.252777,3642.22177 C832.662065,3643.63431 833.60159,3643.69316 834.893437,3642.39834 L834.893437,3642.39834 Z M837.33033,3627.62558 C837.506491,3627.44901 836.478885,3623.77053 835.950402,3622.76998 C835.304479,3621.47516 833.807111,3620.09205 833.043747,3620.09205 C831.693179,3620.09205 830.137385,3622.29914 829.373727,3625.27135 C829.109779,3626.2719 828.903964,3627.24301 828.903964,3627.39015 C828.903964,3627.56672 829.461514,3627.77271 830.166451,3627.83157 C831.311497,3627.94928 837.183529,3627.80214 837.33033,3627.62558 L837.33033,3627.62558 Z M826.643232,3624.8005 C827.494677,3620.29805 829.050765,3617.1787 831.076616,3615.94273 L831.986781,3615.3836 L830.489413,3615.3836 C826.819393,3615.3836 820.066557,3617.09042 817.894199,3618.56181 C817.248275,3619.00322 816.484911,3619.8272 816.161949,3620.38633 C815.662827,3621.32802 815.662827,3621.50459 816.073869,3622.50513 C816.984034,3624.65337 820.477892,3626.38961 825.968242,3627.41958 C826.056029,3627.44901 826.349631,3626.24247 826.643232,3624.8005 L826.643232,3624.8005 Z M844.934611,3626.18361 C848.193588,3625.0065 850.33688,3623.18197 850.33688,3621.56344 C850.33688,3620.3569 848.898232,3618.82666 846.901741,3617.88497 C844.582289,3616.76671 840.236985,3615.73674 837.066088,3615.53074 L834.335594,3615.32475 L835.245759,3615.94273 C837.44777,3617.41412 838.827698,3620.59233 839.943384,3626.74274 C840.060824,3627.36072 840.090185,3627.36072 841.881448,3626.97816 C842.90876,3626.77217 844.259327,3626.41903 844.934611,3626.18361 Z" id="Shape"></path>
        </g>
    </g>
</svg>