<?xml version="1.0" encoding="UTF-8"?>
<svg width="60px" height="73px" viewBox="0 0 60 73" version="1.1" xmlns="http://www.w3.org/2000/svg" xmlns:xlink="http://www.w3.org/1999/xlink">
    <!-- Generator: Sketch 56 (81588) - https://sketch.com -->
    <title>Group 3</title>
    <desc>Created with Sketch.</desc>
    <g id="Desktop" stroke="none" stroke-width="1" fill="none" fill-rule="evenodd">
        <g id="Home" transform="translate(-1261.000000, -3869.000000)">
            <g id="Group-3" transform="translate(1261.000000, 3869.000000)">
                <rect id="Rectangle" fill="#979DA2" x="0" y="0" width="59.6296293" height="72.407407"></rect>
                <path d="M44.8711753,24.5796976 L44.8711753,13.2005287 C44.8711753,11.4047813 41.3587965,10.2880257 41.2851628,13.2005287 C41.2066919,16.2002613 41.2851628,44.9440646 41.2851628,44.9440646 C41.2851628,47.1215765 44.8711753,47.5674172 44.8711753,44.7232981 L44.8711753,33.8680459 L55.3395155,33.8680459 L55.3395155,45.9175912 C56.3848983,55.3529377 30.5190633,59.0192776 30.5190633,44.5762999 L30.5190633,12.8327639 C32.0137726,0.475760788 55.3395155,2.57519672 55.3395155,12.1575414 L55.3395155,24.5791591 L44.8711753,24.5791591 L44.8711753,24.5796976 Z M14.7082525,35.9491743 C14.057374,35.9308669 14.057374,36.0827112 14.0568365,36.4181686 L14.0568365,52.5885099 C14.0568365,53.5803439 13.7950877,53.5803439 13.0662758,53.5803439 L4.28022272,53.5803439 C4.28022272,53.5803439 3.56968487,53.6950348 3.56968487,52.8728141 L3.56968487,6.00677026 C3.56968487,6.00677026 3.34502162,5.40962369 4.39040446,5.17970342 L20.5451973,5.17970342 C23.6818833,5.17970342 27.5704924,8.32643428 28.0192815,12.8144565 L28.0192815,27.3446639 C28.0192815,31.6862263 24.9567666,33.4825121 23.3104902,34.6762668 C23.3104902,34.6762668 23.0127307,35.5771019 19.3487848,35.9491743 L14.7082525,35.9491743 Z M15.908504,28.988474 C16.8361783,28.988474 17.1320744,28.4250394 17.1326075,27.7836657 L17.1326075,13.0347766 C17.1326075,12.3928616 17.2099137,11.829427 15.9452911,11.829427 C14.6897319,11.829427 13.6117103,11.8711028 13.6117103,11.8711028 L13.6117103,28.988474 L15.908504,28.988474 Z M5.44063715,68.6538876 L3.5493827,68.6538876 L3.5493827,58.4601156 L7.01910928,58.4601156 L8.01246277,65.7088749 L8.03511253,65.7088749 L9.0290053,58.4601156 L12.4291648,58.4601156 L12.4291648,68.6538876 L10.2990094,68.6538876 L10.2990094,59.9505859 L10.2666526,59.9505859 L8.90497093,68.6538876 L6.82982205,68.6538876 L5.46814042,59.9505859 L5.44063715,59.9505859 L5.44063715,68.6538876 Z M18.1164101,58.4601156 L19.4225459,68.6544319 L17.0809928,68.6544319 L16.809735,66.1503547 L15.5305632,66.1503547 L15.1492924,68.6544319 L13.1615068,68.6544319 L14.8823488,58.4601156 L18.1164101,58.4601156 Z M16.6387833,64.6043591 L16.2289306,60.0621807 L16.2014274,60.0621807 L15.7872604,64.6043591 L16.6387833,64.6043591 Z M24.6443928,68.1427292 C24.386617,68.4257988 24.0463314,68.6114271 23.6780033,68.7094128 C23.3242357,68.8253624 22.937572,68.8580243 22.5972864,68.8580243 C21.0511711,68.8580243 20.1867055,68.2124079 20.1867055,65.8765392 L20.1867055,61.2369195 C20.1867055,58.9010509 21.6033937,58.2597894 23.162991,58.2597894 C25.0682667,58.2597894 26.1301088,59.0349646 26.1581513,61.0371377 L26.1441301,62.1149797 L23.7885556,62.1149797 L23.7885556,60.6936437 C23.7885556,60.2799265 23.6645213,59.8896171 23.1624517,59.8896171 C22.6700892,59.8896171 22.5417406,60.2799265 22.5417406,60.6936437 L22.5417406,66.4203595 C22.5417406,66.8373428 22.6566072,67.2243861 23.1624517,67.2243861 C23.663982,67.2243861 23.7885556,66.8373428 23.7885556,66.4203595 L23.7885556,65.0583592 L22.8960475,65.0583592 L22.8960475,63.5178073 L26.1435908,63.5178073 L26.1435908,68.6544319 L24.7678879,68.6544319 L24.6443928,68.1427292 Z M31.8486324,58.4601156 L33.1558467,68.6544319 L30.8142936,68.6544319 L30.5468108,66.1503547 L29.2633247,66.1503547 L28.8815146,68.6544319 L26.8942683,68.6544319 L28.6151103,58.4601156 L31.8486324,58.4601156 Z M30.3731627,64.6043591 L29.96331,60.0621807 L29.9347282,60.0621807 L29.525954,64.6043591 L30.3731627,64.6043591 Z M33.680566,68.6538876 L33.680566,66.9070215 L36.316566,60.0061111 L33.680566,60.0061111 L33.680566,58.4601156 L38.7918605,58.4601156 L38.7918605,59.9603845 L36.0366797,67.1111582 L38.7918605,67.1111582 L38.7918605,68.6538876 L33.680566,68.6538876 Z M39.4131109,58.4601156 L41.7686853,58.4601156 L41.7686853,68.6538876 L39.4131109,68.6538876 L39.4131109,58.4601156 Z M42.5468661,58.4601156 L45.8122056,58.4601156 L47.3130215,65.8770836 L47.3405247,65.8770836 L47.3405247,58.4601156 L49.1897154,58.4601156 L49.1897154,68.6538876 L46.1627375,68.6538876 L44.42356,60.1356699 L44.3912032,60.1356699 L44.3912032,68.6538876 L42.5468661,68.6538876 L42.5468661,58.4601156 Z M49.9808389,68.6538876 L49.9808389,58.4601156 L54.8672537,58.4601156 L54.8672537,60.0061111 L52.3412668,60.0061111 L52.3412668,62.2396392 L54.7798903,62.2396392 L54.7798903,63.7867235 L52.3412668,63.7867235 L52.3412668,67.1111582 L54.8672537,67.1111582 L54.8672537,68.6538876 L49.9808389,68.6538876 Z" id="Shape" fill="#FFFFFF"></path>
            </g>
        </g>
    </g>
</svg>