<?xml version="1.0" encoding="UTF-8"?>
<svg width="17px" height="66px" viewBox="0 0 17 66" version="1.1" xmlns="http://www.w3.org/2000/svg" xmlns:xlink="http://www.w3.org/1999/xlink">
    <!-- Generator: Sketch 56 (81588) - https://sketch.com -->
    <title>Shape</title>
    <desc>Created with Sketch.</desc>
    <g id="Assets" stroke="none" stroke-width="1" fill="none" fill-rule="evenodd">
        <g id="Icon-Animation-DataObfuscated" fill="#F98C00" fill-rule="nonzero">
            <path d="M6.86147301,56.7994703 L6.86147301,66 L5.41052911,66 L5.41052911,56.7994703 L6.86147301,56.7994703 Z M4.35283169,56.7994703 L4.35283169,66 L2.9018878,66 L2.9018878,61.675012 C2.61260158,61.675012 2.34139983,61.6089647 2.0882744,61.4768681 C1.83514896,61.3447715 1.61592754,61.1646424 1.43060356,60.9364755 C1.24527958,60.7083086 1.10289866,60.4481222 1.00345653,60.1559085 C0.904014392,59.8636948 0.854294071,59.5534725 0.854294071,59.2252324 C0.854294071,58.9049982 0.913054451,58.5987788 1.03057697,58.3065651 C1.1480995,58.0143513 1.31534058,57.7561664 1.53230524,57.5320024 C1.7492699,57.3078384 2.01143159,57.1297108 2.31879819,56.9976142 C2.62616479,56.8655176 2.96968701,56.7994703 3.34937517,56.7994703 L4.35283169,56.7994703 Z M14.3421962,55.8395483 C14.812284,55.8395483 15.230389,55.8763501 15.5965169,55.9499547 C15.9626447,56.0235593 16.2677467,56.1109635 16.511832,56.2121698 L16.0372241,57.6336516 C15.8383399,57.5508465 15.6078184,57.4887435 15.3456528,57.4473409 C15.0834871,57.4059383 14.7761251,57.3852373 14.4235576,57.3852373 C13.8811459,57.3852373 13.4133229,57.525544 13.0200744,57.8061616 C12.626826,58.0867791 12.3352841,58.5307002 12.14544,59.1379382 L15.6575379,59.1379382 L15.3049721,60.4214121 L11.9284765,60.4214121 C11.9194363,60.4950167 11.9149162,60.5686202 11.9149162,60.6422249 L11.9149162,61.2218582 L15.0337676,61.2218582 L14.6812018,62.5053321 L12.1183196,62.5053321 C12.2991235,63.1033695 12.5884053,63.5587912 12.9861739,63.8716108 C13.3839424,64.1844304 13.9082658,64.3408378 14.5591598,64.3408378 C14.938848,64.3408378 15.2665501,64.2994358 15.542276,64.2166307 C15.8180019,64.1338255 16.0643435,64.0280204 16.2813082,63.8992124 L16.6474342,65.2930926 C16.5118313,65.394299 16.3491102,65.4840032 16.1592662,65.5622081 C15.9694221,65.640413 15.7705408,65.702516 15.5626163,65.7485189 C15.3546919,65.7945217 15.1422505,65.8290234 14.9252858,65.8520248 C14.7083212,65.8750263 14.5003998,65.8865268 14.3015156,65.8865268 C13.3070942,65.8865268 12.4663688,65.6151139 11.779314,65.0722799 C11.0922593,64.529446 10.6357363,63.6738052 10.4097315,62.5053321 L9.16219091,62.5053321 L9.59611805,61.2218582 L10.260569,61.2218582 L10.260569,60.6422249 C10.260569,60.5686202 10.265089,60.4950167 10.2741292,60.4214121 L9.16219091,60.4214121 L9.59611805,59.1379382 L10.4232917,59.1379382 C10.5588946,58.5491014 10.7555159,58.0453774 11.0131614,57.6267512 C11.2708069,57.208125 11.5736489,56.8677088 11.9216964,56.6054924 C12.2697438,56.343276 12.6494263,56.1500668 13.0607551,56.0258591 C13.4720839,55.9016513 13.8992267,55.8395483 14.3421962,55.8395483 Z M3.81042276,45.105597 C4.34379421,45.105597 4.84099743,45.1515992 5.30204733,45.2436049 C5.76309723,45.3356107 6.11565951,45.4414157 6.35974475,45.5610232 L5.9258176,47.0101066 C5.71789314,46.9089003 5.44217135,46.819196 5.09864398,46.7409911 C4.7551166,46.6627863 4.42515447,46.6236844 4.10874767,46.6236844 C3.77426049,46.6236844 3.53921897,46.6742868 3.40361606,46.7754931 C3.26801315,46.8766995 3.20021271,47.0055056 3.20021271,47.1619154 C3.20021271,47.3275257 3.28835328,47.4563319 3.46463706,47.5483376 C3.64092085,47.6403434 3.86240228,47.7231473 4.12908801,47.7967519 C4.39577373,47.8703565 4.68505561,47.9531605 4.9969423,48.0451662 C5.308829,48.137172 5.59811087,48.2659781 5.8647966,48.4315885 C6.13148232,48.5971988 6.35296376,48.8180094 6.52924754,49.0940266 C6.70553133,49.3700439 6.7936719,49.728861 6.7936719,50.1704886 C6.7936719,50.4557065 6.71457138,50.7593209 6.55636799,51.081341 C6.39816459,51.4033612 6.08402256,51.7115759 5.61393246,52.0059943 C5.80377654,52.1348023 5.96423758,52.3027103 6.09532039,52.5097233 C6.22640321,52.7167362 6.29194363,53.0088501 6.29194363,53.3860737 C6.29194363,53.96571 6.0704622,54.4050309 5.62749269,54.7040496 C5.18452318,55.0030683 4.59691938,55.1525755 3.86466365,55.1525755 C3.24993045,55.1525755 2.73690714,55.0904725 2.3255783,54.9662647 C1.91424947,54.842057 1.57750729,54.7063505 1.31534166,54.5591413 L1.77638926,53.1790618 C1.98431372,53.2802682 2.23743536,53.381473 2.53576177,53.4826793 C2.83408817,53.5838856 3.18213042,53.634488 3.57989896,53.634488 C3.91438614,53.634488 4.15620771,53.590786 4.30537091,53.5033805 C4.45453411,53.415975 4.5291146,53.2756684 4.5291146,53.0824563 C4.5291146,52.9076453 4.44097403,52.7719389 4.26469024,52.6753328 C4.08840646,52.5787268 3.86692502,52.4913226 3.6002393,52.4131177 C3.33355357,52.3349128 3.0442717,52.2498088 2.732385,52.157803 C2.42049831,52.0657973 2.13121644,51.9392912 1.86453071,51.7782812 C1.59784498,51.6172711 1.37636355,51.4033609 1.20007977,51.1365442 C1.02379598,50.8697275 0.935655411,50.5201109 0.935655411,50.0876838 C0.935655411,49.738062 1.01701594,49.4068462 1.17973943,49.0940266 C1.34246292,48.7812071 1.64982491,48.4821928 2.10183462,48.196975 C1.93911112,48.0773675 1.78769014,47.9209601 1.64756714,47.727748 C1.50744413,47.5345359 1.43738367,47.2493223 1.43738367,46.8720987 C1.43738367,46.3568665 1.63400495,45.9336463 2.02725339,45.6024256 C2.42050183,45.2712049 3.01488568,45.105597 3.81042276,45.105597 Z M12.8776921,45.1193978 C13.1579381,45.1193978 13.4381799,45.1308983 13.718426,45.1538998 C13.998672,45.1769012 14.2608337,45.2022024 14.5049189,45.2298041 C14.7490041,45.2574059 14.9659655,45.2896074 15.1558096,45.3264097 C15.3456537,45.363212 15.4857746,45.3954135 15.5761765,45.4230153 L15.5761765,51.87412 C15.5761765,52.1961402 15.6168568,52.4307513 15.6982186,52.5779605 C15.7795803,52.7251698 15.9061411,52.7987733 16.0779048,52.7987733 C16.1863871,52.7987733 16.2926078,52.7895728 16.3965701,52.7711717 C16.5005323,52.7527705 16.6293531,52.7113686 16.7830364,52.6469645 L16.9864398,54.0546456 C16.8417967,54.1282502 16.6180552,54.2018537 16.3152087,54.2754583 C16.0123622,54.3490629 15.7027402,54.3858646 15.3863334,54.3858646 C14.8710424,54.3858646 14.4800598,54.2639588 14.2133741,54.0201436 C13.9466884,53.7763283 13.8133475,53.3738092 13.8133475,52.8125741 L13.8133475,46.7892939 C13.695825,46.7432911 13.5534441,46.7064893 13.3862005,46.6788876 C13.2189569,46.6512858 13.0404157,46.6374852 12.8505717,46.6374852 C12.353361,46.6374852 12.0075787,46.7616911 11.8132146,47.0101066 C11.6188504,47.2585222 11.5216698,47.6081388 11.5216698,48.058967 L12.5386865,48.058967 L12.5386865,49.5770544 L11.5216698,49.5770544 L11.5216698,54.1926535 L9.75884073,54.1926535 L9.75884073,49.5770544 L8.82318532,49.5770544 L8.82318532,48.058967 L9.75884073,48.058967 L9.75884073,47.6725448 C9.75884073,46.8536935 10.0255225,46.2234636 10.5588939,45.7818359 C11.0922654,45.3402083 11.8651904,45.1193978 12.8776921,45.1193978 Z M3.34937517,49.0112219 C3.16857128,49.1216288 3.01489029,49.2665357 2.88832757,49.4459469 C2.76176486,49.6253581 2.69848445,49.8300679 2.69848445,50.0600822 C2.69848445,50.3821024 2.84312538,50.6213138 3.13241159,50.7777236 C3.4216978,50.9341334 3.81946038,51.0859406 4.32571125,51.2331498 C4.52459552,51.1227429 4.6918366,50.9755359 4.82743951,50.7915244 C4.96304242,50.6075128 5.03084286,50.4097034 5.03084286,50.1980902 C5.03084286,50.0324798 4.99242261,49.8944733 4.91558096,49.7840664 C4.83873931,49.6736594 4.7279986,49.5747547 4.58335549,49.4873493 C4.43871239,49.3999438 4.26243124,49.31944 4.05450678,49.2458354 C3.84658232,49.1722308 3.6115408,49.094027 3.34937517,49.0112219 Z M13.7319862,33.798146 L13.7319862,36.3788945 L15.8067003,36.3788945 L15.8067003,37.9245835 L13.7319862,37.9245835 L13.7319862,39.911898 L15.8067003,39.911898 L15.8067003,41.457587 L13.7319862,41.457587 L13.7319862,43.4587022 L12.0505185,43.4449014 L12.0505185,41.457587 L9.98936453,41.457587 L9.98936453,39.911898 L12.0505185,39.911898 L12.0505185,37.9245835 L9.98936453,37.9245835 L9.98936453,36.3788945 L12.0505185,36.3788945 L12.0505185,33.798146 L13.7319862,33.798146 Z M5.23424621,33.6448038 L5.23424621,34.8868753 C5.36080893,34.8868753 5.49866982,34.8960757 5.64783302,34.9144769 C5.79699623,34.932878 5.94615719,34.9604794 6.09532039,34.9972817 C6.2444836,35.034084 6.38912453,35.077786 6.52924754,35.1283892 C6.66937055,35.1789924 6.79367135,35.2364951 6.90215368,35.3008991 L6.49534698,36.7637834 C6.26934213,36.6533765 6.0478607,36.5705725 5.83089604,36.5153691 C5.61393138,36.4601656 5.34272963,36.4279641 5.01728264,36.4187635 L5.01728264,40.4899979 C5.26136788,40.4899979 5.53708966,40.4554963 5.84445626,40.3864919 C6.15182286,40.3174876 6.40042447,40.2185829 6.59026855,40.0897749 L7.05131614,41.4698543 C6.82531129,41.6262641 6.54506947,41.75047 6.21058229,41.8424758 C5.87609511,41.9344815 5.550653,41.9896842 5.23424621,42.0080853 L5.23424621,43.30536 L3.59345919,43.30536 L3.59345919,42.0770893 C3.10528871,41.9942841 2.68944601,41.8539774 2.34591864,41.6561651 C2.00239126,41.4583527 1.70406933,41.212241 1.4509439,40.9178225 C1.12549691,40.5313984 0.91531555,40.1173787 0.820393512,39.675751 C0.725471474,39.2341234 0.678011167,38.8339044 0.678011167,38.4750819 C0.678011167,37.9506491 0.761631708,37.465326 0.928875299,37.0190981 C1.09611889,36.5728701 1.31534031,36.2025525 1.58654613,35.9081341 C1.84871176,35.6321168 2.15381373,35.404406 2.50186121,35.2249948 C2.84990868,35.0455835 3.21377103,34.9328782 3.59345919,34.8868753 L3.59345919,33.6448038 L5.23424621,33.6448038 Z M3.79686254,36.4877675 C3.5527773,36.5153692 3.34485595,36.5889727 3.17309226,36.7085802 C3.00132857,36.8281877 2.85894765,36.9776948 2.74594523,37.157106 C2.6329428,37.3365172 2.54932226,37.5366268 2.4950811,37.7574406 C2.44083993,37.9782544 2.41371976,38.2082653 2.41371976,38.4474803 C2.41371976,38.9167097 2.51994044,39.3353296 2.732385,39.7033526 C2.94482957,40.0713756 3.29965186,40.3151872 3.79686254,40.4347947 L3.79686254,36.4877675 Z M4.17654879,22.1042727 C4.72800063,22.1042727 5.22972388,22.1571752 5.68173358,22.2629818 C6.13374329,22.3687884 6.5224658,22.4998947 6.84791279,22.6563045 L6.27838341,24.2571966 C6.09757953,24.1559903 5.84897792,24.0524854 5.53257112,23.9466787 C5.21616433,23.8408721 4.83648187,23.7879696 4.39351236,23.7879696 C3.95958305,23.7879696 3.62058085,23.8914745 3.37649561,24.0984875 C3.13241037,24.3055004 3.01036958,24.6160152 3.01036958,25.0300411 C3.01036958,25.3428607 3.06686995,25.6119735 3.17987237,25.8373876 C3.2928748,26.0628017 3.4171756,26.2905125 3.55277852,26.5205269 L5.46477001,26.5205269 L5.46477001,27.997212 L4.13586812,27.997212 C4.1629887,28.1536217 4.17654879,28.3100292 4.17654879,28.466439 C4.17654879,28.6044476 4.16976875,28.7539547 4.15620846,28.9149648 C4.14264816,29.0759749 4.10874794,29.2392826 4.05450678,29.404893 C4.00026562,29.5705034 3.91438506,29.7361113 3.79686254,29.9017216 C3.67934001,30.067332 3.52113899,30.2237394 3.32225472,30.3709486 L7.06487636,30.3709486 L7.06487636,31.95804 L0.664450944,31.95804 L0.664450944,30.3709486 C0.953737155,30.3617481 1.20685879,30.3111456 1.42382345,30.2191399 C1.64078811,30.1271341 1.81932926,30.0052283 1.95945227,29.8534188 C2.09957528,29.7016093 2.20579597,29.5245009 2.27811752,29.3220882 C2.35043907,29.1196756 2.38659931,28.9080655 2.38659931,28.6872517 C2.38659931,28.4388361 2.35947913,28.2088252 2.30523797,27.997212 L0.664450944,27.997212 L0.664450944,26.5205269 L1.58654613,26.5205269 C1.46902361,26.2997131 1.36732295,26.0513013 1.28144111,25.775284 C1.19555926,25.4992668 1.15261898,25.168051 1.15261898,24.7816268 C1.15261898,24.3307986 1.22719947,23.9374799 1.37636267,23.6016589 C1.52552587,23.2658379 1.73344722,22.9875246 2.00013294,22.7667108 C2.26681867,22.545897 2.58548073,22.3802891 2.95612869,22.2698822 C3.32677665,22.1594753 3.73357928,22.1042727 4.17654879,22.1042727 Z M14.1659133,24.847564 C14.1749535,24.9211686 14.1817336,24.9924719 14.1862537,25.0614763 C14.1907738,25.1304806 14.1930338,25.201784 14.1930338,25.2753886 C14.1930338,25.6802139 14.1297534,26.0298305 14.0031906,26.324249 C13.8766279,26.6186674 13.7161669,26.8739795 13.5218027,27.0901931 C13.3274385,27.3064066 13.1172572,27.4950156 12.8912523,27.6560256 C12.6652475,27.8170357 12.4550661,27.9780434 12.2607019,28.1390535 C12.0663378,28.3000635 11.9058767,28.4679715 11.779314,28.6427825 C11.6527513,28.8175934 11.5894709,29.020003 11.5894709,29.2500174 C11.5894709,29.5720376 11.7205517,29.8296498 11.9827174,30.0228619 C12.244883,30.216074 12.6516856,30.3126786 13.2031375,30.3126786 C13.4833835,30.3126786 13.7410251,30.2712766 13.9760702,30.1884715 C14.2111152,30.1056663 14.4280766,30.0067616 14.6269609,29.8917544 C14.8258452,29.7767472 15.0021263,29.6571415 15.1558096,29.5329337 C15.3094929,29.4087259 15.4450938,29.305221 15.5626163,29.2224158 L16.4169104,30.3816826 C16.1999457,30.6208976 15.9536041,30.8325076 15.6778782,31.0165191 C15.4021523,31.2005306 15.1106104,31.3523379 14.8032438,31.4719454 C14.4958772,31.5915528 14.1794752,31.6812571 13.8540282,31.7410608 C13.5285812,31.8008646 13.2076591,31.830766 12.8912523,31.830766 C11.9058712,31.830766 11.1397262,31.6214561 10.5927945,31.2028299 C10.0458627,30.7842037 9.77240096,30.2206769 9.77240096,29.5122325 C9.77240096,29.0430032 9.84246141,28.6542847 9.98258442,28.3460654 C10.1227074,28.0378461 10.3012486,27.7756336 10.5182132,27.5594201 C10.7351779,27.3432066 10.9679594,27.1522975 11.2165647,26.9866871 C11.4651701,26.8210767 11.6956916,26.6439683 11.9081361,26.4553565 C12.1205807,26.2667447 12.2991219,26.0482343 12.443765,25.7998188 C12.5884081,25.5514032 12.6607285,25.2339881 12.6607285,24.847564 L14.1659133,24.847564 Z M13.3522999,21.8251899 C13.6777469,21.8251899 13.9399086,21.9217945 14.1387929,22.1150066 C14.3376771,22.3082187 14.4371178,22.565831 14.4371178,22.8878511 C14.4371178,23.2098713 14.3376771,23.4651834 14.1387929,23.6537952 C13.9399086,23.842407 13.6777469,23.9367115 13.3522999,23.9367115 C13.0087725,23.9367115 12.7375708,23.842407 12.5386865,23.6537952 C12.3398022,23.4651834 12.2403616,23.2098713 12.2403616,22.8878511 C12.2403616,22.565831 12.3398022,22.3082187 12.5386865,22.1150066 C12.7375708,21.9217945 13.0087725,21.8251899 13.3522999,21.8251899 Z M6.84791279,10.6726145 L7.63440574,11.4040566 L0.759372507,20.650589 L0,19.8639437 L6.84791279,10.6726145 Z M16.9593193,10.7968216 L16.9593193,12.4667178 L14.5320394,12.4667178 L14.5320394,14.7162473 L16.7152353,14.7162473 L16.7152353,16.413745 L14.5320394,16.413745 L14.5320394,18.7736809 L17,18.7736809 L17,20.4573778 L12.9048125,20.4573778 L12.9048125,18.1388444 L11.3453869,18.1388444 L10.504653,20.4573778 L8.8096251,20.4573778 L12.4708854,10.7968216 L16.9593193,10.7968216 Z M5.7495347,15.7651077 C6.3642679,15.7651077 6.84565101,15.939916 7.19369848,16.2895379 C7.54174596,16.6391598 7.71576708,17.2463886 7.71576708,18.1112428 C7.71576708,18.9760969 7.54174596,19.5833258 7.19369848,19.9329477 C6.84565101,20.2825695 6.3642679,20.4573778 5.7495347,20.4573778 C5.12576131,20.4573778 4.63985816,20.2825695 4.29181069,19.9329477 C3.94376322,19.5833258 3.76974209,18.9760969 3.76974209,18.1112428 C3.76974209,17.283191 3.94376322,16.6851625 4.29181069,16.3171395 C4.63985816,15.9491164 5.12576131,15.7651077 5.7495347,15.7651077 Z M5.7495347,16.9243744 C5.54161023,16.9243744 5.37888918,17.0117786 5.26136666,17.1865895 C5.14384413,17.3614005 5.08508375,17.6696151 5.08508375,18.1112428 C5.08508375,18.9024923 5.30656519,19.2981111 5.7495347,19.2981111 C5.95745916,19.2981111 6.1179202,19.2130071 6.23092263,19.0427964 C6.34392505,18.8725858 6.40042542,18.562071 6.40042542,18.1112428 C6.40042542,17.6696151 6.34392505,17.3614005 6.23092263,17.1865895 C6.1179202,17.0117786 5.95745916,16.9243744 5.7495347,16.9243744 Z M12.9048125,13.8329964 L12.8505717,13.8329964 L11.901356,16.6483585 L12.9048125,16.6483585 L12.9048125,13.8329964 Z M1.99335283,10.6312121 C2.60808603,10.6312121 3.08946915,10.8060204 3.43751662,11.1556423 C3.78556409,11.5052642 3.95958522,12.1124931 3.95958522,12.9773472 C3.95958522,13.8422013 3.78556409,14.4494302 3.43751662,14.7990521 C3.08946915,15.1486739 2.60808603,15.3234823 1.99335283,15.3234823 C1.36957944,15.3234823 0.883676295,15.1486739 0.535628822,14.7990521 C0.187581349,14.4494302 0.0135602233,13.8422013 0.0135602233,12.9773472 C0.0135602233,12.1492954 0.187581349,11.5512669 0.535628822,11.1832439 C0.883676295,10.8152209 1.36957944,10.6312121 1.99335283,10.6312121 Z M1.99335283,11.7904788 C1.78542837,11.7904788 1.62270731,11.877883 1.50518479,12.0526939 C1.38766227,12.2275049 1.32890189,12.5357195 1.32890189,12.9773472 C1.32890189,13.7685967 1.55038332,14.1642155 1.99335283,14.1642155 C2.2012773,14.1642155 2.36173833,14.0791115 2.47474076,13.9089008 C2.58774319,13.7386902 2.64424355,13.4281754 2.64424355,12.9773472 C2.64424355,12.5357195 2.58774319,12.2275049 2.47474076,12.0526939 C2.36173833,11.877883 2.2012773,11.7904788 1.99335283,11.7904788 Z M4.21722946,0 L3.75618187,1.98731442 L4.96304174,1.98731442 L5.43764956,0 L6.87503324,0 L6.41398564,1.98731442 L7.39032172,1.98731442 L7.05131614,3.3259915 L6.10210051,3.3259915 L5.76309492,4.78887572 L6.69875033,4.78887572 L6.37330497,6.1275528 L5.45120978,6.1275528 L4.96304174,8.25287517 L3.51209785,8.25287517 L4.00026589,6.1275528 L2.79340601,6.1275528 L2.30523797,8.25287517 L0.854294071,8.25287517 L1.34246211,6.1275528 L0.339005584,6.1275528 L0.637330497,4.78887572 L1.65434725,4.78887572 L1.99335283,3.3259915 L1.01701675,3.3259915 L1.31534166,1.98731442 L2.30523797,1.98731442 L2.77984579,0 L4.21722946,0 Z M13.8133475,1.05499408 L16.2948684,4.61559908 L13.7048657,8.05199693 L12.6607285,7.16874608 L14.6540814,4.60179829 L12.7963308,1.91064334 L13.8133475,1.05499408 Z M10.6673757,1.05499408 L13.1488966,4.61559908 L10.5588939,8.05199693 L9.51475671,7.16874608 L11.5081095,4.60179829 L9.65035895,1.91064334 L10.6673757,1.05499408 Z M4.65115661,3.3259915 L3.44429673,3.3259915 L3.10529115,4.78887572 L4.31215102,4.78887572 L4.65115661,3.3259915 Z" id="Shape"></path>
        </g>
    </g>
</svg>