<?xml version="1.0" encoding="UTF-8"?>
<svg width="90px" height="49px" viewBox="0 0 90 49" version="1.1" xmlns="http://www.w3.org/2000/svg" xmlns:xlink="http://www.w3.org/1999/xlink">
    <!-- Generator: Sketch 56 (81588) - https://sketch.com -->
    <title>Group 2 Copy</title>
    <desc>Created with Sketch.</desc>
    <g id="Desktop" stroke="none" stroke-width="1" fill="none" fill-rule="evenodd">
        <g id="Home" transform="translate(-120.000000, -3881.000000)" fill-rule="nonzero">
            <g id="Group-2-Copy" transform="translate(120.000000, 3881.000000)">
                <polygon id="Path" fill="#979DA2" points="0 0 89.7576593 0 89.7576593 48.2568061 0 48.2568061"></polygon>
                <path d="M48.0249827,6.59629153 L48.0249827,41.3326252 L52.6856287,41.3326252 L52.6856287,42.4985721 L37.5376357,42.4985721 L37.5376357,41.3326252 L42.1982817,41.3326252 L42.1982817,6.59629153 L37.5376357,6.59629153 L37.5376357,5.66322752 L52.6856287,5.66322752 L52.6856287,6.59629153 L48.0249827,6.59629153 Z M34.7409417,16.1541968 L33.5759079,16.1541968 C33.5759079,16.1541968 32.410874,5.66322752 22.3891321,5.66322752 C13.066819,5.66322752 12.3679007,14.5224839 12.3679007,21.5161229 C12.3679007,32.9396455 13.5329346,42.2646678 22.8552478,42.2646678 C32.8764791,42.2646678 34.5081392,31.7742092 34.5081392,31.7742092 L35.4403705,31.7742092 L35.4403705,42.4980614 L34.7409417,42.4980614 L32.6436765,40.3995612 C32.6436765,40.3995612 28.4491462,43.1977318 22.8557583,43.1977318 C12.8345269,43.1977318 5.37718696,34.8047521 5.37718696,24.5466658 C5.37718696,13.8228135 12.3684113,4.96355719 21.923527,4.96355719 C27.9830305,4.96355719 31.0130375,8.22749374 31.0130375,8.22749374 L33.8097315,5.66322752 L34.5091602,5.66322752 L34.7409417,16.1541968 Z M84.3804723,24.3137828 C84.3804723,32.7072732 78.3219898,43.4311254 68.5330505,43.4311254 C58.9784453,43.4311254 52.6856287,32.7072732 52.6856287,24.3137828 C52.6856287,15.9213138 58.9784453,5.19695087 68.5330505,5.19695087 C78.3219898,5.19695087 84.3804723,15.9208031 84.3804723,24.3137828 Z M59.5740482,24.2450627 C59.5740482,32.8681809 58.8765235,42.1907467 68.4120782,42.1902361 C77.9486519,42.1902361 77.4829561,32.8681809 77.4829561,24.2450627 C77.4829561,15.3891357 77.9486519,6.0665699 68.4120782,6.0665699 C58.8765235,6.0665699 59.5740482,15.3891357 59.5740482,24.2450627 L59.5740482,24.2450627 Z" id="Shape" fill="#FFFFFF"></path>
            </g>
        </g>
    </g>
</svg>