<?xml version="1.0" encoding="UTF-8"?>
<svg width="81px" height="60px" viewBox="0 0 81 60" version="1.1" xmlns="http://www.w3.org/2000/svg" xmlns:xlink="http://www.w3.org/1999/xlink">
    <!-- Generator: Sketch 56 (81588) - https://sketch.com -->
    <title>Combined Shape</title>
    <desc>Created with Sketch.</desc>
    <g id="Desktop" stroke="none" stroke-width="1" fill="none" fill-rule="evenodd">
        <g id="Home" transform="translate(-428.000000, -3612.000000)" fill="#979DA2">
            <path d="M452.281876,3645.70418 C452.250457,3645.75681 452.219029,3645.80943 452.187589,3645.86204 C451.616613,3645.07411 450.99128,3644.31847 450.484814,3643.49232 C448.930914,3640.95773 447.964073,3638.19387 447.698576,3635.25708 C447.17414,3629.45843 448.661104,3624.21366 452.504209,3619.70455 C455.026208,3616.74547 458.155301,3614.64703 461.868668,3613.3957 C461.967679,3613.36236 462.067409,3613.32963 462.169116,3613.30663 C462.208738,3613.2977 462.254829,3613.3168 462.361927,3613.33255 L462.361927,3613.79604 C462.361927,3616.877 462.355548,3619.95805 462.370503,3623.03893 C462.372259,3623.40379 462.255458,3623.61714 461.956987,3623.83553 C458.639755,3626.26194 457.00122,3629.51203 457.190527,3633.58542 C457.236598,3634.57614 457.516749,3635.5563 457.703462,3636.54069 C457.725362,3636.50414 457.747261,3636.46759 457.76916,3636.43103 C458.29862,3637.72516 458.917277,3638.97141 459.859533,3640.02548 C462.856106,3643.37756 466.604194,3644.73015 471.004846,3643.76333 C475.443253,3642.78833 478.342577,3639.97724 479.538648,3635.62306 C480.835905,3630.9 478.950946,3626.10347 474.899479,3623.35848 C474.777805,3623.27603 474.652016,3623.19953 474.467448,3623.08154 C472.560838,3626.28551 470.666754,3629.46851 468.77267,3632.65143 C468.745293,3632.64148 468.717827,3632.63153 468.69054,3632.62158 L468.69054,3612.01531 C469.175893,3612.01531 469.664467,3611.97728 470.145615,3612.02109 C475.499438,3612.50894 480.091906,3614.61744 483.768689,3618.53004 C487.483674,3622.48334 489.455236,3627.18517 489.402183,3632.61971 C489.32059,3640.97516 485.469348,3647.15139 478.154251,3651.17851 C475.268705,3652.76699 472.118519,3653.46817 468.792621,3653.48455 C462.30419,3653.5149 456.992595,3651.03565 452.706907,3646.26612 C452.550429,3646.09202 452.421216,3645.89357 452.281876,3645.70418 Z M490.067146,3664.6956 C490.197805,3668.45266 487.145624,3671.98781 482.921812,3671.99997 C478.933925,3672.01133 475.738607,3668.6774 475.75896,3664.57258 C475.779553,3660.56344 479.035412,3657.31019 483.011788,3657.32591 C486.922176,3657.34161 490.075405,3660.63525 490.067146,3664.6956 Z M478.428596,3664.71779 C478.326933,3668.10578 481.677074,3670.18695 484.549478,3669.11197 C486.424316,3668.41032 487.554122,3666.51679 487.433919,3664.26564 C487.276372,3661.31835 484.392545,3659.27322 481.597027,3660.12639 C479.635287,3660.72508 478.423324,3662.48138 478.428596,3664.71779 Z M497.919719,3657.78458 L500.448009,3657.78458 C502.382519,3660.73456 504.334333,3663.71066 506.28606,3666.68684 L506.373738,3666.6631 L506.373738,3657.79338 L509,3657.79338 L509,3671.53018 L506.46044,3671.53018 C504.540839,3668.60861 502.593106,3665.64421 500.645462,3662.6799 C500.618573,3662.68544 500.591684,3662.69098 500.564883,3662.69652 L500.564883,3671.54135 L497.919719,3671.54135 L497.919719,3657.78458 Z M472.008204,3667.57252 C472.639713,3668.11805 473.271398,3668.6635 473.896902,3669.2037 C471.722472,3671.68933 468.484402,3672.67905 465.101964,3671.51284 C462.248786,3670.52925 460.439468,3667.71001 460.526795,3664.42163 C460.613592,3661.15172 462.625201,3658.55773 465.774001,3657.62796 C468.996972,3656.67626 472.344709,3658.09782 473.912442,3660.166 C473.321639,3660.73009 472.727923,3661.29694 472.119372,3661.87791 C471.799468,3661.60266 471.513382,3661.32785 471.19904,3661.09106 C469.613293,3659.89696 467.867109,3659.50864 466.009934,3660.28768 C464.273727,3661.01618 463.313397,3662.39556 463.203289,3664.3019 C463.059981,3666.78158 464.353637,3668.67904 466.611598,3669.24544 C468.382594,3669.68981 469.994653,3669.30282 471.381552,3668.07409 C471.60168,3667.87913 471.826575,3667.68958 472.050146,3667.49844 C472.060212,3667.48983 472.078048,3667.49045 472.092264,3667.48672 C472.064274,3667.51532 472.036195,3667.54392 472.008204,3667.57252 Z M492.379578,3671.54135 L492.379578,3657.78458 L495.149648,3657.78458 L495.149648,3671.54135 L492.379578,3671.54135 Z M458.704781,3664.63033 C458.715766,3668.71487 455.527713,3671.99955 451.551726,3672 C447.517636,3672.00045 444.289105,3668.72274 444.28279,3664.6204 C444.276617,3660.51796 447.504438,3657.22057 451.530646,3657.21599 C455.500433,3657.21153 458.693446,3660.51143 458.704781,3664.63033 Z M446.962025,3664.60966 C446.953876,3667.14022 448.670132,3669.13886 451.037213,3669.35534 C453.499862,3669.58058 455.561016,3667.98356 455.997233,3665.51233 C456.44514,3662.97452 454.886542,3660.47662 452.532659,3659.96 C449.545398,3659.30432 446.972388,3661.45196 446.962025,3664.60966 Z M439.431011,3667.01941 L435.463395,3667.01941 L435.463395,3664.53314 L442.369055,3664.53314 C442.731444,3666.94645 441.191024,3669.92289 438.960772,3671.14886 C435.691127,3672.94628 430.099394,3672.04981 428.403967,3666.98713 C426.693677,3661.8802 430.641563,3656.80394 435.959911,3657.24252 C437.996494,3657.41044 439.77022,3658.10564 441.189166,3659.6265 C441.258529,3659.7008 441.324,3659.77886 441.364344,3659.82473 C440.759713,3660.45439 440.168972,3661.06956 439.56788,3661.69565 C439.249728,3661.42839 438.938122,3661.13636 438.597143,3660.88519 C436.705747,3659.49166 434.086297,3659.51124 432.38105,3660.92087 C430.870268,3662.16964 430.293329,3664.08428 430.853104,3665.99195 C431.371296,3667.75825 433.048498,3669.16546 434.88159,3669.36468 C435.80225,3669.46491 436.707339,3669.42432 437.567041,3669.02275 C438.422673,3668.62316 438.98174,3667.94513 439.431011,3667.01941 Z" id="Combined-Shape"></path>
        </g>
    </g>
</svg>