<?xml version="1.0" encoding="UTF-8"?>
<svg width="131px" height="19px" viewBox="0 0 131 19" version="1.1" xmlns="http://www.w3.org/2000/svg" xmlns:xlink="http://www.w3.org/1999/xlink">
    <!-- Generator: Sketch 56 (81588) - https://sketch.com -->
    <title>Shape</title>
    <desc>Created with Sketch.</desc>
    <g id="Desktop" stroke="none" stroke-width="1" fill="none" fill-rule="evenodd">
        <g id="Home" transform="translate(-633.000000, -3807.000000)" fill="#979DA2">
            <path d="M692.232567,3819.49193 L687.490282,3819.49193 C687.582707,3820.41042 688.105854,3820.82165 688.860534,3820.82165 C689.568702,3820.82165 690.154148,3820.66322 690.954656,3820.23575 L692.016737,3822.0571 C691.016358,3822.65854 689.984317,3823.00728 688.722279,3823.00728 C686.289008,3823.00728 684.949565,3821.23297 684.949565,3818.68325 C684.949565,3815.81737 686.519858,3814.34448 688.644789,3814.34448 C690.862231,3814.34448 692.24827,3815.84897 692.24827,3818.93684 C692.24827,3819.17497 692.24827,3819.34886 692.232567,3819.49193 Z M688.568152,3816.45093 C687.936706,3816.45093 687.582707,3816.8942 687.490282,3817.71763 L689.800149,3817.71763 C689.661127,3816.8784 689.38368,3816.45093 688.568152,3816.45093 Z M682.241321,3814.42375 L682.241321,3822.8333 L679.25418,3822.8333 L679.25418,3814.42375 L676.23623,3814.42375 L676.23623,3811.74728 L685.259271,3811.74728 L685.259271,3814.42375 L682.241321,3814.42375 Z M697.388932,3823.00728 C695.018216,3823.00728 693.601368,3821.45566 693.601368,3818.65236 C693.601368,3816.10229 694.864089,3814.34448 697.450635,3814.34448 C698.975014,3814.34448 699.853012,3815.07285 700.56101,3816.24484 L698.651738,3817.73352 C698.266931,3817.0048 698.00459,3816.65659 697.404806,3816.65659 C696.695955,3816.65659 696.341956,3817.38522 696.341956,3818.69949 C696.341956,3820.01455 696.726849,3820.69482 697.481443,3820.69482 C698.00459,3820.69482 698.374462,3820.3941 698.882588,3819.61798 L700.637732,3821.02731 C699.698885,3822.45288 698.820971,3823.00728 697.388932,3823.00728 Z M706.841244,3822.8333 L706.841244,3818.1135 C706.841244,3817.03649 706.487245,3816.75165 705.917502,3816.75165 C705.33197,3816.75165 704.977886,3817.03649 704.977886,3818.08172 L704.977886,3822.8333 L702.206489,3822.8333 L702.206489,3812.42833 L704.977886,3811.28803 L704.977886,3815.07285 C705.486012,3814.67707 706.055756,3814.34448 707.010392,3814.34448 C708.781409,3814.34448 709.628429,3815.56378 709.628429,3817.74932 L709.628429,3822.8333 L706.841244,3822.8333 Z M716.262747,3823.00728 C713.059861,3823.00728 711.350545,3820.56816 711.350545,3817.29007 C711.350545,3813.72689 713.383136,3811.57296 716.277852,3811.57296 C718.926612,3811.57296 719.973759,3812.74494 720.712821,3814.8355 L718.00287,3815.92823 C717.617295,3814.89879 717.248191,3814.24942 716.262747,3814.24942 C715.015644,3814.24942 714.476794,3815.53201 714.476794,3817.29007 C714.476794,3818.98485 714.999941,3820.33081 716.293555,3820.33081 C717.232403,3820.33081 717.632998,3819.80819 718.217847,3818.76287 L720.743544,3820.1406 C720.019844,3821.59786 718.818228,3823.00728 716.262747,3823.00728 Z M727.561518,3817.65425 C727.207349,3817.25838 726.807094,3816.95766 726.268586,3816.95766 C725.590117,3816.95766 725.174502,3817.29007 725.174502,3818.30362 L725.174502,3822.8333 L722.403446,3822.8333 L722.403446,3814.51854 L725.174502,3814.51854 L725.174502,3815.12034 C725.651564,3814.64529 726.190925,3814.34448 726.900117,3814.34448 C727.48471,3814.34448 727.884964,3814.48677 728.20841,3814.69287 L727.561518,3817.65425 Z M734.149922,3822.8333 L734.149922,3822.27821 C733.657498,3822.67399 733.072052,3823.00728 732.13329,3823.00728 C730.362443,3823.00728 729.51585,3821.78807 729.51585,3819.60174 L729.51585,3814.51854 L732.302267,3814.51854 L732.302267,3819.23835 C732.302267,3820.31457 732.656436,3820.59976 733.226521,3820.59976 C733.796606,3820.59976 734.149922,3820.31457 734.149922,3819.26925 L734.149922,3814.51854 L736.937192,3814.51854 L736.937192,3822.8333 L734.149922,3822.8333 Z M743.571681,3822.8333 L743.571681,3818.1135 C743.571681,3817.03649 743.217511,3816.75165 742.64828,3816.75165 C742.062834,3816.75165 741.708664,3817.03649 741.708664,3818.08172 L741.708664,3822.8333 L738.936756,3822.8333 L738.936756,3814.51854 L741.708664,3814.51854 L741.708664,3815.07285 C742.21645,3814.67707 742.786534,3814.34448 743.740658,3814.34448 C745.511505,3814.34448 746.358951,3815.56378 746.358951,3817.74932 L746.358951,3822.8333 L743.571681,3822.8333 Z M751.760248,3823.00728 C749.389446,3823.00728 747.972769,3821.45566 747.972769,3818.65236 C747.972769,3816.10229 749.235831,3814.34448 751.822547,3814.34448 C753.346756,3814.34448 754.224925,3815.07285 754.93241,3816.24484 L753.023309,3817.73352 C752.638417,3817.0048 752.376417,3816.65659 751.776463,3816.65659 C751.06727,3816.65659 750.713101,3817.38522 750.713101,3818.69949 C750.713101,3820.01455 751.097993,3820.69482 751.85327,3820.69482 C752.376417,3820.69482 752.745948,3820.3941 753.253733,3819.61798 L755.009218,3821.02731 C754.070456,3822.45288 753.192287,3823.00728 751.760248,3823.00728 Z M761.21273,3822.8333 L761.21273,3818.1135 C761.21273,3817.03649 760.85856,3816.75165 760.289329,3816.75165 C759.703029,3816.75165 759.349713,3817.03649 759.349713,3818.08172 L759.349713,3822.8333 L756.577805,3822.8333 L756.577805,3812.42833 L759.349713,3811.28803 L759.349713,3815.07285 C759.857498,3814.67707 760.427583,3814.34448 761.381707,3814.34448 C763.152554,3814.34448 764,3815.56378 764,3817.74932 L764,3822.8333 L761.21273,3822.8333 Z M633,3807 L651.473048,3807 L651.473048,3813.3333 L645.315451,3813.3333 L645.315451,3826 L639.157683,3826 L639.157683,3813.3333 L633,3813.3333 L633,3807 Z M657.630816,3819.66661 L669.946182,3819.66661 L669.946182,3826 L651.473048,3826 L651.473048,3813.3333 L657.630816,3813.3333 L657.630816,3819.66661 Z M657.630816,3813.3333 L657.630816,3807 L669.946182,3807 L669.946182,3813.3333 L657.630816,3813.3333 Z" id="Shape"></path>
        </g>
    </g>
</svg>