<?xml version="1.0" encoding="UTF-8"?>
<svg width="133px" height="23px" viewBox="0 0 133 23" version="1.1" xmlns="http://www.w3.org/2000/svg" xmlns:xlink="http://www.w3.org/1999/xlink">
    <!-- Generator: Sketch 56 (81588) - https://sketch.com -->
    <title>Fill 1</title>
    <desc>Created with Sketch.</desc>
    <g id="Desktop" stroke="none" stroke-width="1" fill="none" fill-rule="evenodd">
        <g id="Home" transform="translate(-1084.000000, -3805.000000)" fill="#979DA2">
            <path d="M1104.88475,3805.16374 L1098.59827,3805.16374 C1100.83679,3808.38483 1105.19489,3814.65522 1105.19489,3814.65522 L1104.88475,3805.16374 Z M1098.44133,3827.90189 L1105.45576,3827.90189 C1103.02816,3824.35649 1100.85553,3821.18303 1098.44133,3817.6569 L1098.44133,3827.90189 Z M1084,3805.11504 L1084.18802,3827.82268 L1090.45521,3827.82268 L1090.23184,3805.11504 L1084,3805.11504 Z M1191.33933,3814.17145 C1189.99001,3813.74332 1188.59516,3813.45434 1187.21637,3813.12361 C1186.45681,3812.94113 1185.73153,3812.73456 1185.38496,3812.02013 C1185.26444,3811.76968 1185.28854,3811.4641 1185.43638,3811.22917 C1185.98383,3810.35794 1186.91748,3810.28409 1187.90148,3810.28783 C1190.38639,3810.29747 1192.87077,3810.29051 1195.57799,3810.29051 L1195.57799,3805.09042 C1192.05015,3805.09042 1188.65783,3804.84425 1185.31907,3805.16427 C1182.40778,3805.44309 1180.18801,3807.14113 1179.30257,3810.12033 C1178.46641,3812.93203 1179.24097,3815.63295 1181.53948,3817.28069 C1182.5899,3818.03419 1183.90226,3818.4789 1185.15463,3818.88187 C1186.58537,3819.34157 1188.09967,3819.54225 1189.5422,3819.97465 C1189.84324,3820.06509 1190.43782,3820.38351 1190.97133,3820.70193 C1191.51556,3821.02623 1191.53538,3821.79685 1191.0249,3822.17092 C1190.13571,3822.82221 1189.33008,3822.67076 1188.28983,3822.69698 C1186.32932,3822.74568 1184.36668,3822.70126 1182.4051,3822.7216 C1181.54697,3822.73016 1180.68992,3822.79866 1179.82109,3822.8404 L1179.82109,3827.93025 C1183.52837,3827.93025 1187.08996,3828.11755 1190.61941,3827.86657 C1193.11075,3827.68997 1195.28498,3826.45483 1196.13132,3823.85933 C1197.73401,3818.94074 1195.57317,3815.51468 1191.33933,3814.17145 L1191.33933,3814.17145 Z M1126.1091,3805.22689 C1126.1091,3806.49199 1126.11339,3807.55427 1126.10803,3808.61655 C1126.09893,3810.48798 1126.16642,3812.36423 1126.05233,3814.22924 C1125.83753,3817.74199 1123.26155,3820.35996 1119.78781,3820.43703 C1119.75246,3819.58774 1119.68925,3818.72721 1119.68657,3817.86615 C1119.67479,3814.21265 1119.693,3810.55862 1119.6705,3806.90459 C1119.66675,3806.32074 1119.51248,3805.73742 1119.42839,3805.16106 L1113.32992,3805.16106 L1113.32992,3827.92918 C1115.50416,3827.92918 1117.4727,3828.10846 1119.39732,3827.89654 C1125.81235,3827.18906 1131.47693,3823.14919 1132.47379,3815.91551 C1132.8841,3812.93899 1132.81554,3809.8945 1132.92374,3806.87944 C1132.94463,3806.29719 1132.77643,3805.70906 1132.71001,3805.22689 L1126.1091,3805.22689 Z M1217,3810.72613 L1217,3805.31304 L1200.14393,3805.44255 L1200.14393,3827.70923 L1216.97215,3827.62842 L1216.97215,3822.28973 L1206.89857,3822.34378 L1207.03999,3818.85618 L1216.35935,3818.74808 L1216.35935,3813.65128 L1207.02981,3813.80005 C1207.02981,3813.80005 1207.05123,3811.6589 1207.16104,3810.72613 L1217,3810.72613 Z M1135.91699,3827.75311 L1152.65468,3827.60595 L1152.65468,3822.11634 L1142.85054,3822.11634 L1142.85054,3818.93271 L1152.12974,3818.93271 C1152.14366,3816.99117 1152.38043,3815.34236 1151.86619,3813.44257 L1142.61539,3813.44257 C1142.7027,3812.41561 1142.76484,3811.68191 1142.84519,3810.73683 L1152.70718,3810.73683 L1152.70718,3805.31412 L1135.91699,3805.42489 L1135.91699,3827.75311 Z M1169.26703,3814.06549 C1169.10687,3814.55248 1168.77583,3814.98381 1168.50425,3815.47669 C1166.75694,3815.75764 1165.40869,3815.58746 1163.23124,3815.43601 L1163.23124,3810.86955 C1164.6443,3810.84654 1165.95452,3810.70954 1167.23956,3810.83316 C1169.01741,3811.00334 1169.82625,3812.36798 1169.26703,3814.06549 L1169.26703,3814.06549 Z M1173.11948,3819.72795 C1175.27496,3817.94214 1176.08059,3815.66238 1175.98042,3812.88012 C1175.81383,3808.26977 1172.71773,3805.09845 1168.03019,3805.03262 C1164.91106,3804.98928 1161.79032,3805.00961 1158.67119,3805.03262 C1158.00429,3805.03798 1156.71979,3805.08293 1156.71979,3805.08293 L1156.95226,3827.80931 L1163.12839,3827.80931 L1163.12839,3821.20979 C1163.84082,3820.97165 1164.39308,3821.3318 1165.12479,3821.08724 C1166.58499,3823.42693 1167.98413,3825.66869 1169.35113,3827.86014 L1176.57929,3827.86014 C1175.05963,3825.36258 1173.68459,3823.10263 1172.2335,3820.71691 C1172.6481,3820.24919 1172.85165,3819.95004 1173.11948,3819.72795 L1173.11948,3819.72795 Z" id="Fill-1"></path>
        </g>
    </g>
</svg>