<?xml version="1.0" encoding="UTF-8"?>
<svg width="124px" height="50px" viewBox="0 0 124 50" version="1.1" xmlns="http://www.w3.org/2000/svg" xmlns:xlink="http://www.w3.org/1999/xlink">
    <!-- Generator: Sketch 56 (81588) - https://sketch.com -->
    <title>Fill 1</title>
    <desc>Created with Sketch.</desc>
    <g id="Desktop" stroke="none" stroke-width="1" fill="none" fill-rule="evenodd">
        <g id="Home" transform="translate(-795.000000, -3880.000000)" fill="#979DA2">
            <path d="M874.593851,3883.06793 C875.457327,3882.97453 875.839604,3882.42516 875.889344,3881.61493 C875.945792,3880.6914 875.364552,3880.02819 874.435127,3880 C873.995844,3880.20836 873.464904,3880.36256 873.14634,3880.84726 C873.19664,3882.60036 873.56718,3883.17957 874.593851,3883.06793 L874.593851,3883.06793 Z M810.907312,3916.2691 C810.07681,3916.31221 809.516808,3916.70793 809.401119,3917.54856 C809.288224,3918.37095 809.9913,3919.02753 810.948669,3919.05185 C811.887595,3919.07562 812.615821,3918.45606 812.606879,3917.6403 C812.597378,3916.82565 811.854062,3916.21992 810.907312,3916.2691 L810.907312,3916.2691 Z M830.58395,3899.76606 C831.149541,3900.49118 831.526229,3901.22459 832.479685,3901.23951 C832.977651,3900.97588 833.520328,3900.81782 833.826597,3900.29332 C834.071388,3899.44551 833.989791,3898.64191 833.055336,3898.27327 C831.832497,3897.79134 831.223872,3898.60875 830.58395,3899.76606 L830.58395,3899.76606 Z M832.466272,3893.51027 C834.453665,3893.61418 836.332634,3893.87781 838.466454,3893.27483 C837.122896,3891.28021 836.813274,3889.26569 837.490642,3887.18153 C838.469248,3886.79852 839.477475,3886.95106 840.285622,3886.23424 C840.641631,3885.62739 840.732171,3884.96197 840.164344,3884.37004 C839.125378,3883.8555 838.372002,3884.73979 837.501819,3884.79229 C835.298698,3883.99864 834.612947,3883.97764 832.369026,3884.65744 C832.432739,3886.15797 833.478971,3887.38547 833.506356,3889.00095 C833.533741,3890.60096 832.249425,3891.77044 832.466272,3893.51027 L832.466272,3893.51027 Z M815.480662,3887.49656 C816.071961,3889.19992 814.274589,3891.94729 817.025418,3893.61307 C818.337119,3893.6081 819.631495,3893.97232 820.806829,3893.36768 C821.445633,3891.56871 819.036283,3891.82791 819.023988,3890.51143 C818.962511,3889.17173 818.734486,3887.80606 819.013369,3886.91237 C819.580078,3885.7838 820.730261,3886.15189 820.952697,3885.09903 C821.014734,3883.9583 819.595726,3884.13847 819.174887,3883.47083 C818.719396,3882.89218 819.144148,3882.08858 818.319235,3881.51821 C817.612805,3881.47455 816.718031,3881.26785 815.505811,3881.81169 C816.056312,3883.12541 814.601537,3883.87926 814.426047,3884.80445 C814.402015,3885.96232 815.320262,3886.3 815.480662,3887.49656 L815.480662,3887.49656 Z M874.170216,3905.6604 C873.549855,3905.62116 872.94123,3905.29397 872.345459,3905.05522 C872.220828,3905.00548 872.174441,3904.76451 872.091167,3904.61086 C872.197914,3903.94212 872.688055,3903.75034 873.088775,3903.70115 C874.25852,3903.60885 874.791137,3904.79325 875.979884,3904.54012 C876.727112,3904.34668 876.965196,3903.74094 876.79306,3902.86273 C875.560161,3901.53022 873.896363,3901.89167 872.373403,3901.94915 C869.567804,3902.05527 868.583609,3903.34025 868.854668,3906.22579 C869.623134,3907.4124 870.648686,3908.04467 872.095079,3908.06843 C872.828894,3908.08004 873.566621,3908.34422 873.443108,3909.33739 C871.906176,3910.57263 870.444135,3908.50781 868.969239,3909.2589 C868.479098,3909.88288 868.550635,3910.47646 868.873111,3911.0728 C872.964144,3912.88725 875.934055,3911.99799 877.322882,3908.53324 C876.992023,3906.82214 876.063157,3905.77978 874.170216,3905.6604 L874.170216,3905.6604 Z M865.671822,3905.84721 C864.766988,3905.64051 863.854889,3905.50178 863.050655,3905.02482 C862.825425,3904.89162 862.684586,3904.6396 862.829337,3904.20354 C863.147901,3904.05818 863.557004,3903.87082 863.873891,3903.72602 C864.9313,3903.7531 865.616493,3904.62192 866.572744,3904.51359 C867.335621,3904.20906 867.488196,3903.64257 867.294822,3902.64719 C864.801639,3901.39813 862.455443,3901.7419 860.215435,3902.83123 C859.601221,3903.59117 859.175351,3904.28367 859.160261,3905.10275 C859.514035,3906.93544 860.685457,3907.78712 862.423587,3908.02145 C863.156284,3908.12094 863.90966,3908.21379 864.062235,3909.27106 C863.374249,3909.91715 862.539835,3909.8044 861.783105,3909.53801 C860.912364,3909.23127 860.10254,3908.70567 859.253036,3909.52198 C859.602339,3911.20489 859.696231,3911.52489 860.524498,3911.64869 C862.444824,3911.93609 864.378005,3912.15108 866.21394,3911.15681 C867.392068,3910.51846 868.020254,3909.61262 867.921331,3908.28177 C867.825203,3906.99678 867.136099,3906.18213 865.671822,3905.84721 L865.671822,3905.84721 Z M846.911754,3922.57519 C847.215228,3922.31653 847.392394,3922.07888 847.628244,3921.97995 C848.909765,3921.43667 849.798391,3922.92227 851.159274,3922.64925 C851.932211,3921.97608 851.977481,3921.19736 851.420832,3920.3501 C845.744245,3919.4133 844.688512,3919.80792 843.436053,3923.3926 C843.677491,3923.87951 843.889308,3924.50128 844.258171,3925.0114 C845.259692,3926.39587 847.178342,3925.83987 848.500103,3926.72969 C848.268166,3928.02351 847.461696,3927.9699 846.614427,3927.78365 C845.747039,3927.59297 845.078055,3926.66226 844.032941,3927.0939 C843.313657,3927.77867 843.346072,3928.52037 843.790385,3929.35658 C844.708632,3929.54062 845.610671,3929.71416 846.508239,3929.90318 C847.947366,3930.20549 849.30825,3929.74898 850.561827,3929.23499 C852.030575,3928.63201 852.260276,3927.02482 851.627619,3925.07165 C850.267854,3922.97975 847.987047,3924.19952 846.911754,3922.57519 L846.911754,3922.57519 Z M838.888411,3923.52746 C838.256872,3924.25976 837.591241,3923.96463 836.99547,3923.8259 C836.440498,3922.81505 836.962496,3922.36075 837.657748,3921.94292 C838.627412,3922.05512 839.115318,3922.52379 838.888411,3923.52746 L838.888411,3923.52746 Z M840.36666,3920.31638 C838.999629,3920.01407 837.790204,3920.02899 836.591956,3920.14284 C834.441369,3920.34733 832.925116,3922.10044 832.764716,3924.47972 C832.567989,3927.3918 833.526476,3928.86801 835.892233,3929.56217 C837.943338,3930.16349 839.87596,3929.75395 841.881795,3929.23609 C842.361877,3928.2783 842.610022,3927.47138 841.393331,3926.95684 C837.477229,3928.3192 837.279384,3928.27719 836.7803,3925.92333 C838.593879,3925.17942 840.629336,3926.04271 842.556928,3925.29217 C842.977209,3923.13118 842.228863,3921.55383 840.36666,3920.31638 L840.36666,3920.31638 Z M854.545554,3905.41888 C853.884953,3906.08044 853.191936,3905.95111 852.500038,3905.47525 C852.226743,3904.28644 852.966706,3904.02613 853.882717,3903.82771 C854.556732,3904.31352 854.737251,3904.77335 854.545554,3905.41888 L854.545554,3905.41888 Z M855.571107,3902.15917 C852.877843,3901.23785 850.498673,3902.24815 848.454274,3905.35366 C848.454274,3905.93122 848.417388,3906.7525 848.46154,3907.56991 C848.580582,3909.75466 849.500506,3910.90313 851.621472,3911.52489 C853.742437,3912.14721 855.79466,3911.97422 857.706045,3911.04296 C858.030756,3910.29352 858.110118,3909.69663 857.567441,3909.22353 C856.430671,3908.76204 855.595139,3909.71873 854.579087,3909.7121 C853.830741,3909.70658 853.070659,3909.75245 852.602313,3909.01296 C852.344109,3908.60508 852.251334,3908.17565 852.752653,3907.61302 C854.455015,3907.15264 856.439054,3907.79928 858.253751,3907.2687 C858.561138,3904.43235 857.726723,3902.89645 855.571107,3902.15917 L855.571107,3902.15917 Z M827.321184,3885.99493 C827.9544,3886.49731 827.87392,3887.09034 827.655955,3887.83093 C826.615313,3888.16585 825.992716,3887.97794 825.607644,3887.15058 C825.77028,3886.16349 826.336988,3885.76722 827.321184,3885.99493 L827.321184,3885.99493 Z M824.603329,3893.62136 C826.5516,3893.49425 828.784902,3894.16299 830.821476,3893.11677 C831.232815,3892.29327 831.365829,3891.6179 830.659958,3890.99558 C829.462828,3890.73084 828.65021,3891.86052 827.386573,3891.8865 C826.527568,3891.67593 825.455628,3891.54218 825.626647,3890.02452 C827.517911,3889.1651 829.666821,3890.18977 831.526229,3889.37014 C831.744753,3885.68763 829.932291,3883.57142 826.708088,3883.78199 C823.281009,3884.00583 820.753735,3886.42712 821.886034,3891.28131 C822.626556,3892.16726 823.321249,3893.02999 824.603329,3893.62136 L824.603329,3893.62136 Z M884.73257,3890.75185 C884.424625,3891.39517 883.909334,3891.57313 883.331447,3891.77154 C881.234513,3890.50535 881.89232,3888.69809 882.189647,3887.07486 C882.896076,3886.29171 883.591887,3886.30332 884.584466,3886.69296 C884.986862,3888.13435 884.881792,3889.48676 884.73257,3890.75185 L884.73257,3890.75185 Z M883.406338,3883.76596 C880.377185,3883.76154 878.106438,3886.02145 878.018693,3888.93021 C877.929831,3891.876 880.452075,3893.97232 883.257116,3893.68216 C886.806031,3893.71421 888.733064,3892.03849 888.732505,3888.92192 C888.731946,3885.93689 886.493614,3883.77039 883.406338,3883.76596 L883.406338,3883.76596 Z M858.708683,3889.88303 C859.424055,3890.62694 859.112197,3891.19786 858.42477,3891.71959 C857.81335,3891.62177 857.539497,3891.32442 857.490874,3890.80159 C857.602651,3890.21298 857.941335,3889.87419 858.708683,3889.88303 L858.708683,3889.88303 Z M859.63699,3893.10461 C860.9744,3893.77114 862.384465,3893.91428 864.216487,3893.23836 C863.473171,3891.45209 863.331215,3889.8344 863.42399,3888.18907 C863.439079,3887.91825 863.399958,3887.6397 863.353011,3887.37055 C862.92267,3884.92604 861.731129,3883.88148 859.236829,3883.76265 C857.64848,3883.68693 856.134462,3883.97764 854.71266,3884.60659 C854.571822,3885.48701 854.244874,3886.30111 855.076494,3886.9063 C858.541018,3886.07949 858.586846,3886.08888 859.515712,3887.99894 C857.708839,3888.33884 855.707474,3887.97131 854.28232,3889.36628 C853.817887,3890.45229 853.893895,3891.5256 854.150423,3892.58619 C856.209911,3893.94689 856.336219,3893.95905 859.63699,3893.10461 L859.63699,3893.10461 Z M900.261169,3884.98849 C899.51953,3884.20258 898.781803,3883.86158 897.970303,3883.78033 C896.672574,3883.86434 895.768299,3884.84093 894.751129,3885.00784 C892.930284,3883.84887 891.269839,3883.85992 889.312068,3884.83595 C891.272075,3887.63252 890.320295,3890.48822 889.745762,3893.2682 C892.607808,3893.80651 893.439987,3893.77832 895.486062,3893.06426 C894.093882,3891.0829 893.950807,3888.928 894.467216,3886.77752 C895.16135,3886.39562 895.683907,3886.39728 896.426664,3886.81123 C897.638884,3888.73235 896.535088,3891.16304 897.226428,3893.44229 C898.597371,3893.72029 899.931428,3893.72858 901.879698,3893.30634 C899.60951,3890.6496 900.910034,3887.60544 900.261169,3884.98849 L900.261169,3884.98849 Z M841.28826,3893.37597 C843.251062,3893.81535 845.137296,3893.6805 846.925167,3893.48153 C847.778024,3891.90253 845.797898,3891.87766 845.772748,3890.86404 C845.838137,3889.51771 845.459773,3888.12772 846.036541,3886.91569 C846.869279,3886.30608 847.522614,3886.36964 848.221779,3887.09918 C848.887969,3889.09436 848.024492,3891.3609 848.795753,3893.70371 C850.182903,3893.36879 851.563907,3894.06572 853.005269,3893.13224 C852.088699,3891.20891 852.337961,3889.18887 852.282073,3887.19369 C852.269218,3886.7416 852.197681,3886.27513 852.056284,3885.84625 C851.44207,3883.98538 850.251087,3883.39843 848.392797,3884.04673 C847.784731,3884.25896 847.212993,3884.57454 846.680376,3884.81716 C844.27382,3884.03401 844.222403,3884.03015 841.230695,3884.49882 C841.297203,3886.1143 842.386468,3887.23625 842.353494,3888.80088 C842.319961,3890.41637 841.235166,3891.68919 841.28826,3893.37597 L841.28826,3893.37597 Z M872.287335,3891.2791 C871.226014,3892.39165 870.35136,3891.76657 869.376107,3891.22605 C868.953591,3889.71612 869.154789,3888.18022 869.235268,3886.65814 C870.271998,3885.68377 871.236633,3885.66332 872.461148,3886.69849 C872.486298,3888.32005 872.773006,3889.86535 872.287335,3891.2791 L872.287335,3891.2791 Z M875.99162,3884.3717 C873.822031,3883.80078 871.641265,3884.64362 869.885809,3883.99699 C868.806604,3883.28458 869.451556,3882.17093 868.588639,3881.53866 C867.62121,3881.40768 866.550947,3881.31206 865.373378,3881.69175 C865.383438,3882.97453 864.982718,3884.07657 864.498724,3885.24604 C865.448827,3886.71065 865.286192,3888.37145 865.273338,3890.00794 C865.263278,3891.3294 865.408029,3892.57569 866.593422,3893.40692 C869.188881,3893.81425 875.422117,3893.71311 877.593941,3893.1643 C877.04344,3891.77044 876.202878,3890.47661 876.306272,3888.86444 C876.401841,3887.37497 876.744437,3885.78049 875.99162,3884.3717 L875.99162,3884.3717 Z M800.533861,3901.10853 C802.245164,3901.15219 802.64812,3901.42134 802.667122,3902.44656 C802.686124,3903.46847 802.32732,3903.73321 800.613222,3903.90011 C800.199648,3902.97161 800.265596,3902.04421 800.533861,3901.10853 L800.533861,3901.10853 Z M803.048281,3907.57323 C803.238861,3908.65925 802.486602,3909.23459 800.66464,3909.48163 C800.15829,3908.56142 800.315337,3907.60639 800.48915,3906.46566 C801.84668,3906.16389 802.814109,3906.24072 803.048281,3907.57323 L803.048281,3907.57323 Z M796.388616,3908.23368 C796.186859,3909.55017 794.623101,3910.20509 795.598913,3911.48731 C801.393984,3912.48711 804.699784,3911.83053 806.858195,3909.3197 C807.668577,3907.15153 806.250129,3906.01799 804.884775,3904.96181 C805.115594,3903.95207 806.322225,3903.8979 806.478154,3902.97935 C806.605579,3902.07185 806.715121,3901.15992 806.042783,3900.09049 C803.428881,3898.27106 800.21362,3898.732 797.09784,3898.68392 C796.284105,3898.6712 795.366976,3898.52419 795.000348,3899.61131 C794.976316,3900.63488 796.205861,3900.97533 796.388616,3902.33769 L796.388616,3908.23368 Z M906.532969,3891.87434 C905.994204,3891.60353 905.632606,3891.35206 905.617516,3890.76456 C905.864543,3889.80897 906.525144,3889.66251 907.445068,3889.89574 C907.903353,3891.042 907.515487,3891.61955 906.532969,3891.87434 L906.532969,3891.87434 Z M917.503308,3880.9904 C916.003821,3880.88153 914.650204,3880.60187 913.482136,3881.15897 C912.703051,3882.5368 914.148326,3883.0414 914.322698,3883.95167 C914.322698,3885.82691 914.310402,3887.66291 914.327169,3889.49892 C914.337229,3890.72974 913.950481,3891.64608 912.35766,3891.94729 C910.766517,3890.07426 912.14249,3887.69276 911.388555,3885.68156 C909.234615,3883.41335 906.988459,3883.13757 903.069004,3884.69999 C902.616867,3885.43561 902.47491,3886.17068 903.155631,3886.877 C905.722586,3886.37351 905.722586,3886.37351 907.45904,3886.74823 C907.75469,3887.17821 907.755807,3887.58443 907.357323,3887.95418 C902.435229,3888.61021 901.589078,3889.6299 902.3296,3892.2778 C904.155475,3894.0215 904.341025,3894.04748 907.859201,3893.03386 C908.713176,3893.2168 909.510145,3893.87449 910.47925,3893.66945 C912.487881,3893.24333 914.495393,3893.78772 916.500111,3893.62744 C917.219954,3893.56996 917.987861,3893.82972 919,3893.07531 C916.728694,3889.27066 918.481355,3885.00286 917.503308,3880.9904 L917.503308,3880.9904 Z M843.692581,3911.70286 C845.08532,3911.73768 846.364606,3912.04773 847.990401,3911.15515 C846.324367,3908.51997 848.117267,3905.30448 846.484207,3902.73783 C844.478931,3901.15827 842.819044,3902.28076 841.203869,3903.00367 C839.101905,3901.72421 838.750367,3901.68331 836.004569,3902.46149 C836.724411,3904.62855 837.914835,3906.81164 836.767446,3909.35397 C835.985566,3909.77511 835.305963,3909.96578 834.533026,3909.24343 C834.107715,3907.03492 834.757698,3904.62247 834.15522,3902.2675 C832.409825,3901.88836 830.837125,3901.34507 829.483507,3902.88539 C831.043353,3905.63387 831.087505,3908.3 829.569575,3910.86444 C830.071453,3911.9593 830.984111,3911.8156 831.79114,3911.76807 C834.4559,3911.61277 837.116748,3911.69899 839.780391,3911.77084 C840.405223,3911.78742 841.094886,3911.95101 841.477722,3911.53871 C842.38535,3910.14264 840.79756,3909.70768 840.641631,3908.7007 C840.862949,3907.45496 840.182228,3906.00693 841.20331,3904.90876 C842.007544,3904.50198 842.572576,3904.67055 843.16164,3905.32327 C843.763,3907.29578 842.923556,3909.55514 843.692581,3911.70286 L843.692581,3911.70286 Z M795.567056,3893.33839 C799.146151,3893.95076 807.684785,3893.7938 808.067062,3893.1549 C808.540437,3892.04733 807.08622,3891.88208 807.080631,3891.02653 C807.130372,3889.58624 806.877756,3888.1233 807.228176,3886.80681 C808.045265,3886.35969 808.634329,3886.36633 809.208303,3886.92785 C809.867787,3888.99819 808.871855,3891.28739 809.870022,3893.45998 C811.379569,3893.52133 812.934944,3894.21936 814.362334,3892.62654 C812.226837,3890.36663 813.869957,3887.48661 812.990832,3884.97578 C812.289991,3884.14289 811.427074,3883.70462 810.240004,3883.82676 C809.29996,3884.24901 808.301234,3884.69778 807.251091,3885.16922 C806.355199,3883.94669 805.089885,3884.19761 803.89555,3884.18434 C803.220417,3884.17661 802.5777,3884.23961 802.274226,3885.2162 C803.578662,3887.05497 803.361256,3889.21318 803.006365,3891.30342 C802.046202,3892.238 801.278295,3892.07496 800.457294,3891.08401 L800.457294,3883.32548 C800.532184,3882.86841 802.075264,3882.39974 801.117336,3880.9484 C799.365234,3880.82681 797.473969,3880.73672 795.73528,3880.99704 C794.60354,3882.51138 796.399235,3883.04195 796.434445,3884.6193 C796.434445,3884.99347 796.440592,3885.91258 796.433327,3886.83224 C796.417678,3888.90258 796.744625,3891.03261 795.35468,3892.87027 C795.304381,3892.93659 795.490489,3893.17811 795.567056,3893.33839 L795.567056,3893.33839 Z M822.966916,3907.9684 C823.759414,3908.12701 824.669837,3908.04964 825.010197,3909.37663 C822.932266,3910.37587 820.943755,3908.12094 819.036842,3909.79998 C817.597156,3907.21233 818.956363,3904.50364 817.996759,3902.04532 C816.569368,3901.99779 815.216309,3901.69879 813.619577,3902.42943 C814.393073,3904.54067 815.665652,3906.63091 814.426047,3908.79907 C813.994029,3909.0931 813.646403,3909.16992 813.260214,3909.09255 C812.872349,3909.01573 812.595142,3908.7941 812.113943,3908.06788 L812.113943,3902.1133 C810.50715,3901.93257 809.171417,3901.78832 807.928458,3902.17741 C807.174524,3903.57624 808.452692,3904.54841 808.339238,3905.75823 C808.219637,3907.03381 808.216284,3908.34919 808.392891,3909.61538 C808.636565,3911.36462 810.376372,3912.2384 812.238574,3911.70894 C812.950034,3911.50666 813.401612,3910.75391 814.225966,3910.79425 C816.423499,3912.02562 816.791245,3912.05989 820.123313,3911.30216 C822.10344,3912.04718 824.226083,3911.90459 826.320222,3911.72718 C826.991442,3911.26845 827.59839,3910.85394 828.165099,3910.46651 C828.413802,3909.68778 828.635679,3908.99196 828.836878,3908.35969 C828.589292,3907.36929 828.307614,3906.50269 827.3128,3905.9174 C826.254274,3905.567 824.779937,3905.96493 823.910872,3904.73964 C823.95167,3904.0206 824.40772,3903.79732 824.967722,3903.73928 C826.015071,3903.86861 826.787449,3904.83138 827.920866,3904.50696 C828.54514,3903.88409 828.432804,3903.20153 828.000228,3902.33216 C825.609321,3901.58107 823.222885,3901.67944 821.020881,3902.8865 C820.394372,3903.70447 820.328424,3904.54288 820.13002,3905.23207 C820.389901,3906.93544 821.483079,3907.67105 822.966916,3907.9684 L822.966916,3907.9684 Z M830.811416,3920.58277 C828.907297,3919.73773 827.279267,3919.95106 825.576347,3921.32779 C823.647078,3919.61448 821.797172,3919.73662 820.002594,3921.15867 C817.803943,3919.91127 817.080188,3919.83831 814.554031,3920.57227 C813.97894,3921.78596 815.543257,3922.26127 815.420861,3923.29533 L815.420861,3926.97452 C815.038584,3927.6195 814.626128,3927.97377 814.101335,3928.20369 C812.825402,3927.69854 812.728157,3926.65286 812.713067,3925.48616 C812.691829,3923.77672 812.936061,3922.03798 812.531988,3920.43631 C810.849747,3919.73994 809.185948,3920.56951 807.824506,3919.88971 C807.292448,3918.95734 807.850774,3917.89177 807.068894,3917.16776 C804.599744,3916.69577 797.610337,3916.73612 795.44019,3917.2573 C795.247374,3918.48259 795.184221,3919.72612 795.447455,3920.83646 C796.103585,3921.36869 796.626701,3921.29518 797.100635,3921.10064 C797.875248,3920.59714 797.180555,3919.31493 798.290499,3919.08888 C798.599003,3919.11541 798.989105,3919.10767 799.022079,3919.41054 C799.382,3922.72331 799.746393,3926.04215 798.060798,3929.34 C800.304159,3929.68487 802.26249,3929.80922 804.192876,3929.29634 C804.231439,3928.95754 804.327008,3928.742 804.259942,3928.60327 C803.944731,3927.95443 803.584251,3927.32658 803.211475,3926.63794 C803.211475,3925.39441 803.146086,3924.10335 803.230477,3922.82168 C803.310957,3921.59473 802.845406,3920.27991 803.610519,3919.14967 C805.438629,3918.87112 804.490202,3920.77898 805.539228,3921.19072 C806.228333,3921.24489 807.047098,3921.309 807.853009,3921.372 C808.344268,3922.02969 808.780757,3922.61388 809.262515,3923.25775 C809.262515,3924.25202 809.175888,3925.2684 809.284871,3926.26433 C809.409502,3927.40727 807.725583,3927.99256 808.412452,3929.25323 C810.762561,3929.74898 818.078915,3929.72853 820.511738,3929.1543 C819.880199,3928.03567 819.091613,3926.96181 819.338081,3925.62488 C819.547103,3924.49244 818.7574,3922.95764 820.844833,3922.38175 C822.444918,3924.56318 820.940961,3927.25529 821.974338,3929.50856 C823.385521,3929.5362 824.746404,3929.90926 826.031279,3929.19851 C824.619537,3924.15696 824.630156,3924.00884 826.565013,3922.5564 C828.906179,3924.43993 826.845573,3927.33045 828.099151,3929.49751 C829.308017,3929.58318 830.486704,3929.85178 832.015253,3929.05592 C830.440876,3926.41963 831.708425,3923.38873 830.811416,3920.58277 L830.811416,3920.58277 Z" id="Fill-1"></path>
        </g>
    </g>
</svg>