<?xml version="1.0" encoding="UTF-8"?>
<svg width="101px" height="34px" viewBox="0 0 101 34" version="1.1" xmlns="http://www.w3.org/2000/svg" xmlns:xlink="http://www.w3.org/1999/xlink">
    <!-- Generator: Sketch 56 (81588) - https://sketch.com -->
    <title>Group 4</title>
    <desc>Created with Sketch.</desc>
    <g id="Desktop" stroke="none" stroke-width="1" fill="none" fill-rule="evenodd">
        <g id="Home" transform="translate(-1096.000000, -3625.000000)">
            <g id="Group-4" transform="translate(1096.000000, 3625.000000)">
                <polygon id="Fill-1" fill="#979DA2" points="0.295026207 33.7099509 100.956685 33.7099509 100.956685 0 0.295026207 0"></polygon>
                <path d="M54.3982484,23.1592372 C53.8759834,23.7654955 53.2187147,24.1313757 52.4218169,24.2438394 C51.4945986,24.3747406 50.5920105,24.300703 49.7521543,23.8611298 C48.125923,23.0098983 47.5781606,20.835065 48.5698454,19.205261 C49.1729391,18.2141105 50.1005622,17.5874617 51.0942128,16.9778719 C52.5504029,18.4789572 53.9972844,19.970393 55.4563076,21.4743502 C55.1391789,22.0906602 54.8272538,22.6612495 54.3982484,23.1592372 L54.3982484,23.1592372 Z M50.0499141,13.7253864 C49.4113204,12.6636445 49.5750016,11.2903588 50.4253228,10.54085 C51.6581641,9.45406517 53.9186527,9.91351192 54.4532328,11.38427 C54.7989233,12.3352139 54.6006095,13.2153942 53.9025216,13.9603653 C53.2473344,14.659501 52.3874734,15.0570295 51.5377304,15.5136044 C50.9921072,14.9299192 50.4481028,14.387417 50.0499141,13.7253864 L50.0499141,13.7253864 Z M58.8921092,17.4601216 C58.2925423,17.442603 57.7677912,17.433298 57.2266777,17.4645443 C56.8408041,18.3579353 56.4602497,19.239092 56.0750121,20.1310471 C55.6733543,19.8242706 52.4292175,16.4716706 52.3184393,16.2512235 C52.5502295,16.1194607 52.7831181,15.9868937 53.0161802,15.8545565 C53.8203052,15.3976944 54.6144278,14.9279663 55.2473554,14.2371017 C56.6640562,12.6905255 56.3516686,10.4962781 54.5251577,9.53493791 C53.1389267,8.80536013 51.6749312,8.74206343 50.2371848,9.40196888 C48.2723168,10.3038607 47.6156841,12.568642 48.7570583,14.392529 C49.0695037,14.8917803 49.4812796,15.3096994 49.8883144,15.7313519 C50.0184614,15.8662164 50.1743372,15.982471 50.2678859,16.1690297 C50.1586687,16.2377255 50.062287,16.2991268 49.9650959,16.359207 C48.8767982,17.0318637 47.8688089,17.79286 47.169796,18.8890073 C45.8853237,20.9033013 46.4560396,23.362338 48.4909824,24.5414832 C49.5030767,25.1279829 50.6150218,25.3101189 51.7722379,25.2791598 C53.580305,25.2307395 55.0401955,24.4958774 56.1587317,23.087095 C56.2825189,22.9312082 56.4005243,22.7707838 56.5212471,22.6124272 L56.4330755,22.73029 C56.9667305,23.1989843 57.5612673,23.6161567 58.0178516,24.1498708 C58.5446842,24.7657213 59.1199677,25.0762887 59.9312621,24.9436068 C60.1991303,24.8998965 60.479834,24.9721535 60.7498993,24.9094312 C59.5560847,23.7156968 58.3738915,22.5336797 57.1945891,21.3546493 C57.8070492,20.0466707 58.4038409,18.8082494 58.8921092,17.4601216 L58.8921092,17.4601216 Z M39.2789869,16.5522562 C38.2788608,15.9947053 37.2160605,15.5621969 36.1970281,15.0423828 C35.5528261,14.7137225 34.9252178,14.3575493 34.424114,13.823548 C33.3010102,12.6266544 33.701396,10.9029968 35.2356396,10.323562 C35.6455653,10.1687665 36.072605,10.101564 36.5089532,10.1013343 C37.985842,10.1005301 39.3512587,10.5430327 40.6751047,11.1461894 C40.8733607,11.2364819 41.0695931,11.3311972 41.304332,11.4415357 L41.304332,9.52534576 C41.2075456,9.49484617 41.1272371,9.46250856 41.0438066,9.44412839 C39.8582599,9.18290026 38.6640406,8.97382585 37.4491226,8.91414775 C36.1112848,8.84838121 34.7921798,8.94407296 33.5281749,9.43338748 C30.8707696,10.4621025 30.5262354,12.8576127 31.1228536,14.5080943 C31.4953136,15.5385899 32.2630714,16.2401954 33.1558884,16.8245124 C34.2221577,17.5223844 35.4038306,17.9984307 36.5448,18.5525928 C37.2113195,18.8763135 37.8610719,19.2231817 38.4475143,19.6864194 C39.9397247,20.8649327 39.4259589,23.157514 37.7118451,23.7371211 C36.9065059,24.0094348 36.0882157,24.0415427 35.2589979,23.9340761 C33.8882619,23.7564777 32.6472105,23.2295988 31.4776793,22.5165631 C31.378002,22.4557363 31.2930682,22.3389648 31.1307168,22.3918652 L31.1307168,24.4448725 C31.1791678,24.4799097 31.2144364,24.514832 31.2568166,24.5341312 C31.3441788,24.5738783 31.4339115,24.609777 31.5251474,24.6395874 C32.6303278,25.0005853 33.7715285,25.1778965 34.9271836,25.2438354 C36.5066405,25.3339556 38.0708914,25.2294759 39.5594593,24.6398746 C42.1841978,23.6003612 43.1077158,20.5505744 41.4799235,18.3328923 C40.9045243,17.5488633 40.1156631,17.0187104 39.2789869,16.5522562 L39.2789869,16.5522562 Z M66.441275,18.8590246 C67.3456554,16.5906248 68.2407851,14.3450852 69.1696801,12.0151118 C70.1598617,14.3406625 71.1135026,16.580171 72.0838528,18.8590246 L66.441275,18.8590246 Z M65.9280874,9.27841969 C66.0009952,9.37721309 66.0840788,9.41960236 66.1679719,9.46038335 C66.6331711,9.68651685 67.0422295,9.9850797 67.3595316,10.3953595 C67.7474289,10.8969083 67.8416135,11.4309671 67.5924781,12.0365362 C65.8734499,16.216014 64.1641928,20.3995699 62.453259,24.5823217 C62.4119195,24.6835275 62.3293562,24.78077 62.3959041,24.921206 L64.0103984,24.921206 C64.6417649,23.3506781 65.2753284,21.7745787 65.9085451,20.1993984 L72.6491339,20.1993984 C73.3266965,21.7957734 73.9971476,23.3753765 74.6514098,24.9168981 L77.711398,24.9168981 C75.4306733,19.6703942 73.1697222,14.4691514 70.9132808,9.27841969 L65.9280874,9.27841969 Z M89.9520446,20.5263356 C89.4558553,22.1645829 88.3938067,23.1927235 86.6884812,23.535686 C85.4966902,23.7753174 84.2934514,23.6475178 83.0571988,23.6873798 L83.0571988,10.5322918 C83.0829854,10.5121884 83.0979601,10.4902471 83.1129348,10.4902471 C84.4094332,10.4900748 85.7122915,10.3658364 86.9915602,10.6965645 C88.4447438,11.0723241 89.3798832,11.9932853 89.8675733,13.3848938 C90.2950755,14.6051646 90.3634157,15.8737408 90.3613242,17.149669 C90.3593685,18.2906754 90.2859403,19.4237553 89.9520446,20.5263356 L89.9520446,20.5263356 Z M92.9335745,13.5211368 C92.3759253,11.6581919 91.1195522,10.427812 89.2599698,9.80822803 C88.0685257,9.41127384 86.8374189,9.26566845 85.5907592,9.25647837 C83.1823158,9.23878746 80.7736989,9.24441638 78.3651398,9.24298043 C78.2822296,9.24292299 78.1726077,9.1980639 78.1127667,9.3380978 C78.2063731,9.38330152 78.2907288,9.42391021 78.3749688,9.46474864 C79.2366221,9.88261027 79.8117901,10.5407926 80.0677479,11.4637642 C80.1913616,11.9097704 80.2252426,12.366173 80.2250113,12.8277449 C80.2229877,16.7135996 80.2236815,20.5994542 80.225127,24.4853088 C80.225127,24.6171865 80.2000342,24.75297 80.2631709,24.8921998 C80.3579915,24.9528543 80.4467991,24.9384374 80.5319642,24.93838 C82.140908,24.9375758 83.7499674,24.9488337 85.35868,24.9291899 C86.4574427,24.9157494 87.5503658,24.8204597 88.6226481,24.5534303 C90.7773308,24.0168443 92.3029597,22.7745173 92.9420737,20.6249567 C93.6435149,18.2660345 93.6394677,15.8792548 92.9335745,13.5211368 L92.9335745,13.5211368 Z M18.4404239,21.7019771 L18.36503,21.6897428 C16.847669,17.5496674 15.3302502,13.4096496 13.812311,9.26813829 L8.25432017,9.26813829 C8.31693646,9.41581145 8.43517314,9.42126806 8.52409636,9.46434658 C9.37574731,9.87721109 9.95166686,10.523274 10.2136377,11.4331497 C10.3497978,11.9062667 10.3811927,12.3922498 10.3810192,12.8824259 C10.3794581,16.7593202 10.379805,20.6362145 10.381713,24.5130514 C10.3817708,24.6434357 10.3472538,24.7817465 10.4447918,24.920287 L12.0310712,24.920287 L12.0310712,11.4133336 C12.0566265,11.4102894 12.0822397,11.4071877 12.1078528,11.4040861 C13.7576735,15.9096396 15.4074943,20.415193 17.0577198,24.9218378 L18.9377696,24.9218378 C20.5697247,20.3695298 22.1997719,15.8223912 23.8297613,11.27531 C23.860578,11.2811113 23.8913369,11.2869125 23.9221536,11.2927712 L23.9221536,24.9222399 L26.9680343,24.9222399 L26.9680343,9.25912052 L22.9002302,9.25912052 L18.4404239,21.7019771 Z" id="Fill-2" fill="#FFFFFF"></path>
            </g>
        </g>
    </g>
</svg>