<?xml version="1.0" encoding="UTF-8"?>
<svg width="114px" height="29px" viewBox="0 0 114 29" version="1.1" xmlns="http://www.w3.org/2000/svg" xmlns:xlink="http://www.w3.org/1999/xlink">
    <!-- Generator: Sketch 56 (81588) - https://sketch.com -->
    <title>Shape</title>
    <desc>Created with Sketch.</desc>
    <g id="Desktop" stroke="none" stroke-width="1" fill="none" fill-rule="evenodd">
        <g id="Home" transform="translate(-222.000000, -3802.000000)" fill="#979DA2">
            <path d="M291.448154,3810.2473 C295.90349,3810.2473 299.30931,3814.23806 299.30931,3819.69222 C299.30931,3826.60979 295.117299,3831 288.172483,3831 C285.682247,3831 283.192768,3830.60054 280.834194,3830.06818 C280.9651,3827.27504 281.096762,3810.2473 280.834194,3807.0547 C280.572382,3805.4584 280.178909,3804.79314 279,3804.52735 L278.082146,3804.39445 L278.082146,3803.5963 L286.861912,3802 C286.731007,3803.33051 286.731007,3807.18837 286.731007,3811.44415 C288.172483,3810.64676 289.613203,3810.2473 291.448154,3810.2473 Z M288.434295,3829.53583 C291.186343,3829.53583 293.151442,3825.41217 293.151442,3820.09168 C293.151442,3815.83436 291.578303,3812.37596 288.696106,3812.37596 C288.040821,3812.37596 287.516441,3812.50886 286.731007,3812.77542 C286.599344,3819.69222 286.731007,3827.54083 286.861912,3829.4037 C287.25463,3829.53583 287.909915,3829.53583 288.434295,3829.53583 Z M245.061358,3802.53236 L245.19302,3810.3802 L243.882449,3810.77966 C242.572635,3806.78891 240.737684,3804.52735 237.199445,3804.52735 L232.61396,3804.52735 C232.482298,3807.0547 232.351392,3811.31202 232.351392,3815.83436 L235.496914,3815.70146 C237.46277,3815.70146 238.37911,3814.10593 238.772584,3811.84437 L239.951493,3811.84437 L239.951493,3821.28929 L238.772584,3821.28929 C238.37911,3819.02697 237.46277,3817.43066 235.496914,3817.43066 L232.351392,3817.29777 C232.351392,3820.75617 232.482298,3823.55008 232.61396,3825.28005 C232.875772,3827.80663 233.531057,3829.00501 235.234345,3829.13714 L236.806728,3829.4037 L236.806728,3830.46764 L222,3830.46764 L222,3829.4037 L223.310571,3829.13714 C225.013859,3829.00501 225.669145,3827.80663 225.930956,3825.28005 C226.193524,3821.15563 226.32443,3812.50886 225.930956,3807.71995 C225.669145,3805.1926 225.013859,3804.12866 223.310571,3803.8621 L222,3803.7292 L222,3802.53236 L245.061358,3802.53236 Z M252.530553,3809.98151 C259.082651,3809.98151 262.358321,3814.50462 262.358321,3820.49037 C262.358321,3826.21033 258.689933,3831 252.137835,3831 C245.585737,3831 242.310067,3826.47689 242.310067,3820.49037 C242.310067,3814.77042 245.979211,3809.98151 252.530553,3809.98151 Z M252.137835,3811.31202 C249.254882,3811.31202 248.468691,3815.30277 248.468691,3820.49037 C248.468691,3825.54507 249.779262,3829.66949 252.400404,3829.66949 C255.413506,3829.66949 256.199697,3825.67874 256.199697,3820.49037 C256.199697,3815.43567 254.889883,3811.31202 252.137835,3811.31202 Z M301.013355,3820.62327 C301.013355,3815.16988 304.419931,3809.98151 311.103692,3809.98151 C316.606274,3809.98151 319.227416,3814.10593 319.227416,3819.55932 L307.040316,3819.55932 C306.910167,3824.48189 309.268741,3828.07319 313.985889,3828.07319 C316.082651,3828.07319 317.130654,3827.54083 318.441224,3826.60979 L318.964848,3827.27504 C317.654277,3829.13714 314.77208,3831 311.103692,3831 C305.206879,3831 301.013355,3826.74268 301.013355,3820.62327 Z M307.040316,3818.09669 L313.199697,3817.96302 C313.199697,3815.30277 312.80698,3811.31202 310.579312,3811.31202 C308.351644,3811.31202 307.171979,3815.03621 307.040316,3818.09669 Z M334.819578,3811.04622 L334.951241,3816.23382 L334.034144,3816.49962 C332.854478,3812.90755 331.282096,3811.44415 328.923522,3811.44415 C327.351896,3811.44415 326.172231,3812.64176 326.172231,3814.37096 C326.172231,3816.10092 327.482045,3817.03197 331.15119,3818.49538 C334.557767,3819.82589 336,3821.42142 336,3824.2161 C336,3828.33898 332.723573,3831 327.612951,3831 C325.123472,3831 322.241275,3830.46764 320.668892,3829.80239 L320.53723,3823.94954 L321.454327,3823.68298 C322.895804,3827.6745 324.730754,3829.13714 327.220234,3829.13714 C329.316996,3829.13714 330.495905,3827.6745 330.495905,3826.07743 C330.495905,3824.48189 329.578051,3823.55008 326.303137,3822.35324 C323.157615,3821.28929 320.930704,3819.82589 320.930704,3816.36672 C320.930704,3812.90755 323.944563,3809.98151 328.792616,3809.98151 C331.15119,3809.98151 333.247196,3810.3802 334.819578,3811.04622 Z M279.392717,3810.51387 L277.295955,3815.96803 C274.67557,3814.23806 271.792616,3815.03621 271.137331,3815.96803 C271.006425,3819.16063 271.006425,3824.2161 271.268993,3826.74268 C271.399899,3828.33898 271.792616,3829.13714 273.103187,3829.2708 L274.67557,3829.4037 L274.67557,3830.46764 L262.489227,3830.46764 L262.489227,3829.4037 L263.406324,3829.2708 C264.585989,3829.13714 265.109612,3828.33898 265.241275,3826.74268 C265.372181,3823.94954 265.503086,3818.36248 265.241275,3815.16988 C265.109612,3813.43991 264.585989,3812.77542 263.406324,3812.64176 L262.489227,3812.50886 L262.489227,3811.71071 L271.268993,3809.98151 L271.137331,3814.63752 C273.234093,3809.84785 277.165806,3809.18336 279.392717,3810.51387 Z" id="Shape"></path>
        </g>
    </g>
</svg>