<?xml version="1.0" encoding="UTF-8"?>
<svg width="47px" height="66px" viewBox="0 0 47 66" version="1.1" xmlns="http://www.w3.org/2000/svg" xmlns:xlink="http://www.w3.org/1999/xlink">
    <!-- Generator: Sketch 56 (81588) - https://sketch.com -->
    <title>Fill 1</title>
    <desc>Created with Sketch.</desc>
    <g id="Desktop" stroke="none" stroke-width="1" fill="none" fill-rule="evenodd">
        <g id="Home" transform="translate(-120.000000, -3609.000000)" fill="#979DA2">
            <path d="M160.20913,3669.38523 C160.322333,3668.48386 160.961864,3667.37597 162.447814,3667.37597 C164.0281,3667.37597 164.630547,3668.52152 164.686498,3669.38523 L160.20913,3669.38523 Z M167,3670.47429 C167,3667.50715 165.156876,3665.47905 162.447814,3665.47905 C159.682152,3665.47905 157.745342,3667.60131 157.745342,3670.23076 C157.745342,3673.14075 159.833089,3675 162.598751,3675 C164.009233,3675 165.439232,3674.5675 166.342252,3673.74145 L165.288945,3672.20236 C164.705365,3672.76539 163.70866,3673.10373 162.86159,3673.10373 C161.319039,3673.10373 160.397151,3672.14586 160.247515,3671.00031 L167,3671.00031 L167,3670.47429 Z M152.908197,3669.12287 C151.892625,3668.91571 151.176975,3668.7092 151.176975,3668.14616 C151.176975,3667.62014 151.741688,3667.30064 152.606974,3667.30064 C153.716882,3667.30064 154.751322,3667.77081 155.297168,3668.35268 L156.25679,3666.71942 C155.353769,3666.00507 154.130658,3665.47905 152.588107,3665.47905 C150.199136,3665.47905 148.864123,3666.81293 148.864123,3668.33384 C148.864123,3670.49312 150.876402,3670.86848 152.43782,3671.16915 C153.47291,3671.37566 154.262077,3671.60101 154.262077,3672.24002 C154.262077,3672.80306 153.773484,3673.15958 152.739044,3673.15958 C151.610268,3673.15958 150.255738,3672.5394 149.596689,3671.91987 L148.5629,3673.59209 C149.521871,3674.47398 151.045555,3675 152.625841,3675 C155.146881,3675 156.558013,3673.74145 156.558013,3672.08936 C156.558013,3669.83592 154.469616,3669.4229 152.908197,3669.12287 L152.908197,3669.12287 Z M144.968384,3666.94411 L144.968384,3665.70505 L142.578763,3665.70505 L142.578763,3674.77466 L144.968384,3674.77466 L144.968384,3668.78453 C145.363943,3668.20266 146.41725,3667.75132 147.207068,3667.75132 C147.470557,3667.75132 147.696312,3667.78899 147.865466,3667.82731 L147.865466,3665.49853 C146.736691,3665.49853 145.607915,3666.1369 144.968384,3666.94411 L144.968384,3666.94411 Z M137.817738,3671.84518 C137.403311,3672.3712 136.670095,3672.87774 135.748207,3672.87774 C134.732635,3672.87774 134.074237,3672.46472 134.074237,3671.20682 L134.074237,3665.70505 L131.684616,3665.70505 L131.684616,3672.14586 C131.684616,3673.91095 132.626021,3675 134.619432,3675 C136.105382,3675 137.197074,3674.32332 137.817738,3673.6291 L137.817738,3674.77466 L140.206708,3674.77466 L140.206708,3665.70505 L137.817738,3665.70505 L137.817738,3671.84518 Z M125.512458,3667.9955 L122.671327,3667.9955 L122.671327,3664.54066 L125.512458,3664.54066 C126.565765,3664.54066 127.355583,3665.23487 127.355583,3666.26808 C127.355583,3667.31947 126.565765,3667.9955 125.512458,3667.9955 L125.512458,3667.9955 Z M125.869633,3662.2502 L120,3662.2502 L120,3674.77466 L122.671327,3674.77466 L122.671327,3670.28661 L125.869633,3670.28661 C128.578694,3670.28661 130.083511,3668.46502 130.083511,3666.28691 C130.083511,3664.08997 128.59691,3662.2502 125.869633,3662.2502 L125.869633,3662.2502 Z M130.303411,3646.43521 C131.253924,3644.21489 133.174469,3643.10245 134.552421,3641.52634 C141.249605,3646.57678 148.682608,3645.11561 152.078694,3641.50037 C156.48775,3636.80646 157.755752,3630.77542 152.528252,3623.78651 C153.770881,3622.12597 155.334252,3620.70507 156.926898,3619.32184 C163.848537,3625.08402 165.132804,3635.56804 158.785637,3644.29411 C153.228939,3651.93243 140.520293,3655.5834 130.303411,3646.43521 L130.303411,3646.43521 Z M135.645414,3622.83253 C139.888569,3619.18871 148.957158,3619.23092 151.990864,3624.09952 C146.286482,3629.66169 140.775325,3635.52193 134.893331,3640.92954 C129.696409,3636.95647 129.815467,3627.8388 135.645414,3622.83253 L135.645414,3622.83253 Z M166.957202,3632.63337 C166.910218,3619.6868 156.470834,3608.89172 143.388098,3609.00082 C130.054885,3609.11187 120.210141,3619.62511 120.044891,3632.49505 C119.877038,3645.55136 131.028169,3656.34385 143.401761,3655.69315 C156.297126,3656.44581 167.001952,3644.8539 166.957202,3632.63337 L166.957202,3632.63337 Z" id="Fill-1"></path>
        </g>
    </g>
</svg>