<?xml version="1.0" encoding="UTF-8"?>
<svg width="131px" height="25px" viewBox="0 0 131 25" version="1.1" xmlns="http://www.w3.org/2000/svg" xmlns:xlink="http://www.w3.org/1999/xlink">
    <!-- Generator: Sketch 56 (81588) - https://sketch.com -->
    <title>Fill 1</title>
    <desc>Created with Sketch.</desc>
    <g id="Desktop" stroke="none" stroke-width="1" fill="none" fill-rule="evenodd">
        <g id="Home" transform="translate(-858.000000, -3803.000000)" fill="#979DA2">
            <path d="M879.994157,3814.60604 C879.320022,3814.59795 878.763327,3815.1388 878.782518,3815.78322 C878.80056,3816.3896 879.368736,3816.92139 879.994157,3816.91769 C880.612524,3816.91411 881.171843,3816.36096 881.170043,3815.75457 C881.168234,3815.12423 880.645657,3814.61381 879.994157,3814.60604 L879.994157,3814.60604 Z M879.924447,3823.64475 C879.312477,3823.67469 878.749221,3824.27217 878.779565,3824.85898 C878.811222,3825.47103 879.389895,3826.01091 879.998749,3825.99651 C880.616789,3825.98178 881.169547,3825.42394 881.169875,3824.81464 C881.170203,3824.18721 880.559544,3823.61351 879.924447,3823.64475 L879.924447,3823.64475 Z M870.668785,3817.01315 C871.281904,3817.01444 871.82728,3816.44625 871.824828,3815.82481 C871.82236,3815.21356 871.256808,3814.63598 870.654843,3814.64828 C870.095524,3814.65977 869.442712,3815.10158 869.494051,3815.80636 C869.43123,3816.60161 870.145551,3817.01185 870.668785,3817.01315 L870.668785,3817.01315 Z M919.356758,3804.28643 C918.381313,3804.26668 917.579568,3805.02487 917.574787,3805.97176 C917.56989,3806.90586 918.319148,3807.67635 919.255556,3807.69981 C920.227229,3807.72425 921.028646,3806.96428 921.036027,3806.01141 C921.043408,3805.07812 920.291198,3804.30552 919.356758,3804.28643 L919.356758,3804.28643 Z M918.169559,3822.6239 L920.434226,3822.6239 L920.434226,3810.42638 L918.169559,3810.42638 L918.169559,3822.6239 Z M896.249178,3812.33698 C897.462949,3812.17126 898.57437,3812.40414 899.520784,3813.21881 C899.672341,3813.34925 899.825211,3813.47807 900.013509,3813.63828 C900.609897,3813.09792 901.189719,3812.57261 901.769049,3812.04778 C899.985625,3810.11728 896.743544,3809.54196 894.153782,3810.65359 C891.689335,3811.71166 890.295138,3814.28982 890.556099,3817.30655 C890.792948,3820.04671 892.593266,3822.12821 895.280457,3822.77263 C897.828229,3823.38371 900.719301,3822.51143 901.616835,3821.09474 C901.090485,3820.5416 900.575781,3820.00059 900.043033,3819.44064 C899.895249,3819.57707 899.764358,3819.70168 899.629367,3819.8216 C897.782302,3821.46178 894.797409,3820.97579 893.620543,3818.81354 C892.757125,3817.22693 892.857344,3815.62268 893.717481,3814.06244 C894.260726,3813.07656 895.116434,3812.49153 896.249178,3812.33698 L896.249178,3812.33698 Z M973.233276,3815.99344 C972.488939,3815.72301 971.70704,3815.5471 970.933507,3815.36326 C970.332526,3815.22036 969.744339,3815.07245 969.231439,3814.70735 C968.793825,3814.39598 968.573542,3813.99868 968.638987,3813.46188 C968.703776,3812.93317 969.047569,3812.63152 969.522908,3812.4768 C970.71306,3812.08937 971.824645,3812.19505 972.79599,3813.05002 C972.944923,3813.18126 973.09156,3813.3151 973.242625,3813.45072 C973.849346,3812.99726 974.419983,3812.57083 975.045239,3812.10345 C974.66733,3811.48121 974.199864,3811.00008 973.57756,3810.70942 C971.723935,3809.84378 969.840129,3809.81481 968.015207,3810.74179 C966.65562,3811.43249 966.00412,3812.60854 966.102862,3814.13203 C966.198815,3815.6107 967.098482,3816.47683 968.450853,3816.92382 C969.186333,3817.16705 969.955765,3817.30833 970.700594,3817.52648 C971.167896,3817.66323 971.638643,3817.8173 972.070187,3818.0361 C972.56849,3818.28888 972.894896,3818.69735 972.849133,3819.30341 C972.805995,3819.8763 972.451705,3820.22813 971.960128,3820.44174 C970.802781,3820.94505 969.651666,3820.95249 968.558288,3820.26858 C968.131992,3820.00204 967.745717,3819.67304 967.319749,3819.35633 C966.744848,3819.82985 966.170767,3820.30289 965.588649,3820.7824 C966.316584,3821.79888 967.22724,3822.44152 968.383767,3822.73573 C969.306233,3822.97055 970.244446,3823.01942 971.189219,3822.92378 C972.137601,3822.82781 973.044649,3822.59105 973.836881,3822.04357 C975.039334,3821.21272 975.527303,3820.05496 975.37427,3818.6297 C975.232062,3817.30526 974.462629,3816.43994 973.233276,3815.99344 L973.233276,3815.99344 Z M934.664874,3813.4703 C934.415231,3812.24522 933.801948,3811.23797 932.663792,3810.62867 C930.838706,3809.65184 927.678144,3809.88246 926.368255,3811.93887 C926.339879,3811.98337 926.284932,3812.01153 926.143708,3812.13064 L926.143708,3810.40793 L923.830982,3810.40793 L923.830982,3822.61193 L926.162078,3822.61193 L926.162078,3821.98499 C926.162078,3820.20514 926.158142,3818.42514 926.164867,3816.6453 C926.166507,3816.22114 926.178809,3815.79454 926.227852,3815.37378 C926.419595,3813.72292 927.392088,3812.60724 928.855994,3812.33229 C930.867082,3811.95457 932.248977,3812.99451 932.39873,3815.00367 C932.419889,3815.28558 932.423006,3815.56943 932.423334,3815.85232 C932.425138,3817.91537 932.424318,3819.97842 932.424318,3822.04147 L932.424318,3822.62374 L934.769521,3822.62374 C934.780674,3822.47777 934.791828,3822.39928 934.791828,3822.32095 C934.79232,3819.81286 934.797569,3817.30493 934.786251,3814.79684 C934.784119,3814.35407 934.753118,3813.90336 934.664874,3813.4703 L934.664874,3813.4703 Z M912.859966,3818.72372 C912.106115,3820.26858 910.360417,3821.03745 908.574041,3820.71994 C906.746987,3820.3953 905.547486,3819.161 905.307684,3817.34879 C905.267991,3817.04924 905.258149,3816.74564 905.237318,3816.48056 C905.265366,3816.16061 905.272255,3815.87643 905.317526,3815.59808 C905.816484,3812.53636 909.445004,3811.16676 911.893377,3813.12673 C912.219619,3813.38776 912.517321,3813.72308 912.724647,3814.08219 C913.598562,3815.5963 913.614636,3817.17708 912.859966,3818.72372 L912.859966,3818.72372 Z M909.304764,3810.07244 C905.633434,3810.07714 902.717267,3812.92265 902.71464,3816.50273 C902.711854,3820.1239 905.630154,3822.97411 909.330844,3822.96459 C912.998073,3822.95501 915.893902,3820.10497 915.891607,3816.5071 C915.889473,3812.92362 912.966089,3810.06776 909.304764,3810.07244 L909.304764,3810.07244 Z M954.301725,3815.44013 C954.343386,3813.5907 956.210134,3811.55128 958.837785,3811.99891 C960.663526,3812.30995 961.620273,3813.49069 961.675057,3815.44013 L954.301725,3815.44013 Z M964.262686,3817.37517 C964.206426,3816.58834 964.197897,3815.86397 964.09653,3815.15255 C963.681224,3812.23583 961.597966,3810.16599 958.469389,3810.07115 C955.677387,3809.98635 953.230489,3811.47036 952.257012,3813.96874 C951.581893,3815.70149 951.603872,3817.45916 952.26997,3819.18738 C952.875379,3820.75845 953.978927,3821.89582 955.582581,3822.49039 C957.737353,3823.2892 959.845871,3823.13044 961.862535,3822.02965 C962.563406,3821.64692 963.142408,3821.11287 963.638742,3820.44013 C963.039237,3819.98408 962.476802,3819.55636 961.890911,3819.11083 C961.134437,3819.87792 960.403057,3820.62348 959.322801,3820.84552 C958.234507,3821.06917 957.20559,3820.88436 956.231621,3820.37491 C954.994558,3819.72774 954.231523,3818.5305 954.359625,3817.37517 L964.262686,3817.37517 Z M982.769909,3815.9724 C984.700461,3814.11132 986.567701,3812.31125 988.520724,3810.42848 L985.114784,3810.42848 C983.439944,3812.06348 981.692113,3813.76936 979.939526,3815.48026 L979.939526,3803.14826 C979.844884,3803.12042 979.789116,3803.09016 979.733021,3803.09 C979.03707,3803.0866 978.34112,3803.08789 977.584481,3803.08789 L977.584481,3822.61484 L979.966918,3822.61484 L979.966918,3816.3464 C981.930767,3818.51544 983.807355,3820.58853 985.635885,3822.60869 L989,3822.60869 C986.892795,3820.36406 984.839717,3818.17705 982.769909,3815.9724 L982.769909,3815.9724 Z M946.875413,3818.46123 C946.177986,3820.03862 944.576628,3820.94747 942.806327,3820.78159 C940.985506,3820.61086 939.659379,3819.48661 939.266379,3817.75451 C939.173214,3817.34377 939.145002,3816.9188 939.114986,3816.70162 C939.138769,3815.3953 939.380047,3814.3607 940.154072,3813.52953 C941.392283,3812.19958 942.957064,3811.98467 944.606645,3812.49525 C946.249829,3813.00389 947.018769,3814.28043 947.219205,3815.90848 C947.326476,3816.78124 947.236264,3817.64494 946.875413,3818.46123 L946.875413,3818.46123 Z M947.260703,3812.03613 C947.101601,3811.92172 947.045505,3811.8955 947.009092,3811.8531 C946.003794,3810.68288 944.685376,3810.17408 943.17013,3810.08475 C940.61793,3809.93424 938.369501,3811.20609 937.283996,3813.39068 C936.619538,3814.72823 936.461255,3816.14151 936.673337,3817.58798 C937.01959,3819.94767 938.253044,3821.67718 940.549368,3822.56095 C942.754823,3823.40976 945.440538,3822.93948 946.946271,3821.23311 C947.012864,3821.15769 947.119971,3821.11724 947.279402,3821.0148 L947.279402,3822.61128 L949.574414,3822.61128 L949.574414,3803.12317 L947.260703,3803.12317 L947.260703,3812.03613 Z M879.479124,3803.04452 C878.636045,3803.17884 878.03326,3803.65156 877.392094,3804.1233 C877.021565,3804.39583 876.606095,3804.65654 876.169465,3804.78471 C874.972424,3805.13605 873.90775,3804.84508 873.013988,3803.97199 C871.686877,3802.67538 869.64118,3802.71406 868.40543,3803.86129 C868.271587,3803.98542 868.112484,3804.08236 867.974213,3804.20228 C866.697785,3805.31018 864.720322,3805.04931 863.725193,3804.0296 C862.849638,3803.13207 861.765445,3802.83899 860.523954,3803.08676 C859.442385,3803.30281 858.287334,3804.36605 858.105433,3805.43091 C857.898927,3806.63916 858.059014,3807.78397 859.036756,3808.66628 C860.345004,3809.84702 860.34156,3811.94939 859.051026,3813.09582 C857.751799,3814.25017 857.622876,3816.63284 859.057423,3817.922 C860.321549,3819.05791 860.330899,3821.16125 859.036756,3822.36092 C858.354256,3822.99369 857.956828,3823.7815 858.003738,3824.75444 C858.068035,3825.12973 858.074924,3825.52589 858.205815,3825.87691 C859.091868,3828.25489 862.010824,3828.51932 863.422407,3827.24586 C863.603652,3827.08241 863.789326,3826.92365 863.974181,3826.76392 C864.534976,3826.27939 865.183851,3826.02661 865.933765,3826.01835 C866.849998,3826.00816 867.603849,3826.3595 868.233205,3826.99615 C869.188804,3827.96278 870.358289,3828.1764 871.627664,3827.85597 C872.87014,3827.54217 873.82541,3826.33279 873.929729,3825.06791 C874.042249,3823.7043 873.353844,3822.43407 872.18075,3821.84176 C870.921709,3821.20576 869.472892,3821.37698 868.417075,3822.32063 C867.606473,3823.04515 866.708938,3823.47951 865.581443,3823.3706 C863.905619,3823.20893 862.503877,3821.49835 862.681842,3819.8284 C862.773203,3818.97262 863.172599,3818.31493 863.740612,3817.70094 C864.811191,3816.54367 864.905832,3814.91142 864.00108,3813.62598 C863.82656,3813.37773 863.613166,3813.1565 863.423883,3812.91796 C862.815029,3812.15039 862.527004,3811.29494 862.719896,3810.31746 C862.972491,3809.03736 863.741596,3808.16314 864.969965,3807.73687 C866.178652,3807.31724 867.246442,3807.61873 868.19548,3808.47791 C868.59422,3808.83896 869.067919,3809.18803 869.57147,3809.35407 C870.911539,3809.79571 872.104972,3809.47124 873.106661,3808.46496 C874.386534,3807.1792 876.422717,3807.34944 877.528725,3808.46253 C877.904338,3808.84041 878.391979,3809.18447 878.894218,3809.35229 C881.328157,3810.16566 883.696979,3808.17366 883.238863,3805.66185 C882.92279,3803.92894 881.23532,3802.76471 879.479124,3803.04452 L879.479124,3803.04452 Z" id="Fill-1"></path>
        </g>
    </g>
</svg>