<?xml version="1.0" encoding="UTF-8"?>
<svg width="119px" height="42px" viewBox="0 0 119 42" version="1.1" xmlns="http://www.w3.org/2000/svg" xmlns:xlink="http://www.w3.org/1999/xlink">
    <!-- Generator: Sketch 56 (81588) - https://sketch.com -->
    <title>Shape</title>
    <desc>Created with Sketch.</desc>
    <g id="Desktop" stroke="none" stroke-width="1" fill="none" fill-rule="evenodd">
        <g id="Home" transform="translate(-238.000000, -3621.000000)" fill="#979DA2" fill-rule="nonzero">
            <path d="M333.397148,3645.09849 C334.479655,3644.87256 336.108603,3644.40414 337.2832,3643.98576 C337.040002,3644.74214 336.824066,3645.85037 336.581408,3646.93131 L336.149266,3648.877 L336.20325,3648.877 C339.685489,3644.85051 341.331732,3643.95873 342.573364,3643.95873 C343.302418,3643.95873 343.788004,3644.33679 343.815266,3645.14749 C343.842258,3645.57987 343.680306,3646.33652 343.356402,3647.55258 L342.168754,3651.93037 C342.033794,3652.36275 341.84485,3653.01131 341.871842,3653.44369 C341.871842,3653.79499 342.060786,3653.93011 342.276722,3653.93011 C342.890932,3653.93011 343.65073,3652.81287 344.026973,3652.21329 C344.015896,3652.10378 344.008262,3651.99154 344.00421,3651.8766 C343.86925,3647.76904 347.701845,3643.93171 350.85991,3643.93171 C352.20951,3643.93171 353.478135,3644.52622 353.532119,3645.98576 C353.639817,3649.2556 349.051176,3650.25546 346.028341,3650.33653 C345.920373,3650.68784 345.893381,3651.01212 345.920373,3651.55259 C345.974357,3652.90376 346.784117,3654.06577 348.484613,3654.06577 C349.942452,3654.01145 351.40002,3652.84944 352.155526,3651.68743 L352.533414,3651.93064 C351.588694,3653.84931 349.672262,3655.38964 347.431925,3655.38964 C345.883904,3655.38964 344.566474,3654.52464 344.143235,3652.87569 C343.321703,3654.17886 342.368528,3655.41667 341.088534,3655.41667 C340.360019,3655.41667 339.847171,3655.03861 339.820179,3654.22791 C339.792917,3653.68744 339.982131,3652.93105 340.225059,3652.09306 L341.30474,3648.36382 C341.4397,3647.98522 341.817588,3646.63405 341.790596,3646.03981 C341.763604,3645.63446 341.547668,3645.44529 341.196772,3645.44529 C340.441265,3645.44529 339.199363,3646.55325 335.960322,3649.90416 L334.907904,3655.01132 L333.018463,3655.01132 C333.288383,3653.90335 333.612018,3652.52516 333.9092,3651.20101 L334.637984,3647.9582 C334.71896,3647.63392 335.069856,3646.17492 335.069856,3645.95847 C335.069856,3645.60716 334.745952,3645.55312 334.395056,3645.55312 C334.197259,3645.55312 333.72769,3645.59846 333.401253,3645.64762 C333.31222,3650.82057 329.613826,3655.41667 323.732943,3655.41667 C319.846364,3655.41667 317.282123,3652.82242 317.147163,3648.84997 C316.958219,3643.71552 320.979758,3638.5 326.810302,3638.5 C330.696881,3638.5 333.261121,3641.09425 333.396081,3645.06669 C333.396452,3645.07729 333.396808,3645.08789 333.397148,3645.09849 L333.397148,3645.09849 Z M316.313742,3651.33333 C316.500552,3651.99365 316.794111,3652.62646 317.140777,3653.20424 C317.087669,3653.23148 317.060982,3653.23148 317.034295,3653.25927 C311.003001,3656.69844 304.971708,3660.05508 299.741295,3662.86144 L299.527531,3662.97149 C299.42105,3663.02625 299.314034,3662.99901 299.26066,3662.91647 C299.207552,3662.80669 299.233973,3662.69636 299.314034,3662.64133 L299.554218,3662.50377 C305.718948,3658.59659 311.456683,3654.88228 316.313742,3651.33333 Z M348.631075,3624.92532 C352.069268,3628.81056 344.786494,3635.80951 333.956688,3643.16667 C333.469346,3641.23782 332.386366,3639.69475 330.897267,3638.70277 C333.658597,3635.03797 334.254237,3631.92427 331.844875,3629.49943 C323.966191,3621.56362 287.442669,3625.97241 269.898383,3629.14122 L269.410771,3629.25144 C269.302473,3629.25144 269.22152,3629.19633 269.194175,3629.08611 C269.194175,3628.97589 269.248595,3628.89323 269.356893,3628.86567 L269.844234,3628.75545 C291.04358,3624.04356 340.887764,3616.21797 348.631075,3624.92532 Z M319.456296,3649.21249 C319.562232,3652.30132 321.416122,3654.83333 323.852928,3654.83333 C328.567106,3654.83333 330.553416,3648.76697 330.420996,3644.70446 C330.315059,3641.61562 328.407936,3639.08333 325.998144,3639.08333 C321.919056,3639.08333 319.323875,3645.12187 319.456296,3649.21249 Z M261.684466,3647.83333 C261.481512,3647.91026 261.228135,3647.98744 260.924337,3648.03846 C260.620285,3648.11564 260.03752,3648.21795 259.226716,3648.34615 C258.669288,3648.44872 258.263886,3648.55128 258.035847,3648.73077 C257.807808,3648.88487 257.68112,3649.08974 257.655782,3649.32051 C257.605107,3649.57692 257.68112,3649.78231 257.909159,3649.9359 C258.137197,3650.08949 258.491924,3650.16667 258.998677,3650.16667 C259.378741,3650.16667 259.758806,3650.11538 260.13887,3649.98718 C260.518935,3649.85897 260.822987,3649.70487 261.076363,3649.5 C261.253726,3649.34615 261.380414,3649.14128 261.481765,3648.91026 C261.507103,3648.73077 261.583115,3648.37179 261.684466,3647.83333 Z M266.883022,3644.2642 C266.855505,3644.72227 266.774044,3645.15366 266.665066,3645.85397 L265.793243,3650.65024 C265.711509,3651.08163 265.874976,3651.40471 266.283643,3651.64721 L266.256399,3651.83583 L261.297904,3651.83583 L261.243415,3650.62329 C260.535058,3651.05442 259.663235,3651.40444 258.873145,3651.62027 C258.083328,3651.80862 257.456432,3651.91667 256.502876,3651.91667 C254.895724,3651.91667 253.996656,3651.75499 253.369761,3651.21609 C252.715893,3650.65024 252.416204,3650.273 252.443448,3649.49159 C252.470693,3649.03352 252.688376,3648.46767 253.042827,3648.06349 C253.397005,3647.65931 253.860161,3647.38985 254.350562,3647.14735 C254.867935,3646.90511 255.467585,3646.74317 256.339409,3646.60844 C257.211232,3646.47371 258.437234,3646.33899 260.071902,3646.20426 C260.916481,3646.12342 261.461371,3645.93481 261.706571,3645.85397 C262.060749,3645.71925 262.169727,3645.58452 262.223944,3645.31507 C262.30595,3644.82978 262.169727,3644.53365 261.488615,3644.39893 C259.717724,3644.04864 256.366653,3644.61449 254.650251,3645.04561 L255.576563,3642.53943 C257.837855,3642.21635 259.990169,3642.00052 262.223944,3642.00052 C265.765998,3641.97385 266.910266,3642.97082 266.883022,3644.2642 Z M280.747573,3651.91667 L282.436709,3642 L287.101942,3642 L285.412806,3651.91667 L280.747573,3651.91667 Z M283.075488,3639.95833 C283.213704,3639.16038 284.485571,3638.5 285.923021,3638.5 C287.360194,3638.5 288.382995,3639.16038 288.244779,3639.95833 C288.106562,3640.75629 286.807329,3641.41667 285.397522,3641.41667 C283.960072,3641.41667 282.909628,3640.75629 283.075488,3639.95833 L283.075488,3639.95833 Z M304.432039,3647.83333 C304.201705,3647.91026 303.913787,3647.9872 303.568285,3648.03848 C303.222784,3648.11542 302.560573,3648.21799 301.610444,3648.34621 C300.977025,3648.44853 300.516357,3648.55136 300.257231,3648.73087 C300.026896,3648.88473 299.882937,3649.08963 299.825354,3649.32068 C299.76777,3649.57711 299.882937,3649.78227 300.113272,3649.93587 C300.372398,3650.08999 300.775483,3650.16667 301.38011,3650.16667 C301.811987,3650.16667 302.243863,3650.11538 302.67574,3649.98716 C303.107617,3649.85894 303.453118,3649.70508 303.741036,3649.50018 C303.942291,3649.34606 304.08625,3649.14117 304.172913,3648.91012 C304.230496,3648.73087 304.316872,3648.37185 304.432039,3647.83333 Z M309.052924,3644.33196 C309.025628,3644.78758 308.94374,3645.2164 308.80726,3645.91296 L307.961085,3650.68382 C307.879197,3651.11263 308.042973,3651.43425 308.452412,3651.67519 L308.425116,3651.83626 L303.45725,3651.83626 L303.429954,3650.63021 C302.692962,3651.05903 301.819491,3651.40718 301.055204,3651.62185 C300.263621,3651.83626 299.635813,3651.91667 298.680454,3651.91667 C297.069992,3651.91667 296.169225,3651.75586 295.541418,3651.21984 C294.886314,3650.65675 294.586059,3650.2818 294.613355,3649.50457 C294.640923,3649.04895 294.859018,3648.48613 295.213866,3648.08411 C295.568714,3647.6821 296.032745,3647.41409 296.524073,3647.17288 C297.042696,3646.93193 297.64348,3646.77086 298.516952,3646.61005 C299.39015,3646.47605 300.618468,3646.34204 302.256227,3646.20804 C303.102675,3646.12763 303.621025,3645.94003 303.866689,3645.85962 C304.221537,3645.72562 304.358017,3645.59161 304.412609,3645.29653 C304.494496,3644.81411 304.330721,3644.51957 303.675617,3644.38556 C301.874083,3644.03688 298.543975,3644.59997 296.824328,3645.02852 L297.752118,3642.53602 C300.04498,3642.21441 302.147043,3642 304.412336,3642 C307.933789,3642.05387 309.08022,3643.04551 309.052924,3644.33196 Z M251.44396,3648.76002 L250.832578,3652.2796 C249.317148,3652.41708 247.695922,3652.49957 246.154176,3652.49957 C243.469412,3652.52707 237.408756,3651.23472 238.04672,3646.09284 C238.658102,3641.03344 243.73523,3638.55874 249.025013,3638.50375 C250.593341,3638.47625 251.789523,3638.58624 253.597087,3639.30115 L253.012287,3642.68325 C251.683196,3641.88584 250.699668,3641.66587 249.423741,3641.66587 C245.383303,3641.66587 243.814976,3644.60802 243.73523,3645.98285 C243.655485,3648.0726 245.409885,3649.19997 247.616443,3649.19997 C249.104759,3649.19997 249.928796,3649.06248 251.44396,3648.76002 Z M289.849846,3642.14142 L290.171323,3640.17551 L295.04705,3639.08333 L294.538046,3642.14142 L296.92233,3642.14142 L296.466905,3644.10734 L294.16299,3644.10734 L292.769925,3651.91667 C292.769925,3651.91667 288.081725,3651.88909 288.054936,3651.91667 L289.447733,3644.13492 L287.679612,3644.13492 L288.027878,3642.169 L289.849578,3642.169 L289.849578,3642.14142 L289.849846,3642.14142 Z M313.763131,3651.91667 L309.053398,3651.91667 L311.408,3638.5 L315.985437,3638.63525 L313.763131,3651.91667 Z M274.829537,3644.91667 C274.186824,3644.91667 273.627944,3645.10881 273.097007,3645.4931 C272.594014,3645.87739 272.258686,3646.42638 272.147189,3647.16779 C272.007469,3648.01872 272.091301,3648.62261 272.42663,3649.0069 C272.761958,3649.39091 273.264951,3649.58333 273.935328,3649.58333 C274.382712,3649.58333 274.829537,3649.50099 275.164866,3649.33629 C275.584026,3649.11669 275.863466,3648.8971 276.114963,3648.54053 C276.394403,3648.15624 276.562067,3647.7445 276.64562,3647.25041 C276.78534,3646.48183 276.673843,3645.90539 276.310292,3645.5211 C275.947299,3645.10881 275.47225,3644.91667 274.829537,3644.91667 Z M266.305825,3655.41667 L268.601805,3642.13918 L272.734569,3642.13918 L272.41043,3643.83742 C272.76158,3643.3361 273.328552,3642.91857 274.138898,3642.58482 C274.922232,3642.2508 275.840894,3642 276.813039,3642 C277.8935,3642 278.541777,3642.05567 279.352123,3642.50104 C280.162469,3642.94668 280.702699,3643.55906 281.026568,3644.39412 C281.324235,3645.20107 281.405269,3646.0918 281.2432,3647.09388 C280.973085,3648.73617 280.18975,3650.0166 278.919939,3650.963 C277.650127,3651.90941 276.516183,3652.15992 274.922232,3652.15992 C274.35499,3652.15992 273.868783,3652.10425 273.46361,3651.99291 C273.085719,3651.88157 272.76131,3651.77023 272.518206,3651.60322 C272.302114,3651.4362 272.059281,3651.24136 271.735142,3650.8795 L270.97882,3655.41667 L266.305825,3655.41667 Z M351.800051,3645.61925 C351.771876,3644.8425 351.377433,3644.33333 350.532197,3644.33333 C348.531805,3644.33333 346.390822,3648.08314 346.024272,3649.58333 C349.292799,3649.58333 351.856681,3647.70843 351.800051,3645.61925 Z M353.533981,3642 C353.533981,3640.98387 354.338097,3640.25 355.280854,3640.25 C356.223612,3640.25 357,3640.98387 357,3642 C357,3643.01613 356.196161,3643.75 355.280854,3643.75 C354.310092,3643.75 353.533981,3643.01613 353.533981,3642 Z M355.556289,3643.75 C356.364767,3643.75 357,3643.12702 357,3642.27751 C357,3641.45631 356.364767,3640.83333 355.556289,3640.83333 C354.747811,3640.83333 354.112578,3641.45631 354.112578,3642.27751 C354.083993,3643.12702 354.719226,3643.75 355.556289,3643.75 Z M354.929281,3643.16667 L354.68932,3643.16667 L354.68932,3641.41667 L355.277779,3641.41667 C355.648289,3641.41667 355.822647,3641.56455 355.822647,3641.90962 C355.822647,3642.23005 355.648289,3642.35329 355.408765,3642.40258 L355.84466,3643.16667 L355.583123,3643.16667 L355.169023,3642.40258 L354.907486,3642.40258 L354.907486,3643.16667 L354.929281,3643.16667 L354.929281,3643.16667 Z M355.527976,3642 C355.695446,3642 355.84466,3641.97348 355.84466,3641.68182 C355.84466,3641.44318 355.695632,3641.41667 355.546418,3641.41667 L355.26699,3641.41667 L355.26699,3642 L355.527976,3642 Z" id="Shape"></path>
        </g>
    </g>
</svg>