<?xml version="1.0" encoding="UTF-8"?>
<svg width="58px" height="10px" viewBox="0 0 58 10" version="1.1" xmlns="http://www.w3.org/2000/svg" xmlns:xlink="http://www.w3.org/1999/xlink">
    <!-- Generator: Sketch 56 (81588) - https://sketch.com -->
    <title>Combined Shape</title>
    <desc>Created with Sketch.</desc>
    <g id="Assets" stroke="none" stroke-width="1" fill="none" fill-rule="evenodd">
        <g id="Icon-Animation-Data" fill="#C0CC1C">
            <path d="M5,10 C2.23857625,10 0,7.76142375 0,5 C0,2.23857625 2.23857625,0 5,0 C7.76142375,0 10,2.23857625 10,5 C10,7.76142375 7.76142375,10 5,10 Z M29,10 C26.2385763,10 24,7.76142375 24,5 C24,2.23857625 26.2385763,0 29,0 C31.7614237,0 34,2.23857625 34,5 C34,7.76142375 31.7614237,10 29,10 Z M17,10 C14.2385763,10 12,7.76142375 12,5 C12,2.23857625 14.2385763,0 17,0 C19.7614237,0 22,2.23857625 22,5 C22,7.76142375 19.7614237,10 17,10 Z M53,10 C50.2385763,10 48,7.76142375 48,5 C48,2.23857625 50.2385763,0 53,0 C55.7614237,0 58,2.23857625 58,5 C58,7.76142375 55.7614237,10 53,10 Z M41,10 C38.2385763,10 36,7.76142375 36,5 C36,2.23857625 38.2385763,0 41,0 C43.7614237,0 46,2.23857625 46,5 C46,7.76142375 43.7614237,10 41,10 Z" id="Combined-Shape"></path>
        </g>
    </g>
</svg>