<?xml version="1.0" encoding="UTF-8"?>
<svg width="131px" height="16px" viewBox="0 0 131 16" version="1.1" xmlns="http://www.w3.org/2000/svg" xmlns:xlink="http://www.w3.org/1999/xlink">
    <!-- Generator: Sketch 56 (81588) - https://sketch.com -->
    <title>Fill 1</title>
    <desc>Created with Sketch.</desc>
    <g id="Desktop" stroke="none" stroke-width="1" fill="none" fill-rule="evenodd">
        <g id="Home" transform="translate(-324.000000, -3897.000000)" fill="#979DA2">
            <path d="M335.752152,3900.6001 L335.752152,3903.09621 L337.027552,3903.09621 C337.0275,3902.26508 337.0275,3901.4339 337.0275,3900.6001 L335.752152,3900.6001 Z M337.047663,3903.11686 L337.047663,3903.13206 C337.047663,3903.13206 337.049063,3903.13076 337.050063,3903.12976 L337.047863,3903.13196 L337.063463,3903.13196 C337.063363,3903.12686 337.063363,3903.12186 337.063363,3903.11686 L337.047663,3903.11686 Z M326.568151,3900.59867 L325.291602,3900.59867 C325.291602,3901.2921 325.293691,3901.96349 325.290087,3902.63487 C325.289304,3902.784 325.269194,3902.93308 325.257756,3903.08215 C325.694102,3903.08241 326.130082,3903.08241 326.568151,3903.08241 L326.568151,3900.59867 Z M325.284076,3903.10466 C325.280876,3903.10466 325.277676,3903.10456 325.274476,3903.10456 C325.274076,3903.10436 325.276276,3903.10626 325.278476,3903.10826 L325.273876,3903.10416 C325.274576,3903.10696 325.275676,3903.10986 325.276476,3903.11276 C325.278776,3903.11266 325.281076,3903.11256 325.283376,3903.11256 C325.283576,3903.10986 325.283876,3903.10726 325.284076,3903.10466 L325.284076,3903.10466 Z M335.734498,3907.18318 C335.742385,3907.86369 335.739094,3908.54426 335.73596,3909.22487 C335.735595,3909.31379 335.712978,3909.40267 335.70086,3909.49205 C336.137311,3909.49231 336.573448,3909.49231 337.008906,3909.49231 L337.008906,3906.93087 C336.659056,3906.94354 336.308736,3906.96395 335.958468,3906.96379 C335.790125,3906.96374 335.732513,3907.01472 335.734498,3907.18318 L335.734498,3907.18318 Z M325.292532,3906.97443 C325.294632,3906.97243 325.304332,3906.96273 325.304332,3906.96273 L325.291332,3906.96273 C325.291232,3906.96713 325.291232,3906.97143 325.291232,3906.97573 L325.304432,3906.97573 L325.304432,3906.96283 C325.304332,3906.96273 325.294732,3906.97243 325.292532,3906.97443 L325.292532,3906.97443 Z M325.277395,3906.94821 C325.277395,3907.79646 325.277395,3908.64472 325.277395,3909.51615 L326.570397,3909.51615 C326.570606,3908.67815 326.570606,3907.84026 326.570606,3906.94815 C326.133686,3906.94815 325.705488,3906.94815 325.277395,3906.94821 L325.277395,3906.94821 Z M385.462891,3902.93985 C385.458817,3902.71462 385.436305,3902.48979 385.421837,3902.26477 C384.828481,3902.26533 384.234551,3902.26538 383.638062,3902.26538 C383.638062,3902.92415 383.638062,3903.53185 383.637749,3904.13897 C384.237947,3904.13856 384.838667,3904.13856 385.464771,3904.13856 C385.464771,3903.70374 385.469786,3903.32169 385.462891,3902.93985 L385.462891,3902.93985 Z M383.665072,3904.15953 L383.650672,3904.15953 C383.650772,3904.15963 383.651372,3904.16033 383.651472,3904.16053 L383.651472,3904.17513 L383.665072,3904.17513 L383.665072,3904.15953 Z M385.442537,3902.28066 C385.442637,3902.28446 385.443037,3902.28816 385.443237,3902.29186 L385.454337,3902.29186 C385.453237,3902.29076 385.442537,3902.28066 385.442537,3902.28066 L385.442537,3902.28066 Z M408.029298,3909.03026 C408.034678,3909.23144 408.030291,3909.43287 408.030291,3909.63769 L409.874811,3909.63769 L409.874811,3907.84221 L407.988349,3907.84221 C408.002765,3908.2379 408.018695,3908.634 408.029298,3909.03026 L408.029298,3909.03026 Z M387.328617,3900.45497 L385.472867,3900.45497 C385.472867,3900.91621 385.476576,3901.36636 385.470778,3901.81646 C385.468898,3901.96415 385.443043,3902.11154 385.427687,3902.25903 L387.328617,3902.25903 L387.328617,3900.45497 Z M385.454413,3902.28092 L385.442513,3902.28092 L385.453213,3902.29102 C385.453613,3902.28762 385.454113,3902.28432 385.454413,3902.28092 L385.454413,3902.28092 Z M325.253786,3903.08631 C324.935954,3903.09697 324.617653,3903.12287 324.300552,3903.11262 C324.080551,3903.10544 323.997398,3903.15482 324.000062,3903.39067 C324.012493,3904.49077 324.005181,3905.59103 324.006539,3906.69123 C324.006643,3906.77221 324.019962,3906.85323 324.027797,3906.94154 L325.270552,3906.94154 C325.273216,3905.68779 325.276141,3904.43405 325.277552,3903.18031 C325.277604,3903.14903 325.26277,3903.11764 325.253786,3903.08631 L325.253786,3903.08631 Z M337.030306,3906.9582 C337.033306,3906.958 337.036306,3906.9579 337.039306,3906.9578 C337.039306,3906.9576 337.038706,3906.9569 337.038506,3906.9567 C337.039106,3906.953 337.040006,3906.9495 337.040706,3906.946 L337.030306,3906.946 L337.030306,3906.9582 Z M338.325308,3903.10395 L337.035805,3903.10395 C337.037424,3904.3299 337.039409,3905.55585 337.039514,3906.78179 C337.039514,3906.82944 337.023687,3906.87697 337.014338,3906.92462 L338.331576,3906.92462 L338.331576,3905.6681 L339.617632,3905.6681 L339.617632,3904.41477 L338.325308,3904.41477 L338.325308,3903.10395 Z M385.481172,3909.63631 L387.336765,3909.63631 L387.336765,3907.82031 L385.481172,3907.82031 L385.481172,3909.63631 Z M383.640152,3905.96205 C383.639734,3906.5699 383.639734,3907.17759 383.639734,3907.81641 L385.46357,3907.81641 L385.46357,3905.96205 L383.640152,3905.96205 Z M385.479405,3907.84652 L385.513105,3907.84652 L385.513105,3907.83892 L385.479405,3907.83892 L385.479405,3907.84652 Z M383.667773,3905.97491 C383.663173,3905.97491 383.658573,3905.97491 383.653873,3905.97501 C383.653873,3905.98001 383.653973,3905.98501 383.653973,3905.99011 L383.666973,3905.99011 L383.666973,3905.97581 L383.667773,3905.97491 Z M379.836724,3904.14733 L379.836724,3900.46077 L377.994658,3900.46077 L377.994658,3909.62944 L379.856206,3909.62944 L379.856206,3905.96656 C379.99765,3905.96656 380.10974,3905.96682 380.22183,3905.96646 C381.358972,3905.96246 382.496167,3905.95836 383.633309,3905.95431 C383.632474,3905.35185 383.631533,3904.74944 383.630645,3904.14697 C382.375354,3904.14733 381.119645,3904.14733 379.836724,3904.14733 L379.836724,3904.14733 Z M368.587993,3902.26851 L376.057845,3902.26851 L376.057845,3900.45713 L366.71673,3900.45713 L366.71673,3909.63703 L376.058001,3909.63703 L376.058001,3907.81374 L368.587993,3907.81374 L368.587993,3902.26851 Z M445.639351,3900.45708 L445.639351,3909.6319 L447.498652,3909.6319 L447.498652,3902.2979 L453.155219,3902.2979 L453.155219,3909.63318 L455,3909.63318 L455,3900.45708 L445.639351,3900.45708 Z M411.807707,3909.64031 L413.659383,3909.64031 L413.659383,3909.28046 C413.659383,3907.04128 413.662047,3904.80205 413.6551,3902.56292 C413.654421,3902.34821 413.698191,3902.26682 413.940026,3902.26836 C415.637408,3902.27903 417.334843,3902.2739 419.03233,3902.27472 C419.115744,3902.27477 419.199263,3902.28338 419.308219,3902.28944 L419.308219,3909.63636 L421.153366,3909.63636 L421.153366,3900.45754 L411.807707,3900.45754 L411.807707,3909.64031 Z M351.657416,3904.11077 L345.998342,3904.11077 L345.998342,3900.46297 L344.153665,3900.46297 L344.153665,3909.63769 L346.00905,3909.63769 L346.00905,3905.9819 L351.660027,3905.9819 L351.660027,3909.63723 L353.504913,3909.63723 L353.504913,3900.46379 L351.657416,3900.46379 L351.657416,3904.11077 Z M402.405795,3904.11092 L408.015144,3904.11092 L408.015144,3902.294 L402.405795,3902.294 L402.405795,3904.11092 Z M408.021516,3905.96036 L409.874497,3905.96036 L409.874497,3900.46256 L400.519228,3900.46256 L400.519228,3900.81118 C400.519228,3903.63949 400.519176,3906.46779 400.519385,3909.2961 C400.519385,3909.37297 400.506013,3909.45477 400.528525,3909.52508 C400.544508,3909.57508 400.609955,3909.64503 400.654196,3909.64569 C401.21757,3909.65385 401.781205,3909.65103 402.387253,3909.65103 L402.387253,3905.98395 L406.149365,3905.98395 L406.149365,3907.81272 C406.292533,3907.81272 406.411831,3907.81097 406.530972,3907.81297 C407.015424,3907.82108 407.499875,3907.83031 407.984327,3907.83913 C407.996758,3907.56077 408.014882,3907.28251 408.020001,3907.004 C408.026269,3906.66503 408.021516,3906.32579 408.021516,3905.96036 L408.021516,3905.96036 Z M391.135701,3905.95749 L394.866631,3905.95749 L394.866631,3904.1319 L391.128128,3904.1319 L391.128128,3902.26949 L398.590353,3902.26949 L398.590353,3900.45846 L389.269296,3900.45846 L389.269296,3909.63164 L398.597927,3909.63164 L398.597927,3907.81682 L391.135701,3907.81682 L391.135701,3905.95749 Z M357.300297,3904.11959 L362.911892,3904.11959 L362.911892,3902.28959 L357.300297,3902.28959 L357.300297,3904.11959 Z M355.43666,3909.63364 L357.291418,3909.63364 L357.291418,3905.98651 L362.942813,3905.98651 L362.942813,3909.6379 L364.777984,3909.6379 L364.777984,3900.45723 L355.43666,3900.45723 L355.43666,3909.63364 Z M436.228611,3907.80667 L441.853943,3907.80667 L441.853943,3902.29662 L436.228611,3902.29662 L436.228611,3907.80667 Z M434.36581,3909.63308 L443.718102,3909.63308 L443.718102,3900.45908 L434.36581,3900.45908 L434.36581,3909.63308 Z M424.945982,3907.80097 L430.568806,3907.80097 L430.568806,3902.29328 L424.945982,3902.29328 L424.945982,3907.80097 Z M423.086941,3909.632 L432.43563,3909.632 L432.43563,3900.4601 L423.086941,3900.4601 L423.086941,3909.632 Z M326.59717,3909.54549 C326.60117,3909.54119 326.60557,3909.53659 326.60557,3909.53659 L326.59077,3909.53659 L326.59077,3909.55239 L326.59037,3909.55269 L326.60587,3909.55269 C326.60577,3909.54739 326.60567,3909.54199 326.60557,3909.53659 L326.59717,3909.54549 Z M335.696264,3909.49538 C335.421106,3909.50492 335.146679,3909.52118 334.872095,3909.52333 C334.301461,3909.52785 333.730775,3909.52467 333.125093,3909.52467 L333.125093,3910.79256 L329.185809,3910.79256 L329.185809,3909.52441 L326.578284,3909.52441 C326.586589,3910.02159 326.60158,3910.51872 326.601371,3911.01579 C326.60111,3911.67723 326.588835,3912.33862 326.581784,3913 L335.72238,3913 C335.72191,3912.04297 335.72285,3911.08595 335.71982,3910.12892 C335.719194,3909.91764 335.704569,3909.70651 335.696264,3909.49538 L335.696264,3909.49538 Z M326.603042,3900.22595 L326.603042,3900.53092 L329.196256,3900.53092 C329.196256,3900.15749 329.188891,3899.8081 329.202837,3899.45949 C329.205448,3899.39477 329.291474,3899.28082 329.342714,3899.27877 C329.722597,3899.26333 330.10342,3899.27036 330.51318,3899.27036 L330.51318,3905.65954 L331.808272,3905.65954 L331.808272,3905.34359 C331.808272,3903.43026 331.80822,3901.51697 331.808324,3899.60364 C331.808324,3899.53528 331.793282,3899.46149 331.814958,3899.40036 C331.832978,3899.34964 331.89388,3899.27826 331.937337,3899.27713 C332.3261,3899.26759 332.715228,3899.27159 333.134285,3899.27159 L333.134285,3900.53123 L335.72238,3900.53123 L335.72238,3897 L326.581784,3897 C326.588835,3897.09303 326.601945,3897.18605 326.602102,3897.27908 C326.603617,3898.26138 326.603042,3899.24364 326.603042,3900.22595 L326.603042,3900.22595 Z" id="Fill-1"></path>
        </g>
    </g>
</svg>