<?xml version="1.0" encoding="UTF-8"?>
<svg width="109px" height="25px" viewBox="0 0 109 25" version="1.1" xmlns="http://www.w3.org/2000/svg" xmlns:xlink="http://www.w3.org/1999/xlink">
    <!-- Generator: Sketch 56 (81588) - https://sketch.com -->
    <title>Shape</title>
    <desc>Created with Sketch.</desc>
    <g id="Desktop" stroke="none" stroke-width="1" fill="none" fill-rule="evenodd">
        <g id="Home" transform="translate(-430.000000, -3803.000000)" fill="#979DA2" fill-rule="nonzero">
            <path d="M450.002911,3803 C452.088997,3802.99152 454.182967,3804.06027 455.252042,3806.21254 L455.697365,3807.10228 L455.697365,3823.88563 L455.289941,3824.74727 C454.845161,3825.68536 453.692846,3826.92515 452.878563,3827.34157 C451.623226,3827.98354 449.655206,3828.18746 448.420592,3827.80049 C446.697883,3827.26054 445.548482,3826.28251 444.805893,3824.73322 L444.327408,3823.73578 L444.327408,3807.25213 L444.805893,3806.25468 C445.841633,3804.09376 447.916826,3803.00869 450.002911,3803 Z M450.097661,3807.0835 C449.569548,3807.08004 448.972542,3807.43178 448.638516,3807.97329 C448.356091,3808.43114 448.345338,3808.77646 448.344792,3815.51269 L448.344792,3822.56975 L448.690629,3823.07549 C449.018397,3823.55626 449.585462,3823.95571 449.950799,3823.96058 C450.04258,3823.96175 450.315459,3823.89438 450.557197,3823.8107 C450.798933,3823.72702 451.151277,3823.43616 451.338881,3823.16447 L451.67998,3822.67277 L451.67998,3808.24021 L451.215707,3807.72042 C450.962073,3807.43488 450.560881,3807.15919 450.320323,3807.10696 C450.248565,3807.09139 450.173106,3807.084 450.097661,3807.0835 Z M497.798833,3827.72213 C496.041536,3827.07787 494.887164,3825.96803 494.221959,3824.28325 C493.987873,3823.69037 493.964346,3822.68909 493.968447,3813.49395 L493.972965,3803.35819 L496.020555,3803.3165 L498.068143,3803.2748 L498.070372,3812.98191 C498.0721,3820.48331 498.11598,3822.77413 498.263493,3823.06363 C498.36848,3823.26968 498.69561,3823.5668 498.99045,3823.72389 C499.65292,3824.07687 500.208116,3823.96841 500.816351,3823.36719 L501.251725,3822.93684 L501.251725,3803.2748 L503.300804,3803.3165 L505.349881,3803.35819 L505.349426,3813.49962 C505.348971,3823.40986 505.34177,3823.66008 505.033038,3824.47573 C504.58706,3825.65396 503.449326,3826.83676 502.184789,3827.43678 C500.866362,3828.06237 499.049326,3828.18058 497.798821,3827.72213 L497.798833,3827.72213 Z M430,3827.70903 L430,3803.28326 L440.157162,3803.28326 L440.157162,3807.4791 L434.244784,3807.4791 L434.244784,3813.18891 L436.101877,3813.16341 L437.95897,3813.1379 L438.001148,3815.17867 L438.043326,3817.21943 L434.244784,3817.21943 L434.244784,3827.70903 L430,3827.70903 Z M461.381082,3827.70903 L461.381082,3803.28326 L464.532819,3803.28326 C467.964773,3803.28326 468.904142,3803.42376 470.098648,3804.11571 C470.99972,3804.63769 471.941489,3805.68713 472.420601,3806.70314 C472.808206,3807.5251 472.823583,3807.66202 472.872948,3810.73088 C472.914029,3813.28478 472.876253,3814.09214 472.680329,3814.8481 C472.397455,3815.93953 471.881887,3816.86976 471.169654,3817.57378 L470.666032,3818.0716 L471.994846,3822.56983 C472.725694,3825.04386 473.369967,3827.21228 473.426565,3827.38854 C473.528447,3827.70585 473.507765,3827.70903 471.341771,3827.70903 L469.154075,3827.70903 L468.517369,3825.27394 C467.882876,3822.84731 466.262884,3816.76788 466.125476,3816.29775 C466.073407,3816.11961 466.1793,3816.02302 466.503944,3815.95254 C467.105363,3815.82197 468.191932,3814.88473 468.450182,3814.27378 C468.60007,3813.91918 468.657855,3813.0274 468.657855,3811.06882 L468.657855,3808.35515 L468.214718,3807.91712 C467.802916,3807.51007 467.690359,3807.4791 466.622923,3807.4791 L465.474267,3807.4791 L465.474267,3827.70903 L461.381082,3827.70903 Z M481.239033,3827.59664 C481.238123,3827.53482 481.221112,3822.99995 481.201133,3817.51914 L481.164808,3807.55402 L477.450622,3807.46987 L477.450622,3803.28326 L488.972179,3803.28326 L488.972179,3807.4791 L485.333792,3807.4791 L485.333792,3827.70903 L483.2872,3827.70903 C482.161574,3827.70903 481.2399,3827.65845 481.239033,3827.59664 Z M510.802491,3827.70903 L510.802491,3803.28326 L514.984643,3803.28326 L515.14613,3803.8452 C515.234949,3804.15427 515.925364,3806.32899 516.680387,3808.67791 C517.435411,3811.02683 518.26899,3813.63986 518.532784,3814.48465 C518.796579,3815.32943 519.076727,3816.02062 519.155336,3816.02062 C519.242737,3816.02062 519.29449,3813.56098 519.288551,3809.68941 L519.278833,3803.35819 L523.385243,3803.2748 L523.385243,3827.70903 L518.748551,3827.70903 L518.314512,3826.3229 C518.075792,3825.56053 517.655278,3824.23835 517.380037,3823.38472 C517.104796,3822.53109 516.489821,3820.59238 516.013424,3819.07649 C515.537029,3817.5606 515.090646,3816.32033 515.021462,3816.32033 C514.95228,3816.32033 514.895675,3818.88278 514.895675,3822.01468 L514.895675,3827.70903 L510.802491,3827.70903 Z M528.842829,3827.70903 L528.842829,3803.28326 L539,3803.28326 L539,3807.4791 L532.929324,3807.4791 L532.970568,3810.28881 L533.011813,3813.09852 L536.877911,3813.09852 L536.877608,3817.21943 L532.936023,3817.21943 L532.936023,3823.51319 L539,3823.51319 L539,3827.70903 L528.842829,3827.70903 Z" id="Shape"></path>
        </g>
    </g>
</svg>