<?xml version="1.0" encoding="UTF-8"?>
<svg width="79px" height="27px" viewBox="0 0 79 27" version="1.1" xmlns="http://www.w3.org/2000/svg" xmlns:xlink="http://www.w3.org/1999/xlink">
    <!-- Generator: Sketch 56 (81588) - https://sketch.com -->
    <title>Fill 1</title>
    <desc>Created with Sketch.</desc>
    <g id="Desktop" stroke="none" stroke-width="1" fill="none" fill-rule="evenodd">
        <g id="Home" transform="translate(-946.000000, -3629.000000)" fill="#979DA2">
            <path d="M962.191268,3633.95645 L967.71192,3633.95645 C968.477671,3633.26507 968.093874,3632.38067 968.131055,3631.60204 C968.171924,3630.74588 968.24137,3629.86902 968.058843,3629 L961.697156,3629 C961.697156,3630.46688 961.70914,3631.80791 961.690396,3633.14863 C961.68425,3633.58989 961.944519,3633.79357 962.191268,3633.95645 M968.465994,3636.60211 C968.46753,3636.12225 968.323722,3635.80402 967.894447,3635.56613 C966.90776,3635.56613 965.886965,3635.54385 964.867706,3635.57241 C963.81987,3635.60191 962.757591,3635.43495 961.701151,3635.69575 L961.701151,3655.02162 C961.637543,3655.50273 961.842194,3655.71049 962.312645,3655.64867 C964.22364,3655.65337 966.142624,3655.76667 968.029037,3655.21933 C968.243521,3654.79346 968.473061,3654.37825 968.470623,3653.81993 C968.445713,3648.08076 968.449401,3642.34128 968.465994,3636.60211 M959.753896,3650.62411 L956.971445,3650.62411 C956.158066,3649.96505 955.798545,3649.19018 955.845559,3648.16801 C955.900563,3646.96914 955.858465,3645.76557 955.858465,3644.5642 L955.858465,3639.99 C957.255375,3639.88204 958.597282,3640.19274 959.77387,3639.48315 L959.77387,3635.58496 L956.512364,3635.58496 C955.742619,3635.24821 955.858465,3634.68989 955.858465,3634.17583 C955.858772,3632.46949 955.858465,3630.76315 955.858465,3629.04613 L949.389536,3629.04613 L949.389536,3635.05614 C948.397933,3635.58528 947.451193,3635.61101 946.39045,3635.54981 C945.680011,3636.824 946.191331,3638.18417 946.019867,3639.3777 C946.272761,3639.8108 946.536717,3639.98467 946.950013,3639.9674 C947.665062,3639.93759 948.381954,3639.95893 949.097924,3639.95924 C949.2488,3639.9718 949.399676,3639.98467 949.583125,3640.00036 C949.625222,3640.13437 949.70696,3640.27277 949.707267,3640.4118 C949.714334,3643.46325 949.714949,3646.51502 949.709418,3649.56647 C949.708803,3649.84767 949.850768,3650.21141 949.407051,3650.31529 C949.301038,3651.25241 949.392916,3652.28369 949.86306,3652.97884 C950.969587,3654.61331 952.549945,3655.5655 954.601984,3655.67848 C956.035768,3655.75725 957.385971,3655.16096 958.813916,3655.3229 C959.138408,3655.35993 959.53173,3655.48421 959.870664,3655.07277 C959.775406,3653.65202 959.973297,3652.1569 959.753896,3650.62411 M1001.07982,3635.57617 C1000.60046,3635.59061 1000.30823,3635.39289 1000.03967,3634.84587 L1000.03967,3629.04049 L993.654625,3629.04049 C993.654625,3630.87016 993.63711,3632.63582 993.665072,3634.40054 C993.673062,3634.91962 993.59071,3635.32824 992.97768,3635.6154 L990.549219,3635.6154 C990.007786,3636.75119 990.396499,3637.96323 990.274201,3639.11345 C990.226879,3639.55722 990.525558,3639.76121 990.930865,3640.02515 L993.590095,3640.02515 C993.874947,3643.70114 993.304015,3647.34606 993.958835,3650.94297 C994.360147,3651.00354 994.254135,3651.31895 994.26366,3651.5763 C993.9911,3653.17091 995.391698,3653.87422 995.999504,3654.97485 C997.31314,3655.32761 998.596356,3655.81218 999.972985,3655.64647 C1001.33702,3655.48264 1002.7877,3656.05195 1004.1207,3655.27269 C1004.0408,3653.65705 1004.21626,3652.16129 1004.00424,3650.61909 L1001.09365,3650.61909 C1001.08812,3649.86776 1000.33466,3649.68291 1000.17794,3649.28088 L1000.17794,3639.93225 L1004.33917,3639.93225 L1004.33917,3635.56613 C1003.20776,3635.56613 1002.14333,3635.54416 1001.07982,3635.57617 M1018.55041,3648.31551 C1018.01697,3649.82508 1017.18976,3650.52305 1015.57776,3650.62191 C1014.88391,3650.66397 1014.26258,3651.18745 1013.35302,3650.8281 C1012.88319,3650.2067 1012.19026,3649.76168 1011.76253,3649.02102 C1010.38344,3646.6324 1010.51004,3644.27547 1011.77451,3641.90881 C1012.34667,3640.83799 1013.16988,3640.17987 1014.43282,3640.2712 C1014.53422,3640.27873 1014.63747,3640.27936 1014.73887,3640.27089 C1017.56742,3640.03708 1017.86271,3641.05956 1018.84879,3643.71275 C1018.75138,3645.24648 1019.08509,3646.80155 1018.55041,3648.31551 M1024.9963,3643.9406 C1024.99169,3642.82679 1025.07558,3641.734 1024.40539,3640.69677 C1023.60676,3639.46024 1022.98482,3638.06899 1021.76798,3637.20782 C1019.84316,3635.84576 1017.64485,3635.27238 1015.31226,3635.25637 C1014.25982,3635.24884 1013.21321,3635.40953 1012.17306,3635.49489 C1010.67075,3635.61854 1009.39368,3636.24842 1008.37104,3637.11053 C1006.52488,3638.66717 1004.99031,3640.46233 1004.64676,3643.17672 C1004.27219,3646.13339 1004.32104,3648.43948 1005.65281,3650.6806 C1007.00117,3652.94965 1008.76651,3654.65442 1011.36214,3655.45879 C1013.00303,3655.96753 1014.64515,3656.10969 1016.27713,3655.91857 C1017.82062,3655.73717 1019.35212,3655.19548 1020.6931,3654.36915 C1022.00274,3653.56195 1023.26414,3652.68352 1023.91773,3651.07384 C1024.17923,3650.42827 1024.31413,3649.56898 1024.99814,3649.18704 C1024.99814,3647.28298 1025.00337,3645.61179 1024.9963,3643.9406 M980.670674,3639.64666 C982.896635,3639.69405 983.690962,3640.98832 984.128226,3642.7954 C983.966903,3643.21563 983.688197,3643.42245 983.208835,3643.41837 C981.115313,3643.40143 979.021484,3643.40425 976.92827,3643.41775 C976.560452,3643.42026 976.396977,3643.16856 976.182186,3642.97523 C977.131384,3640.25143 978.02097,3639.59017 980.670674,3639.64666 M978.880748,3647.1835 C982.816741,3647.16686 986.753041,3647.17596 990.882314,3647.17596 C990.904746,3644.92103 990.462258,3642.96739 989.730002,3640.96824 C988.759601,3638.3185 986.992107,3636.78853 984.522471,3635.8762 C981.881063,3634.90048 979.188954,3635.23597 976.499303,3635.57021 C976.360718,3635.58716 976.204925,3635.67033 976.106287,3635.77201 C975.563625,3636.33001 974.785891,3636.41946 974.157496,3636.82557 C972.172138,3638.10854 970.84068,3639.89051 969.983974,3642.09617 C969.177047,3644.17378 969.124809,3646.3104 969.715715,3648.40496 C970.494371,3651.16454 972.100849,3653.40535 974.65253,3654.68738 C977.567419,3656.15175 980.644862,3656.31463 983.828625,3655.5247 C985.992207,3654.98741 987.769227,3653.95237 989.111748,3652.17479 C989.708799,3651.38423 990.293559,3650.51615 989.816963,3649.40516 L984.54859,3649.40516 C983.943856,3650.19195 983.099134,3650.67621 982.378248,3651.22354 C981.645377,3651.38266 980.920188,3651.04026 980.246623,3651.51259 C980.046582,3651.6535 979.653873,3651.56782 979.365334,3651.50756 C977.8535,3651.19059 976.982045,3650.09655 976.489162,3648.73135 C976.295574,3648.19531 975.743078,3647.53813 976.1659,3647.0884 C977.252454,3646.50937 978.023428,3647.18695 978.880748,3647.1835" id="Fill-1"></path>
        </g>
    </g>
</svg>