<?xml version="1.0" encoding="UTF-8"?>
<svg width="20px" height="19px" viewBox="0 0 20 19" version="1.1" xmlns="http://www.w3.org/2000/svg" xmlns:xlink="http://www.w3.org/1999/xlink">
    <!-- Generator: Sketch 56 (81588) - https://sketch.com -->
    <title>Shape Copy 4</title>
    <desc>Created with Sketch.</desc>
    <g id="Desktop" stroke="none" stroke-width="1" fill="none" fill-rule="evenodd">
        <g id="Product---API" transform="translate(-831.000000, -1236.000000)" fill="#F98C00" fill-rule="nonzero">
            <g id="Group-14" transform="translate(735.000000, 1137.000000)">
                <g id="Group-15" transform="translate(96.000000, 90.000000)">
                    <path d="M12.7272727,9 L4.54545455,9 C3.81818182,9 3.18181818,9.45454545 2.90909091,10.0909091 L0.181818182,16.5454545 C0.0909090909,16.7272727 0,16.9090909 0,17.1818182 L0,18.9090909 L0,18.9090909 L0,19 C0,20 0.818181818,20.8181818 1.81818182,20.8181818 L7.54545455,20.8181818 L6.63636364,25 C6.63636364,25.0909091 6.63636364,25.1818538 6.63636364,25.2727273 C6.63636364,25.6363636 6.81818182,25.9999643 7,26.2727273 L8,27.1818182 L14,21.1818182 C14.3636364,20.8181818 14.5454545,20.3636364 14.5454545,19.9090909 L14.5454545,10.8181818 C14.5454545,9.81818182 13.7272727,9 12.7272727,9 Z M16.3636364,9 L16.3636364,19.9090909 L20,19.9090909 L20,9 L16.3636364,9 Z" id="Shape-Copy-4" transform="translate(10.000000, 18.090909) scale(-1, -1) translate(-10.000000, -18.090909) "></path>
                </g>
            </g>
        </g>
    </g>
</svg>