<?xml version="1.0" encoding="UTF-8"?>
<svg width="20px" height="19px" viewBox="0 0 20 19" version="1.1" xmlns="http://www.w3.org/2000/svg" xmlns:xlink="http://www.w3.org/1999/xlink">
    <!-- Generator: Sketch 56 (81588) - https://sketch.com -->
    <title>Shape</title>
    <desc>Created with Sketch.</desc>
    <g id="Desktop" stroke="none" stroke-width="1" fill="none" fill-rule="evenodd">
        <g id="Product---API" transform="translate(-293.000000, -1241.000000)" fill="#F98C00" fill-rule="nonzero">
            <g id="Group-16" transform="translate(293.000000, 1227.000000)">
                <path d="M12.7272727,14 L4.54545455,14 C3.81818182,14 3.18181818,14.4545455 2.90909091,15.0909091 L0.181818182,21.5454545 C0.0909090909,21.7272727 0,21.9090909 0,22.1818182 L0,23.9090909 L0,23.9090909 L0,24 C0,25 0.818181818,25.8181818 1.81818182,25.8181818 L7.54545455,25.8181818 L6.63636364,30 C6.63636364,30.0909091 6.63636364,30.1818538 6.63636364,30.2727273 C6.63636364,30.6363636 6.81818182,30.9999643 7,31.2727273 L8,32.1818182 L14,26.1818182 C14.3636364,25.8181818 14.5454545,25.3636364 14.5454545,24.9090909 L14.5454545,15.8181818 C14.5454545,14.8181818 13.7272727,14 12.7272727,14 Z M16.3636364,14 L16.3636364,24.9090909 L20,24.9090909 L20,14 L16.3636364,14 Z" id="Shape" transform="translate(10.000000, 23.090909) scale(-1, 1) translate(-10.000000, -23.090909) "></path>
            </g>
        </g>
    </g>
</svg>